<?xml version="1.0" encoding="UTF-8" standalone="no"?>
<!-- Created with Inkscape (http://www.inkscape.org/) -->

<svg
   width="32.753788"
   height="37.671551"
   viewBox="0 0 8.6661065 9.9672643"
   version="1.1"
   id="svg8"
   xmlns="http://www.w3.org/2000/svg"
   xmlns:svg="http://www.w3.org/2000/svg"
   xmlns:rdf="http://www.w3.org/1999/02/22-rdf-syntax-ns#"
   xmlns:cc="http://creativecommons.org/ns#"
   xmlns:dc="http://purl.org/dc/elements/1.1/">
  <defs
     id="defs2" />
  <metadata
     id="metadata5">
    <rdf:RDF>
      <cc:Work
         rdf:about="">
        <dc:format>image/svg+xml</dc:format>
        <dc:type
           rdf:resource="http://purl.org/dc/dcmitype/StillImage" />
      </cc:Work>
    </rdf:RDF>
  </metadata>
  <g
     id="layer1"
     transform="translate(-0.6630007,-274.33176)">
    <g
       id="g36"
       transform="matrix(0.26458333,0,0,0.26458333,-113.14815,188.35139)">
      <g
         style="display:none"
         id="layer1-4">
        <path
           id="path21"
           d="M 16.661157,63.471074 V 192 l 111.074383,64.26446 111.33884,-64 V 63.471074 L 128.26446,0 Z"
           style="fill:none;fill-rule:evenodd;stroke:#000000;stroke-width:1px;stroke-linecap:butt;stroke-linejoin:miter;stroke-opacity:1" />
        <path
           id="path23"
           d="M 50.247934,127.47107 H 82.512397 L 128,58.710744 H 94.942149 Z"
           style="fill:none;fill-rule:evenodd;stroke:#000000;stroke-width:1px;stroke-linecap:butt;stroke-linejoin:miter;stroke-opacity:1" />
        <path
           id="path25"
           d="M 66.380165,196.76033 H 98.909091 L 189.8843,58.975207 h -32.26447 z"
           style="fill:none;fill-rule:evenodd;stroke:#000000;stroke-width:1px;stroke-linecap:butt;stroke-linejoin:miter;stroke-opacity:1" />
        <path
           id="path27"
           d="m 205.4876,128.26446 h -32.26446 l -45.4876,68.49587 h 32.52892 z"
           style="fill:none;fill-rule:evenodd;stroke:#000000;stroke-width:1px;stroke-linecap:butt;stroke-linejoin:miter;stroke-opacity:1" />
      </g>
      <path
         id="path31"
         style="fill:#ff0000;fill-opacity:1;stroke:#ff0000;stroke-width:0.0390836;stroke-opacity:1"
         d="M 14.884766 24.941406 L 18.931641 24.941406 C 19.27142 24.428736 19.242388 24.470133 19.619141 23.902344 L 23.019531 18.779297 L 25.513672 18.777344 L 28.007812 18.777344 L 27.945312 18.884766 C 27.910384 18.943886 26.382391 21.260223 24.550781 24.033203 L 23.951172 24.941406 L 32.730469 24.941406 L 32.724609 18.806641 L 32.71875 13.980469 L 22.119141 13.980469 C 20.905837 15.819707 20.637656 16.229967 18.865234 18.914062 L 14.884766 24.941406 z "
         transform="translate(430.15239,324.96518)" />
      <path
         id="path959"
         style="fill:#ff0000;fill-opacity:1;stroke:#ff0000;stroke-width:0.0390836;stroke-opacity:1"
         d="M 9.8613281 24.941406 L 0.0234375 24.941406 L 0.01953125 28.226562 L 8.1582031 32.9375 L 8.1601562 32.9375 C 12.636736 35.52903 16.321509 37.651344 16.349609 37.652344 C 16.377679 37.653454 20.076879 35.540764 24.568359 32.958984 L 32.734375 28.265625 L 32.730469 24.941406 L 23.951172 24.941406 L 21.220703 29.074219 L 18.707031 29.085938 C 17.313611 29.091636 16.199031 29.079947 16.207031 29.060547 C 16.212797 29.045774 17.584783 26.973588 18.931641 24.941406 L 14.884766 24.941406 L 12.154297 29.074219 L 9.640625 29.083984 C 8.220415 29.089584 7.1306719 29.079947 7.1386719 29.060547 C 7.1415574 29.053021 9.0315622 26.196927 9.8613281 24.941406 z "
         transform="translate(430.15239,324.96518)" />
      <path
         id="path957"
         style="fill:#ff0000;fill-opacity:1;stroke:#ff0000;stroke-width:0.0390836;stroke-opacity:1"
         d="M 0.03515625 13.980469 L 0.029296875 18.787109 L 0.0234375 24.941406 L 9.8613281 24.941406 C 11.102016 23.064119 11.698718 22.159346 13.933594 18.783203 L 17.113281 13.980469 L 12.943359 13.980469 L 9.7304688 18.833984 L 7.2363281 18.84375 C 5.8579681 18.84945 4.7478594 18.839712 4.7558594 18.820312 C 4.7626113 18.80305 6.2182455 16.55858 7.8925781 13.980469 L 0.03515625 13.980469 z "
         transform="translate(430.15239,324.96518)" />
      <path
         id="path954"
         style="fill:#ff0000;fill-opacity:1;stroke:#ff0000;stroke-width:0.0390836;stroke-opacity:1"
         d="M 0.03515625 13.980469 L 7.8925781 13.980469 C 8.0086488 13.801745 7.9902251 13.827946 8.109375 13.644531 L 11.451172 8.5 L 14.003906 8.4980469 L 16.556641 8.4980469 L 16.492188 8.6074219 C 16.456477 8.667896 14.91901 10.995946 13.078125 13.777344 L 12.943359 13.980469 L 17.113281 13.980469 L 20.714844 8.5390625 L 23.208984 8.5371094 L 25.703125 8.5371094 L 25.638672 8.6445312 C 25.620476 8.6752445 23.431783 11.990643 22.119141 13.980469 L 32.71875 13.980469 L 32.712891 9.3476562 L 24.574219 4.6855469 L 16.435547 0.0234375 L 8.2382812 4.6855469 L 0.0390625 9.3476562 L 0.03515625 13.980469 z "
         transform="translate(430.15239,324.96518)" />
    </g>
  </g>
</svg>
