<?xml version="1.0" encoding="UTF-8" standalone="no"?>
<svg
   version="1.0"
   width="625.000000pt"
   height="624.000000pt"
   viewBox="0 0 625.000000 624.000000"
   preserveAspectRatio="xMidYMid meet"
   id="svg1599"
   xmlns="http://www.w3.org/2000/svg"
   xmlns:svg="http://www.w3.org/2000/svg">
  <defs
     id="defs1603" />
  <path
     id="path1575"
     style="fill:#000000;stroke:none;stroke-width:0.133333"
     d="M 503.22266 489.5332 L 483.83008 489.5332 C 481.52278 491.3804 479.15394 493.10401 477.19922 494.13281 C 474.93255 495.19948 469.86667 496.53359 466 496.93359 C 460 497.60026 458.66758 497.19935 456.26758 494.66602 C 455.29061 493.63763 454.35964 491.63027 453.58008 489.5332 L 439.16992 489.5332 C 439.22503 489.81052 439.27453 489.95332 439.33398 490.26758 C 440.80065 498.00091 445.06693 504.66667 450.93359 508 C 455.60026 510.53333 457.7332 510.93372 466.5332 510.40039 C 481.80869 509.52393 494.44565 502.22494 503.22266 489.5332 z "
     transform="scale(0.75)" />
  <path
     id="path2071"
     style="fill:#000000;stroke:none;stroke-width:0.133333"
     d="M 393.55859 489.5332 L 422.87305 489.5332 C 426.93549 487.86503 430.91053 486.55825 434.40039 485.86719 C 437.8959 485.11815 438.35986 485.45713 439.16992 489.5332 L 453.58008 489.5332 C 452.33819 486.19246 451.58125 482.55156 452.40039 481.73242 C 453.86706 480.39909 466.79909 478.93411 479.73242 478.80078 C 492.66576 478.66745 493.33281 478.79922 492.13281 481.19922 C 490.98631 483.24655 487.50331 486.59245 483.83008 489.5332 L 503.22266 489.5332 C 503.79217 488.70968 504.39738 487.93572 504.93359 487.06641 C 508.66693 481.19974 508.79987 481.20052 514.5332 481.86719 C 517.7332 482.26719 523.73333 484.26615 528 486.13281 C 529.97753 486.99798 532.17104 488.24612 534.19531 489.5332 L 554.18164 489.5332 C 550.51046 484.04579 543.92658 478.01819 537.33398 474.66602 C 526.80065 469.33268 512.4 466.39909 492 465.73242 C 452.10836 464.27042 413.69383 474.12248 393.55859 489.5332 z "
     transform="scale(0.75)" />
  <path
     id="path2069"
     style="fill:#000000;stroke:none;stroke-width:0.133333"
     d="M 268.66406 489.5332 L 282.79297 489.5332 C 274.5233 470.13656 275.67519 447.072 286.40039 421.4668 C 288.82991 415.74008 292.11497 409.94224 295.92383 404.17383 L 280.41016 404.17383 C 275.85795 412.08735 272.03636 419.91272 270.5332 425.06641 C 269.59987 428.13307 268.4 430.26576 268 429.73242 C 266.52322 428.115 263.02794 416.9564 259.58398 404.17383 L 245.77148 404.17383 C 251.63558 425.63726 259.73507 449.26311 262.80078 452.5332 C 263.46745 453.3332 264 457.7332 264 462.5332 C 264.0613 471.85128 265.6585 480.86955 268.66406 489.5332 z "
     transform="scale(0.75)" />
  <path
     id="path2067"
     style="fill:#000000;stroke:none;stroke-width:0.133333"
     d="M 404.94922 547.125 L 555.36133 547.125 C 560.81208 545.34375 567.50175 543.60497 572.66602 542.66602 C 580.26602 541.26602 590.4332 540.43346 599.7832 540.2168 C 609.1332 540.00013 617.66667 540.40013 622 541.4668 C 625.2 542.2668 628.93281 544.13346 630.13281 545.4668 C 630.74049 546.14596 631.1393 546.65868 631.37891 547.125 L 645.22852 547.125 C 644.70411 540.45346 640.48994 535.053 632.26758 531.06641 C 624.93424 527.46641 623.86641 527.33398 605.06641 527.33398 C 594.13307 527.33398 585.33398 527.06693 585.33398 526.93359 C 585.33398 526.66693 588.66602 522.80039 592.66602 518.40039 C 599.08344 511.28106 605.49756 500.16573 609.58984 489.5332 L 595.12891 489.5332 C 587.15378 507.2567 572.74621 522.60095 553.59961 532.40039 C 543.33294 537.73372 524.26589 544.66628 523.19922 543.59961 C 522.93255 543.46628 527.06758 541.19935 532.26758 538.66602 C 542.93424 533.46602 552.93372 524.53307 556.40039 517.06641 C 559.33372 510.79974 559.33281 499.46602 556.13281 492.66602 C 555.67933 491.67268 554.89112 490.59368 554.18164 489.5332 L 534.19531 489.5332 C 536.53856 491.02309 538.65108 492.57955 539.86719 493.86719 C 560.93385 515.60052 515.33268 540.5332 454.66602 540.5332 C 430.79935 540.66654 417.33359 538.26576 404.93359 531.73242 C 392.66693 525.19909 389.06641 516.66719 395.06641 507.86719 C 398.91884 502.13793 411.25933 494.30219 422.87305 489.5332 L 393.55859 489.5332 C 387.98532 493.79877 383.7331 498.46624 381.33398 503.4668 C 378.93398 508.2668 378.53359 511.20052 378.93359 517.86719 C 379.60026 528.53385 383.20052 534.26732 393.86719 541.33398 C 397.14421 543.55989 400.86606 545.46925 404.94922 547.125 z "
     transform="scale(0.75)" />
  <path
     id="path2080"
     style="fill:#000000;stroke:none;stroke-width:0.133333"
     d="M 483.94141 655.10938 L 509.51172 655.10938 C 506.20398 653.39904 502.95416 651.86169 500.26758 650.93359 C 496.13424 649.46693 495.86758 649.06706 496.26758 644.40039 C 496.66758 639.60039 497.06602 639.19909 502.66602 637.73242 C 505.66602 636.99909 508.76706 636.73359 511.90039 636.93359 C 515.03372 637.13359 518.20065 637.80026 521.33398 638.93359 C 529.6319 642.0069 535.20855 648.38799 536.2793 655.10938 L 549.19336 655.10938 C 548.48751 643.35507 542.22712 634.75541 528.93359 627.73242 C 524.13359 625.19909 521.19909 624.66602 509.73242 624.66602 L 496.26758 624.66602 L 495.4668 620.80078 C 495.0668 618.66745 494.66602 614.8 494.66602 612 L 494.66602 607.06641 L 507.73242 605.4668 C 535.19909 602.13346 575.73346 591.99935 599.4668 582.66602 C 628.80013 570.93268 645.33398 558.66654 645.33398 548.5332 C 645.33398 548.05184 645.26536 547.59369 645.22852 547.125 L 631.37891 547.125 C 632.03303 548.39807 631.26566 549.30278 628.5332 552.13281 C 623.7332 557.19948 602.53268 567.59909 584.66602 573.73242 C 559.06602 582.53242 511.33281 593.33398 498.13281 593.33398 L 493.86719 593.33398 L 492.40039 577.59961 C 491.60039 569.06628 491.06732 561.86628 491.33398 561.59961 C 491.46732 561.33294 497.60078 560.53385 504.80078 559.86719 C 521.73411 558.13385 536.66732 554.66732 549.33398 549.33398 C 550.95093 548.62411 553.07192 547.87315 555.36133 547.125 L 404.94922 547.125 C 418.47615 552.61027 436.40163 555.0149 458.93359 554.40039 C 475.73359 554.00039 475.86602 553.99974 476.66602 557.06641 C 478.66602 565.33307 481.46758 599.73359 482.26758 626.93359 C 482.69988 642.55833 482.9114 650.54793 483.94141 655.10938 z "
     transform="scale(0.75)" />
  <path
     id="path2078"
     style="fill:#000000;stroke:none;stroke-width:0.133333"
     d="M 214.43359 655.10938 L 196.57031 655.10938 C 204.9003 682.92666 219.34687 714.78874 233.73242 735.73242 C 253.86576 765.06576 277.46589 770.00039 285.19922 746.40039 L 286.80078 741.59961 L 303.33398 740.66602 C 329.20065 739.19935 390.9332 740.66589 402.5332 743.19922 C 415.06654 745.86589 421.59909 749.06576 423.73242 753.73242 C 426.53242 759.73242 424.53385 763.86654 413.86719 774.5332 C 404.66719 783.46654 403.86758 784.66589 404.26758 789.19922 C 404.93424 797.19922 409.33411 798.53424 442.80078 800.26758 C 471.86745 801.73424 534.39935 800.13398 550.66602 797.33398 C 558.26602 796.00065 564 791.60026 564 786.93359 C 564 779.33359 547.86719 766.66706 527.86719 758.40039 L 517.59961 754.26758 L 526.13281 746.26758 C 543.06615 730.53424 549.33268 709.0668 542.66602 689.4668 C 539.86602 680.93346 539.86706 680.80013 542.40039 677.4668 C 547.60039 670.2668 549.33398 665.46732 549.33398 657.33398 C 549.33398 656.56547 549.23795 655.85195 549.19336 655.10938 L 536.2793 655.10938 C 536.60216 657.13608 536.55602 659.19137 536 661.19922 C 533.73333 669.59922 531.73307 670.40026 525.06641 664.93359 C 521.18003 661.72312 515.23282 658.06759 509.51172 655.10938 L 483.94141 655.10938 C 485.13515 660.39595 487.441 661.01978 492.66602 662.66602 C 510.13268 668.13268 525.73242 680.79987 529.73242 692.5332 C 536.93242 713.46654 525.06602 736.13281 500.66602 748.13281 C 493.59935 751.46615 491.20026 753.46576 490.93359 755.73242 C 490.26693 760.39909 492.53242 762.13333 501.73242 764 C 514.53242 766.4 543.06667 779.33385 546 783.86719 C 546.4 784.53385 540.26758 785.60091 532.26758 786.26758 C 514.93424 787.60091 424.66732 787.73372 423.33398 786.40039 C 422.80065 785.86706 425.33307 782.13333 429.06641 778 C 437.99974 768.4 439.99922 761.59961 437.19922 751.59961 C 434.13255 740.13294 423.99922 733.73385 403.19922 729.86719 C 379.46589 725.46719 282.1332 726.13268 276.5332 730.66602 C 275.46654 731.59935 274.26719 734.66628 273.86719 737.59961 C 273.33385 740.39961 271.86602 744.13242 270.66602 745.73242 C 268.39935 748.53242 268.13242 748.5332 263.73242 746.5332 C 256.26576 742.9332 251.0668 737.73424 243.4668 726.26758 C 229.4668 705.33424 209.99922 661.46758 213.19922 658.26758 C 213.78477 657.68203 214.2 656.39211 214.43359 655.10938 z "
     transform="scale(0.75)" />
  <path
     id="path2076"
     style="fill:#000000;stroke:none;stroke-width:0.133333"
     d="M 358.24805 547.125 L 330.20312 547.125 C 334.60576 548.74208 338.80433 550.40394 339.33398 550.93359 C 339.86732 551.33359 338.5332 554.26589 336.5332 557.19922 C 333.59987 561.73255 332.66641 562.39974 331.06641 561.06641 C 329.62221 559.91105 323.87177 551.95513 320.74609 547.125 L 304.9043 547.125 C 309.06958 553.75317 313.88673 561.01564 317.19922 565.4668 L 325.06641 575.86719 L 319.73242 586.26758 C 316.66576 592.00091 314.13385 596.79974 313.86719 597.06641 C 313.73385 597.33307 310.66641 595.3332 307.06641 592.5332 C 298.39974 585.86654 293.46706 584 284.40039 584 C 267.73372 584 255.60052 595.19909 245.86719 619.73242 C 244.66719 622.66576 244.00078 622.13281 234.80078 610.13281 C 221.46745 592.53281 212.39909 585.33398 203.73242 585.33398 C 197.99909 585.33398 193.59922 588.53281 191.19922 594.13281 C 188.66589 600.13281 188.80065 620.80039 191.33398 634.40039 C 192.5465 640.82122 194.40016 647.86232 196.57031 655.10938 L 214.43359 655.10938 C 214.51914 654.6396 214.66602 654.16132 214.66602 653.73242 C 214.66602 649.73242 209.8668 640.13255 207.4668 639.19922 C 203.33346 637.59922 199.99961 603.46719 203.59961 599.86719 C 204.79961 598.66719 206.00026 599.0668 208.93359 601.4668 C 215.33359 606.80013 225.33359 619.19961 234.93359 633.59961 C 244.00026 647.19961 246.53359 649.46758 250.93359 648.26758 C 253.46693 647.60091 253.59935 647.59935 256.66602 632.66602 C 262.39935 605.59935 277.86589 591.33255 293.19922 599.19922 C 298.66589 602.13255 306.53424 611.46628 310.26758 619.59961 C 313.73424 627.19961 313.46654 627.19909 322.5332 623.73242 C 324.9332 622.79909 325.46602 621.99961 324.66602 619.59961 C 321.99935 611.33294 322.39987 609.73424 330.5332 594.26758 C 334.9332 585.73424 343.06602 571.73398 348.66602 563.33398 C 353.41182 555.92589 357.26448 549.40179 358.24805 547.125 z "
     transform="scale(0.75)" />
  <path
     id="path2074"
     style="fill:#000000;stroke:none;stroke-width:0.133333"
     d="M 268.66406 489.5332 C 272.19555 499.71286 277.69878 509.39662 285.33398 518.40039 C 289.73398 523.73372 296.93398 534.13346 301.33398 541.4668 C 302.31799 543.13662 303.70446 545.21571 304.9043 547.125 L 320.74609 547.125 C 319.54317 545.2661 318.66602 543.80028 318.66602 543.4668 C 318.66602 543.09438 324.6311 545.07841 330.20312 547.125 L 358.24805 547.125 C 358.39744 546.77917 358.66602 546.25589 358.66602 546.13281 C 358.66602 543.06615 354.26667 540.26615 346 538.13281 C 325.73333 532.93281 308.53424 523.2 296.26758 510 C 290.39399 503.75931 285.93485 496.90253 282.79297 489.5332 L 268.66406 489.5332 z "
     transform="scale(0.75)" />
  <path
     id="path2065"
     style="fill:#000000;stroke:none;stroke-width:0.133333"
     d="M 600.06836 404.17383 L 584.01172 404.17383 C 593.41346 416.92973 599.00959 430.40101 601.33398 445.86719 C 603.59415 460.87702 601.26025 475.90724 595.12891 489.5332 L 609.58984 489.5332 C 610.93913 486.02751 612.04038 482.57397 612.80078 479.33398 C 615.46745 467.46732 615.60078 446.13424 612.80078 434.26758 C 610.56398 424.57475 605.98222 414.03236 600.06836 404.17383 z "
     transform="scale(0.75)" />
  <path
     id="path2063"
     style="fill:#000000;stroke:none;stroke-width:0.133333"
     d="M 267.05664 222.14062 L 283.45312 222.14062 C 286.24597 217.38173 289.75906 212 290.40039 212 C 290.93372 212 299.06602 214.40065 308.66602 217.33398 C 318.13268 220.13398 326.40078 222.13294 326.80078 221.59961 C 327.86745 220.39961 330.66602 212 330.66602 210 C 330.66602 209.2 323.86576 206.53333 315.73242 204 C 307.46576 201.6 300.26576 199.33411 299.73242 198.80078 C 298.55731 197.73759 303.51318 190.8269 310.05273 183.06055 L 292.59961 183.06055 C 283.70435 195.05914 274.92034 208.41704 267.05664 222.14062 z "
     transform="scale(0.75)" />
  <path
     id="path2087"
     style="fill:#000000;stroke:none;stroke-width:0.133333"
     d="M 377.60547 222.14062 L 359.95312 222.14062 C 338.09293 249.46786 299.05922 286.97755 273.06641 304.13281 C 260.66641 312.26615 254.13294 314.66667 251.59961 312 C 248.93294 309.46667 250.13333 296 254 284 C 257.6 272.93333 268.40078 247.46654 270.80078 244.5332 C 271.73411 243.3332 276.13307 244.00078 287.06641 246.80078 C 295.19974 248.93411 302.13281 250.66602 302.13281 250.66602 C 302.26615 250.66602 302.66641 248.93411 303.06641 246.80078 C 303.46641 244.66745 304.26602 241.46628 304.66602 239.59961 C 305.46602 236.39961 305.20078 236.26589 292.80078 233.19922 C 285.73411 231.46589 280 229.60026 280 228.93359 C 280 228.24241 281.60084 225.29684 283.45312 222.14062 L 267.05664 222.14062 C 253.63702 245.56028 242.8666 269.46448 238.66602 286.93359 C 235.33268 300.93359 235.33268 309.73255 238.66602 317.19922 C 241.19935 322.66589 241.19922 323.33372 239.19922 330.40039 C 236.26589 340.26706 237.33255 367.33242 241.19922 385.73242 C 242.35151 391.21358 243.98438 397.63276 245.77148 404.17383 L 259.58398 404.17383 C 256.49812 392.72036 253.44925 379.97324 252 371.4668 C 250 359.20013 249.86719 340.26758 251.86719 334.26758 C 254.00052 328.13424 257.46745 327.73255 264.80078 333.19922 C 272.00078 338.39922 284.66719 352.00091 293.86719 364.26758 L 301.4668 374.40039 L 292.93359 385.19922 C 288.79605 390.44834 284.33755 397.34647 280.41016 404.17383 L 295.92383 404.17383 C 300.89434 396.64613 306.84683 389.17133 313.86719 382 C 330.80052 364.8 346.00052 354.79922 369.86719 345.19922 C 376.53385 342.66589 382.26745 339.59987 382.80078 338.5332 C 383.33411 337.46654 385.06602 329.73398 386.66602 321.33398 C 397.59935 262.13398 434.79935 204.26602 484.66602 168.66602 C 512.66602 148.79935 543.99948 138.66745 552.13281 146.80078 C 554.53281 149.20078 554.79948 150.66758 554.13281 156.26758 C 550.93281 180.53424 520.66706 234.13398 482.40039 283.33398 C 468.66706 300.93398 447.06641 324.13242 441.06641 327.73242 C 436.39974 330.53242 434.79909 335.46706 437.73242 338.40039 C 439.46576 340.00039 443.33424 340.53268 456.26758 340.66602 C 474.13424 340.93268 486.93294 343.20013 505.59961 349.4668 C 512.13294 351.73346 518.53242 353.06602 519.73242 352.66602 C 520.93242 352.26602 524.13411 348.80026 526.80078 344.93359 C 562.93411 293.33359 633.73346 238.5332 687.4668 220.5332 C 711.73346 212.39987 730.53411 213.06667 732.80078 222 C 735.86745 234 714.66706 266.26602 686.40039 292.66602 C 645.73372 330.53268 601.73307 356.93268 563.06641 366.66602 C 558.66641 367.73268 557.19987 368.79961 556.5332 371.59961 C 555.7332 374.66628 556.93398 376.26576 567.33398 385.73242 C 573.92401 391.79524 579.39145 397.90524 584.01172 404.17383 L 600.06836 404.17383 C 595.40667 396.4027 589.93609 389.046 584 382.93359 C 580.93333 379.73359 578.66745 376.93268 578.80078 376.66602 C 579.06745 376.39935 584.13333 374.26667 590 372 C 648.8 348.66667 717.73294 291.06693 739.59961 246.93359 C 745.06628 236.00026 745.86719 233.60013 745.86719 225.4668 C 746.00052 218.13346 745.46589 215.46706 743.19922 212.40039 C 730.53255 195.20039 695.73268 198.66628 650.66602 221.59961 C 633.46602 230.39961 603.73268 249.8668 586.66602 263.4668 C 571.33268 275.73346 534.53346 312.66693 523.4668 326.93359 L 514.5332 338.5332 L 506.93359 335.86719 C 496.93359 332.40052 475.06667 328 468 328 L 462.40039 328 L 466.93359 322.80078 C 492.66693 292.80078 504.13359 277.99935 520.93359 252.66602 C 540.13359 223.86602 554.93281 197.06576 562.13281 177.73242 C 566.39948 166.26576 568.40078 153.46706 566.80078 146.40039 C 560.53411 118.66706 510.53294 129.19948 463.59961 168.13281 C 417.33294 206.26615 384.93346 260.53372 373.4668 318.40039 L 371.19922 329.86719 L 358.66602 335.33398 C 344.13268 341.73398 330.79922 349.60078 319.19922 358.80078 L 311.06641 365.19922 L 306.66602 358.93359 C 298.53268 347.60026 284.80039 331.73268 278.40039 326.66602 L 272.13281 321.73242 L 282.40039 314.93359 C 311.95652 295.45599 356.80795 251.03314 377.60547 222.14062 z "
     transform="scale(0.75)" />
  <path
     id="path2085"
     style="fill:#000000;stroke:none;stroke-width:0.133333"
     d="M 389.7168 183.06055 L 375.32227 183.06055 C 376.05643 185.16476 376.64339 187.30347 376.93359 189.4668 C 377.46693 193.4668 376.80052 196.4 373.86719 202 C 371.16588 207.37326 366.12657 214.42326 359.95312 222.14062 L 377.60547 222.14062 C 381.29538 217.01449 384.31871 212.31822 386.26758 208.40039 C 390.66758 199.33372 390.93372 198.13359 390.40039 188.93359 C 390.24235 186.68147 390.00683 184.80628 389.7168 183.06055 z "
     transform="scale(0.75)" />
  <path
     id="path2083"
     style="fill:#000000;stroke:none;stroke-width:0.133333"
     d="M 342.80273 98.728516 C 340.87464 102.79855 339.92989 107.33017 340.26758 112.13281 C 340.93424 121.19948 345.06615 127.46641 354.13281 133.06641 L 359.86719 136.80078 L 357.59961 140.5332 C 355.33294 144.39987 355.06732 144.39987 343.33398 144.5332 C 328.26732 144.79987 324.00065 146.93424 311.33398 160.26758 C 305.20987 166.69514 298.88008 174.58897 292.59961 183.06055 L 310.05273 183.06055 C 319.09535 172.32156 331.25306 159.90403 335.19922 158.66602 C 336.69922 158.23268 338.39974 158.00078 340.22266 157.95703 C 345.69141 157.82578 352.26719 159.40039 357.86719 162.40039 C 365.99549 166.7854 372.34598 174.53017 375.32227 183.06055 L 389.7168 183.06055 C 389.02808 178.91516 387.89034 175.72779 385.73242 171.59961 L 381.73242 164.26758 L 390 156 L 398.26758 147.86719 L 402.80078 150.5332 C 414.93411 157.59987 436.1332 159.0668 448.5332 153.4668 C 454.9332 150.6668 460.80052 144.40026 461.86719 138.93359 C 462.53385 136.00026 463.99974 134.80026 469.06641 132.93359 C 472.53307 131.73359 477.33242 129.46667 479.73242 128 C 488.79909 122.4 491.99935 110.66667 486.66602 102 C 485.99212 100.90492 484.96493 99.804942 483.76758 98.728516 L 445.78516 98.728516 C 446.15127 100.47364 446.57758 101.84035 446.93359 102.26758 C 447.86693 103.33424 451.73294 104 457.59961 104 C 471.33294 104 479.06719 109.06745 473.86719 114.80078 C 471.33385 117.60078 458.66758 122.66602 454.26758 122.66602 C 452.66758 122.66602 449.86615 123.60078 448.13281 124.80078 C 445.06615 126.93411 444.79922 130.53281 447.19922 136.13281 C 448.53255 139.06615 439.20039 143.06641 430.40039 143.06641 C 423.06706 143.19974 410.66602 140.39935 410.66602 138.66602 C 410.66602 138.13268 413.20039 136.00052 416.40039 133.86719 C 419.46706 131.86719 422.26654 129.99909 422.5332 129.73242 C 423.46654 129.06576 416.6668 117.33398 415.4668 117.33398 C 413.20013 117.33398 395.33242 131.73411 383.73242 142.80078 C 373.59909 152.66745 371.86719 153.86706 369.86719 152.40039 C 367.73385 150.80039 368.00052 149.8668 373.86719 141.4668 C 377.33385 136.2668 384.26589 128.26628 389.19922 123.59961 L 398.26758 115.06641 L 395.06641 108.80078 L 391.86719 102.5332 L 386.93359 106 C 384.26693 108 378.93307 112.93307 375.06641 117.06641 C 368.39974 124.26641 368.13281 124.39935 364.13281 122.66602 C 358.79948 120.53268 353.33398 114 353.33398 110 C 353.33398 106.94724 356.83449 102.0916 360.99414 98.728516 L 342.80273 98.728516 z "
     transform="scale(0.75)" />
  <path
     id="path2090"
     style="fill:#000000;stroke:none;stroke-width:0.133333"
     d="M 342.80273 98.728516 L 360.99414 98.728516 C 362.10317 97.831865 363.24969 97.017841 364.40039 96.400391 C 367.60039 94.800391 370.80065 94.532552 379.33398 95.199219 L 390.26758 96.132812 L 394.80078 88.400391 C 400.66745 78.533724 407.59922 74.666016 419.19922 74.666016 C 424.26589 74.666016 429.33268 75.599219 432.66602 77.199219 C 440.93268 80.932552 444.26641 85.466276 445.06641 93.599609 C 445.19066 95.401347 445.46571 97.205819 445.78516 98.728516 L 483.76758 98.728516 C 479.27928 94.693502 471.725 91.080103 465.19922 90.132812 C 459.46589 89.332814 458.93346 88.932422 457.4668 83.732422 C 455.20013 76.265755 445.06602 66.40013 436.66602 63.466797 C 430.46602 61.366797 422.5418 60.316406 415.87305 60.597656 C 413.65013 60.691406 411.56576 60.933984 409.73242 61.333984 C 399.99909 63.333984 391.33385 68.799481 385.86719 76.132812 C 383.06719 79.999479 382.13242 80.399349 373.73242 80.666016 C 359.26471 81.049266 347.72632 88.33527 342.80273 98.728516 z "
     transform="scale(0.75)" />
  <path
     d="m 352.5,159.7 c -13.6,16.2 -35.4,53.8 -34,58.4 0.7,2.2 4,3.8 6.5,3.2 0.8,-0.2 4.3,-6 7.8,-12.7 7.9,-15.4 16.2,-28.4 25.8,-40.2 4.1,-5.1 7.4,-10 7.4,-11.1 0,-2.7 -1.9,-4.3 -5.1,-4.3 -2.2,0 -4,1.5 -8.4,6.7 z"
     id="path1577"
     style="fill:#000000;stroke:none;stroke-width:0.1" />
  <path
     d="m 472.2,208 c -9.7,7.3 -31.6,26.4 -36,31.4 -1.8,2 -3.2,4.5 -3.2,5.5 0,2 3,5.1 4.9,5.1 0.7,0 6.7,-5 13.4,-11.1 6.7,-6.1 17.3,-15.2 23.5,-20.2 9.5,-7.6 11.2,-9.4 11.2,-11.8 0,-2.7 -2.2,-4.9 -4.9,-4.9 -0.5,0 -4.5,2.7 -8.9,6 z"
     id="path1579"
     style="fill:#000000;stroke:none;stroke-width:0.1" />
  <path
     d="m 264.2,285 -4.3,1.9 4.7,9.3 c 6.4,12.8 15.3,25.7 23.8,34.6 l 7.2,7.5 3.1,-4 3.2,-3.9 -6.4,-6.7 c -7.3,-7.7 -17,-21.7 -22.6,-32.9 -2.2,-4.3 -4,-7.8 -4.2,-7.7 -0.1,0 -2.1,0.9 -4.5,1.9 z"
     id="path1581"
     style="fill:#000000;stroke:none;stroke-width:0.1" />
  <path
     d="m 324.2,285.2 c -1.6,2 -5.3,17.4 -4.6,19.2 0.8,2.1 5.2,3.2 7.3,1.9 0.9,-0.6 2.6,-4.8 3.8,-9.4 2,-7.5 2.1,-8.6 0.7,-10.6 -1.6,-2.5 -5.5,-3.1 -7.2,-1.1 z"
     id="path1583"
     style="fill:#000000;stroke:none;stroke-width:0.1" />
  <path
     d="m 341.2,288.2 c -2,2.6 -8.2,15.8 -8.2,17.7 0,2.6 2.4,4.3 5.7,3.9 2.4,-0.3 3.4,-1.5 7.3,-8.9 3.9,-7.7 4.3,-9 3.2,-11.3 -0.9,-1.9 -1.9,-2.6 -4.1,-2.6 -1.6,0 -3.3,0.6 -3.9,1.2 z"
     id="path1585"
     style="fill:#000000;stroke:none;stroke-width:0.1" />
  <path
     d="M 396.5,309.1 C 383,317.9 354.1,331 348,331 c -2.7,0 -3.3,1.5 -2.5,6 0.6,3.3 1.1,4 3,4 3.6,0 15,-3.8 25.8,-8.6 11.2,-4.9 33.7,-17.9 33.7,-19.4 0,-1.2 -4.3,-8 -5,-7.9 -0.3,0 -3.2,1.8 -6.5,4 z"
     id="path1587"
     style="fill:#000000;stroke:none;stroke-width:0.1" />
  <path
     d="m 165.8,472.1 c -3.9,2.2 -0.3,13.9 4.2,13.9 4.3,0 4.8,-8.2 0.7,-12.8 -2.3,-2.5 -2.5,-2.5 -4.9,-1.1 z"
     id="path1589"
     style="fill:#000000;stroke:none;stroke-width:0.1" />
  <path
     d="m 168.2,506.2 c -1.7,1.7 -1.5,4.6 0.7,9.3 2.3,5 6.5,9 8.5,8.2 2.1,-0.8 2.1,-7.8 0,-12 -3.2,-6.4 -6.4,-8.3 -9.2,-5.5 z"
     id="path1591"
     style="fill:#000000;stroke:none;stroke-width:0.1" />
  <path
     d="m 157.9,187.2 c -19.6,30.3 -26.6,70.1 -18.5,105.2 3.1,13.2 5.3,18 8.4,18.4 5.4,0.8 6.4,-3.4 3.2,-13.7 -5,-15.7 -6.4,-38.9 -3.5,-55.7 2.8,-16.1 10,-34.5 19.3,-49.7 3,-5 3.4,-6.1 2.4,-8.2 -0.9,-1.9 -1.9,-2.5 -4.2,-2.5 -2.6,0 -3.6,0.8 -7.1,6.2 z"
     id="path1593"
     style="fill:#000000;stroke:none;stroke-width:0.1" />
  <path
     d="m 122.2,207.7 c -4.5,1.8 -13.8,33.7 -15.7,54 -0.7,6.9 -0.6,7.2 1.9,8.8 2.3,1.6 2.8,1.6 4.9,0.2 2,-1.3 2.5,-2.9 3.5,-11.4 1.3,-11.2 5.8,-29.6 9.6,-39.2 3,-7.5 3.2,-9.4 1,-11.5 -1.6,-1.6 -2.9,-1.9 -5.2,-0.9 z"
     id="path1595"
     style="fill:#000000;stroke:none;stroke-width:0.1" />
</svg>
