<?xml version="1.0" encoding="UTF-8" standalone="no"?>
<!-- Created with Inkscape (http://www.inkscape.org/) -->

<svg
   width="59.939301mm"
   height="22.065765mm"
   viewBox="0 0 59.939301 22.065765"
   version="1.1"
   id="svg5"
   xmlns="http://www.w3.org/2000/svg"
   xmlns:svg="http://www.w3.org/2000/svg">
  <defs
     id="defs2" />
  <g
     id="layer1"
     transform="translate(-36.85071,-128.15122)">
    <path
       d="m 40.359529,135.85098 q -0.02067,0.0568 -0.05684,0.093 -0.03617,0.0362 -0.103353,0.0568 -0.06201,0.0207 -0.165364,0.0258 -0.09819,0.0103 -0.248046,0.0103 -0.113687,0 -0.201537,-0.005 -0.08268,0 -0.144694,-0.0103 -0.06201,-0.0103 -0.10852,-0.0207 -0.04134,-0.0155 -0.07235,-0.0362 -0.03101,-0.0207 -0.05168,-0.0465 -0.0155,-0.031 -0.03101,-0.0723 l -2.185906,-6.21149 q -0.04134,-0.11369 -0.04651,-0.18087 0,-0.0724 0.04651,-0.10852 0.04651,-0.0362 0.149861,-0.0465 0.103353,-0.0103 0.279052,-0.0103 0.144694,0 0.227376,0.0103 0.08785,0.005 0.134358,0.0258 0.04651,0.0207 0.06718,0.0568 0.02584,0.031 0.04651,0.0827 l 1.917189,5.62754 h 0.0052 l 1.865513,-5.61721 q 0.0155,-0.0568 0.03617,-0.093 0.02067,-0.0362 0.07235,-0.0568 0.05168,-0.0207 0.144694,-0.0258 0.09302,-0.0103 0.248046,-0.0103 0.160197,0 0.253214,0.0155 0.09302,0.0103 0.124023,0.0465 0.03617,0.0362 0.02584,0.10852 -0.0052,0.0672 -0.04651,0.18087 z"
       style="font-size:10.5833px;line-height:1.25;font-family:Calibri;-inkscape-font-specification:Calibri;stroke-width:0.264583"
       id="path9704" />
    <path
       d="m 48.715581,135.63911 q 0,0.10335 -0.03617,0.1757 -0.03101,0.0724 -0.08785,0.11886 -0.05168,0.0465 -0.118855,0.0672 -0.06718,0.0207 -0.134359,0.0207 h -0.284219 q -0.134358,0 -0.237711,-0.0258 -0.09819,-0.031 -0.191202,-0.10336 -0.08785,-0.0775 -0.180867,-0.2067 -0.08785,-0.12919 -0.19637,-0.33073 l -2.108391,-3.80337 q -0.165365,-0.29456 -0.335896,-0.61495 -0.165364,-0.32556 -0.310058,-0.63045 h -0.01034 q 0.01034,0.37207 0.0155,0.75964 0.0052,0.38757 0.0052,0.76998 v 4.03591 q 0,0.0362 -0.02067,0.0724 -0.02067,0.031 -0.07235,0.0517 -0.04651,0.0155 -0.129191,0.0258 -0.07751,0.0155 -0.201537,0.0155 -0.124023,0 -0.206705,-0.0155 -0.07751,-0.0103 -0.124023,-0.0258 -0.04651,-0.0207 -0.06718,-0.0517 -0.02067,-0.0362 -0.02067,-0.0724 v -6.17014 q 0,-0.20671 0.113688,-0.29456 0.113688,-0.0879 0.248046,-0.0879 h 0.423746 q 0.149861,0 0.248046,0.0258 0.103352,0.0258 0.180867,0.0879 0.08268,0.0568 0.155028,0.16536 0.07751,0.10336 0.165364,0.26355 l 1.622635,2.93522 q 0.149861,0.26871 0.289387,0.52709 0.139526,0.25322 0.268717,0.50126 0.129191,0.24805 0.253214,0.49093 0.12919,0.23771 0.253213,0.48059 h 0.0052 q -0.01034,-0.40825 -0.0155,-0.84749 0,-0.44442 0,-0.85266 v -3.62768 q 0,-0.0362 0.02067,-0.0672 0.02067,-0.031 0.06718,-0.0517 0.05168,-0.0258 0.12919,-0.0362 0.08268,-0.0103 0.211873,-0.0103 0.113688,0 0.19637,0.0103 0.08268,0.0103 0.129191,0.0362 0.04651,0.0207 0.06718,0.0517 0.02067,0.031 0.02067,0.0672 z"
       style="font-size:10.5833px;line-height:1.25;font-family:Calibri;-inkscape-font-specification:Calibri;stroke-width:0.264583"
       id="path9706" />
    <path
       d="m 54.958074,135.06034 q 0,0.0827 -0.0052,0.14469 -0.0052,0.062 -0.02067,0.10852 -0.01034,0.0465 -0.03101,0.0827 -0.02067,0.0362 -0.07235,0.0879 -0.05168,0.0517 -0.217041,0.1602 -0.165364,0.10335 -0.41341,0.2067 -0.242878,0.0982 -0.563271,0.16537 -0.315225,0.0723 -0.692462,0.0723 -0.651121,0 -1.178219,-0.21704 -0.52193,-0.21704 -0.893999,-0.64078 -0.366902,-0.42375 -0.568439,-1.04386 -0.19637,-0.62529 -0.19637,-1.4366 0,-0.83199 0.211873,-1.48311 0.21704,-0.65112 0.604612,-1.10071 0.387572,-0.45475 0.925005,-0.69246 0.542601,-0.23771 1.198889,-0.23771 0.289388,0 0.563272,0.0568 0.273884,0.0517 0.506427,0.13436 0.232543,0.0827 0.41341,0.19121 0.180867,0.10852 0.248046,0.18086 0.07235,0.0672 0.09302,0.10335 0.02067,0.0362 0.03101,0.0879 0.0155,0.0465 0.02067,0.11369 0.01034,0.0672 0.01034,0.1602 0,0.10335 -0.01034,0.1757 -0.01033,0.0723 -0.03101,0.12402 -0.02067,0.0465 -0.05168,0.0724 -0.02584,0.0207 -0.06718,0.0207 -0.07235,0 -0.201538,-0.0982 -0.12919,-0.10335 -0.335895,-0.2222 -0.201538,-0.12403 -0.496093,-0.22221 -0.289387,-0.10336 -0.697629,-0.10336 -0.444416,0 -0.811318,0.18087 -0.361733,0.1757 -0.620115,0.52193 -0.258381,0.34623 -0.403075,0.84749 -0.139526,0.4961 -0.139526,1.13688 0,0.63562 0.134359,1.12654 0.139526,0.48576 0.392739,0.81649 0.258382,0.32556 0.630451,0.49609 0.372069,0.16536 0.842323,0.16536 0.397907,0 0.692462,-0.0982 0.299722,-0.0982 0.506427,-0.21704 0.211873,-0.12402 0.346231,-0.22221 0.134359,-0.0982 0.211873,-0.0982 0.03617,0 0.06201,0.0155 0.02584,0.0155 0.04134,0.062 0.0155,0.0413 0.02067,0.11886 0.01034,0.0775 0.01034,0.19637 z"
       style="font-size:10.5833px;line-height:1.25;font-family:Calibri;-inkscape-font-specification:Calibri;stroke-width:0.264583"
       id="path9708" />
    <path
       d="m 41.491239,147.42647 q 0,0.45992 -0.160196,0.83199 -0.160197,0.3669 -0.459919,0.63045 -0.299722,0.26354 -0.738971,0.40824 -0.439248,0.13952 -0.992184,0.13952 -0.335896,0 -0.630451,-0.0568 -0.289387,-0.0517 -0.516762,-0.12402 -0.227376,-0.0775 -0.377237,-0.15503 -0.149861,-0.0827 -0.191202,-0.11886 -0.03617,-0.0362 -0.05684,-0.0723 -0.02067,-0.0362 -0.03617,-0.0879 -0.0155,-0.0517 -0.02584,-0.12403 -0.0052,-0.0775 -0.0052,-0.18603 0,-0.18604 0.03617,-0.25838 0.03617,-0.0724 0.103353,-0.0724 0.04651,0 0.180867,0.0827 0.139526,0.0827 0.351398,0.18087 0.217041,0.093 0.50126,0.1757 0.289387,0.0827 0.640786,0.0827 0.341063,0 0.599445,-0.0879 0.258381,-0.0878 0.43408,-0.24804 0.175699,-0.1602 0.263549,-0.37724 0.08785,-0.22221 0.08785,-0.48059 0,-0.28422 -0.113688,-0.5116 -0.10852,-0.22737 -0.32556,-0.39274 -0.211873,-0.16536 -0.527098,-0.25321 -0.310058,-0.0879 -0.707965,-0.0879 h -0.635618 q -0.04134,0 -0.08268,-0.0155 -0.03617,-0.0207 -0.06718,-0.062 -0.02584,-0.0413 -0.04651,-0.10852 -0.0155,-0.0672 -0.0155,-0.1757 0,-0.0982 0.0155,-0.1602 0.0155,-0.0672 0.04134,-0.10335 0.03101,-0.0413 0.06718,-0.0569 0.03617,-0.0207 0.08268,-0.0207 H 38.7679 q 0.341063,0 0.60978,-0.0879 0.273884,-0.0878 0.459919,-0.25321 0.191202,-0.16536 0.289387,-0.39274 0.103352,-0.23254 0.103352,-0.51676 0,-0.20671 -0.06718,-0.39274 -0.06718,-0.1912 -0.201537,-0.33073 -0.134359,-0.13953 -0.346231,-0.21704 -0.206705,-0.0827 -0.48059,-0.0827 -0.299722,0 -0.552936,0.093 -0.248046,0.0879 -0.444416,0.1912 -0.196369,0.10335 -0.32556,0.19637 -0.129191,0.0879 -0.180867,0.0879 -0.03617,0 -0.06718,-0.0103 -0.02584,-0.0155 -0.04651,-0.0517 -0.0155,-0.0413 -0.02584,-0.10852 -0.0052,-0.0724 -0.0052,-0.18604 0,-0.0775 0.0052,-0.13436 0.0052,-0.062 0.02067,-0.10335 0.0155,-0.0465 0.03617,-0.0827 0.02067,-0.0362 0.06718,-0.0827 0.05168,-0.0517 0.201537,-0.1447 0.149862,-0.093 0.366902,-0.18086 0.222208,-0.093 0.506427,-0.15503 0.289388,-0.062 0.620116,-0.062 0.465086,0 0.816485,0.11885 0.351398,0.11886 0.583941,0.3359 0.237711,0.21704 0.351399,0.52193 0.118856,0.29972 0.118856,0.66662 0,0.31523 -0.08268,0.58911 -0.08268,0.26872 -0.242878,0.48059 -0.160196,0.2067 -0.39274,0.35657 -0.232543,0.14469 -0.537433,0.20153 v 0.0103 q 0.346231,0.0362 0.630451,0.1757 0.289387,0.13436 0.496092,0.34106 0.206705,0.20671 0.320393,0.48576 0.118855,0.27388 0.118855,0.58911 z"
       style="font-size:10.5833px;line-height:1.25;font-family:Calibri;-inkscape-font-specification:Calibri;stroke-width:0.264583"
       id="path9710" />
    <path
       id="path9712"
       style="font-size:10.5833px;line-height:1.25;font-family:Calibri;-inkscape-font-specification:Calibri;stroke-width:0.999999"
       d="M 21.371094 67.121094 C 21.369722 67.247346 21.367188 67.372319 21.367188 67.5 C 21.367188 69.583326 21.503908 71.432311 21.777344 73.046875 C 22.063802 74.648437 22.539065 76.002603 23.203125 77.109375 C 23.867185 78.20312 24.739587 79.036449 25.820312 79.609375 C 26.914057 80.169249 28.255212 80.449219 29.84375 80.449219 C 31.523433 80.449219 32.936202 80.136701 34.082031 79.511719 C 35.227861 78.873684 36.152346 77.981764 36.855469 76.835938 C 37.571611 75.677084 38.079427 74.29685 38.378906 72.695312 C 38.691405 71.09375 38.847656 69.32292 38.847656 67.382812 C 38.847656 67.294247 38.846221 67.208788 38.845703 67.121094 L 35.408203 67.121094 C 35.409803 67.283883 35.410156 67.449826 35.410156 67.617188 C 35.410156 68.554687 35.377609 69.459641 35.3125 70.332031 C 35.260418 71.19142 35.156246 71.992202 35 72.734375 C 34.843752 73.476573 34.635417 74.153669 34.375 74.765625 C 34.114586 75.377606 33.782552 75.904948 33.378906 76.347656 C 32.988285 76.777389 32.513019 77.109419 31.953125 77.34375 C 31.40625 77.578081 30.768227 77.695312 30.039062 77.695312 C 29.101566 77.695312 28.300779 77.506506 27.636719 77.128906 C 26.98568 76.751306 26.445312 76.145835 26.015625 75.3125 C 25.59895 74.479165 25.292957 73.404943 25.097656 72.089844 C 24.902355 70.761718 24.804688 69.153625 24.804688 67.265625 C 24.804688 67.217086 24.80647 67.169416 24.806641 67.121094 L 21.371094 67.121094 z "
       transform="matrix(0.26458333,0,0,0.26458333,36.85071,128.15122)" />
    <path
       id="path9872"
       style="font-size:10.5833px;line-height:1.25;font-family:Calibri;-inkscape-font-specification:Calibri;stroke-width:0.999999"
       d="M 21.371094 67.121094 L 24.806641 67.121094 C 24.811413 65.769448 24.881256 64.502004 25.019531 63.320312 C 25.16276 62.09635 25.429688 61.028658 25.820312 60.117188 C 26.223956 59.205742 26.770836 58.489569 27.460938 57.96875 C 28.151041 57.447906 29.049483 57.1875 30.15625 57.1875 C 30.781248 57.1875 31.341147 57.272083 31.835938 57.441406 C 32.343747 57.597652 32.792969 57.858083 33.183594 58.222656 C 33.574218 58.574228 33.906251 59.029945 34.179688 59.589844 C 34.466143 60.136716 34.694009 60.794273 34.863281 61.5625 C 35.04558 62.330727 35.1823 63.216142 35.273438 64.21875 C 35.352498 65.088481 35.397727 66.055375 35.408203 67.121094 L 38.845703 67.121094 C 38.834043 65.145943 38.692249 63.388946 38.417969 61.855469 C 38.144533 60.240905 37.675779 58.886714 37.011719 57.792969 C 36.347658 56.686197 35.468747 55.852868 34.375 55.292969 C 33.294274 54.720068 31.95312 54.433594 30.351562 54.433594 C 28.684902 54.433594 27.278642 54.752616 26.132812 55.390625 C 24.986983 56.015608 24.062498 56.907553 23.359375 58.066406 C 22.656252 59.212233 22.148436 60.592442 21.835938 62.207031 C 21.544144 63.70248 21.390427 65.341833 21.371094 67.121094 z "
       transform="matrix(0.26458333,0,0,0.26458333,36.85071,128.15122)" />
    <path
       d="m 48.364183,150.58389 q -0.02067,0.0672 -0.05684,0.10335 -0.03101,0.0413 -0.08268,0.062 -0.05168,0.0207 -0.129191,0.031 -0.07235,0.0103 -0.180867,0.0103 -0.129191,0 -0.21704,-0.0207 -0.08268,-0.0155 -0.129191,-0.0517 -0.04651,-0.031 -0.05684,-0.0827 -0.01034,-0.0465 0.02067,-0.11368 l 3.126414,-8.5731 q 0.02067,-0.0672 0.05168,-0.10335 0.03617,-0.0413 0.08268,-0.062 0.05168,-0.0258 0.129191,-0.031 0.07751,-0.0103 0.186034,-0.0103 0.129191,0 0.211873,0.0207 0.08268,0.0155 0.129191,0.0465 0.04651,0.031 0.05684,0.0827 0.01033,0.0517 -0.0155,0.11885 z"
       style="font-size:10.5833px;line-height:1.25;font-family:Calibri;-inkscape-font-specification:Calibri;stroke-width:0.264583"
       id="path9714" />
    <path
       id="path9716"
       style="font-size:10.5833px;line-height:1.25;font-family:Calibri;-inkscape-font-specification:Calibri;stroke-width:0.999999"
       d="M 74.570312 67.382812 L 71.132812 67.382812 C 71.133168 67.460732 71.132812 67.53825 71.132812 67.617188 C 71.132812 68.554687 71.100265 69.459641 71.035156 70.332031 C 70.983074 71.19142 70.878902 71.992202 70.722656 72.734375 C 70.566406 73.476573 70.358071 74.153669 70.097656 74.765625 C 69.837239 75.377606 69.505206 75.904948 69.101562 76.347656 C 68.710938 76.777389 68.235675 77.109419 67.675781 77.34375 C 67.128909 77.578081 66.490883 77.695312 65.761719 77.695312 C 64.824222 77.695312 64.023435 77.506506 63.359375 77.128906 C 62.708334 76.751306 62.167966 76.145835 61.738281 75.3125 C 61.321603 74.479165 61.015613 73.404943 60.820312 72.089844 C 60.629126 70.789697 60.531371 69.219492 60.527344 67.382812 L 57.091797 67.382812 C 57.091666 67.422168 57.089844 67.460508 57.089844 67.5 C 57.089844 69.583326 57.226561 71.432311 57.5 73.046875 C 57.786455 74.648437 58.261721 76.002603 58.925781 77.109375 C 59.589842 78.20312 60.462243 79.036449 61.542969 79.609375 C 62.636716 80.169249 63.977871 80.449219 65.566406 80.449219 C 67.246089 80.449219 68.658856 80.136701 69.804688 79.511719 C 70.950517 78.873684 71.875002 77.981764 72.578125 76.835938 C 73.294267 75.677084 73.802085 74.29685 74.101562 72.695312 C 74.414061 71.09375 74.570312 69.32292 74.570312 67.382812 z "
       transform="matrix(0.26458333,0,0,0.26458333,36.85071,128.15122)" />
    <path
       id="path9875"
       style="font-size:10.5833px;line-height:1.25;font-family:Calibri;-inkscape-font-specification:Calibri;stroke-width:0.999999"
       d="M 66.074219 54.433594 C 64.407558 54.433594 63.001301 54.752616 61.855469 55.390625 C 60.709639 56.015608 59.785154 56.907553 59.082031 58.066406 C 58.378911 59.212233 57.871093 60.592442 57.558594 62.207031 C 57.252496 63.775772 57.09807 65.501758 57.091797 67.382812 L 60.527344 67.382812 C 60.527257 67.343287 60.527344 67.305399 60.527344 67.265625 C 60.527344 65.859364 60.598969 64.54425 60.742188 63.320312 C 60.885416 62.09635 61.152347 61.028658 61.542969 60.117188 C 61.946615 59.205742 62.493492 58.489569 63.183594 57.96875 C 63.873695 57.447906 64.772137 57.1875 65.878906 57.1875 C 66.503904 57.1875 67.063806 57.272083 67.558594 57.441406 C 68.066406 57.597652 68.515626 57.858083 68.90625 58.222656 C 69.296872 58.574228 69.628905 59.029945 69.902344 59.589844 C 70.188799 60.136716 70.416665 60.794273 70.585938 61.5625 C 70.768237 62.330727 70.904957 63.216142 70.996094 64.21875 C 71.081535 65.158672 71.127473 66.213992 71.132812 67.382812 L 74.570312 67.382812 C 74.570312 65.299487 74.42708 63.457031 74.140625 61.855469 C 73.867186 60.240905 73.398433 58.886714 72.734375 57.792969 C 72.070315 56.686197 71.191404 55.852868 70.097656 55.292969 C 69.016931 54.720068 67.675776 54.433594 66.074219 54.433594 z "
       transform="matrix(0.26458333,0,0,0.26458333,36.85071,128.15122)" />
    <path
       id="path9718"
       style="font-size:10.5833px;line-height:1.25;font-family:Calibri;-inkscape-font-specification:Calibri;stroke-width:0.999999"
       d="M 77.613281 61.724609 C 77.577849 62.081297 77.558594 62.443056 77.558594 62.8125 C 77.558594 63.893218 77.68228 64.889336 77.929688 65.800781 C 78.190105 66.712252 78.606774 67.5 79.179688 68.164062 C 79.765623 68.828125 80.533857 69.355492 81.484375 69.746094 C 82.447915 70.123719 83.632819 70.3125 85.039062 70.3125 C 86.289058 70.3125 87.395835 70.156267 88.359375 69.84375 C 89.322913 69.531259 90.149742 69.173185 90.839844 68.769531 C 90.813803 69.96744 90.657552 71.106757 90.371094 72.1875 C 90.084638 73.268218 89.654947 74.218754 89.082031 75.039062 C 88.509115 75.859371 87.766922 76.516928 86.855469 77.011719 C 85.957032 77.493483 84.876296 77.734375 83.613281 77.734375 C 82.949221 77.734375 82.350259 77.688869 81.816406 77.597656 C 81.282553 77.493341 80.8138 77.38279 80.410156 77.265625 C 80.019532 77.14846 79.694011 77.044338 79.433594 76.953125 C 79.173169 76.849062 78.971344 76.796875 78.828125 76.796875 C 78.723961 76.796875 78.632823 76.816414 78.554688 76.855469 C 78.489579 76.881422 78.437493 76.940037 78.398438 77.03125 C 78.359357 77.122337 78.32681 77.252552 78.300781 77.421875 C 78.287679 77.591147 78.28125 77.819006 78.28125 78.105469 C 78.28125 78.443963 78.307293 78.717403 78.359375 78.925781 C 78.424458 79.121107 78.522126 79.277366 78.652344 79.394531 C 78.782554 79.511697 78.990888 79.628928 79.277344 79.746094 C 79.563802 79.863511 79.915366 79.974062 80.332031 80.078125 C 80.761718 80.18244 81.236981 80.267023 81.757812 80.332031 C 82.291666 80.410141 82.838543 80.449219 83.398438 80.449219 C 84.856766 80.449219 86.132815 80.260412 87.226562 79.882812 C 88.333329 79.492186 89.283857 78.958315 90.078125 78.28125 C 90.885414 77.60416 91.549481 76.816413 92.070312 75.917969 C 92.604166 75.006523 93.027345 74.036449 93.339844 73.007812 C 93.652333 71.96615 93.873689 70.885423 94.003906 69.765625 C 94.134124 68.645852 94.199219 67.539057 94.199219 66.445312 C 94.199219 65.286459 94.140628 64.186194 94.023438 63.144531 C 93.975003 62.654126 93.908388 62.181234 93.826172 61.724609 L 90.417969 61.724609 C 90.428292 61.775003 90.439312 61.82372 90.449219 61.875 C 90.670573 63.0078 90.78125 64.407548 90.78125 66.074219 C 90.11719 66.555983 89.329424 66.946604 88.417969 67.246094 C 87.506513 67.532557 86.562497 67.675781 85.585938 67.675781 C 84.726564 67.675781 84.003904 67.558549 83.417969 67.324219 C 82.832034 67.076811 82.356768 66.731771 81.992188 66.289062 C 81.627607 65.846379 81.360679 65.306003 81.191406 64.667969 C 81.035161 64.029959 80.957031 63.326821 80.957031 62.558594 C 80.957031 62.277233 80.973604 61.999474 81.003906 61.724609 L 77.613281 61.724609 z "
       transform="matrix(0.26458333,0,0,0.26458333,36.85071,128.15122)" />
    <path
       id="path9878"
       style="font-size:10.5833px;line-height:1.25;font-family:Calibri;-inkscape-font-specification:Calibri;stroke-width:0.999999"
       d="M 77.613281 61.724609 L 81.003906 61.724609 C 81.047928 61.325291 81.122493 60.932483 81.230469 60.546875 C 81.41276 59.895839 81.69271 59.316411 82.070312 58.808594 C 82.460937 58.287775 82.955731 57.877615 83.554688 57.578125 C 84.153644 57.265634 84.876307 57.109375 85.722656 57.109375 C 86.542967 57.109375 87.265627 57.265634 87.890625 57.578125 C 88.515623 57.890642 89.042969 58.398444 89.472656 59.101562 C 89.883111 59.773213 90.197615 60.648989 90.417969 61.724609 L 93.826172 61.724609 C 93.731569 61.199194 93.615892 60.695533 93.476562 60.214844 C 93.229167 59.316425 92.897134 58.515643 92.480469 57.8125 C 92.063804 57.09638 91.555988 56.490884 90.957031 55.996094 C 90.358074 55.488276 89.648434 55.104159 88.828125 54.84375 C 88.020836 54.570314 87.089841 54.433594 86.035156 54.433594 C 84.550787 54.433594 83.274738 54.661477 82.207031 55.117188 C 81.139327 55.572923 80.260414 56.184898 79.570312 56.953125 C 78.880211 57.721352 78.372396 58.613297 78.046875 59.628906 C 77.82875 60.300734 77.685245 61.000162 77.613281 61.724609 z "
       transform="matrix(0.26458333,0,0,0.26458333,36.85071,128.15122)" />
    <path
       d="m 63.179769,150.58389 q -0.02067,0.0672 -0.05684,0.10335 -0.03101,0.0413 -0.08268,0.062 -0.05168,0.0207 -0.129191,0.031 -0.07235,0.0103 -0.180867,0.0103 -0.129191,0 -0.21704,-0.0207 -0.08268,-0.0155 -0.129191,-0.0517 -0.04651,-0.031 -0.05684,-0.0827 -0.01033,-0.0465 0.02067,-0.11368 l 3.126414,-8.5731 q 0.02067,-0.0672 0.05168,-0.10335 0.03617,-0.0413 0.08268,-0.062 0.05168,-0.0258 0.129191,-0.031 0.07751,-0.0103 0.186034,-0.0103 0.129191,0 0.211873,0.0207 0.08268,0.0155 0.129191,0.0465 0.04651,0.031 0.05684,0.0827 0.01033,0.0517 -0.0155,0.11885 z"
       style="font-size:10.5833px;line-height:1.25;font-family:Calibri;-inkscape-font-specification:Calibri;stroke-width:0.264583"
       id="path9720" />
    <path
       d="m 71.174088,148.95608 q 0,0.093 -0.0155,0.16537 -0.01034,0.0724 -0.03617,0.12402 -0.02067,0.0465 -0.06201,0.0724 -0.03617,0.0207 -0.08268,0.0207 h -3.694853 q -0.07235,0 -0.129191,-0.0155 -0.05168,-0.0207 -0.09302,-0.062 -0.03617,-0.0413 -0.05684,-0.11885 -0.0155,-0.0775 -0.0155,-0.1912 0,-0.10336 0.0052,-0.18087 0.01033,-0.0775 0.03617,-0.13436 0.02584,-0.062 0.06201,-0.11885 0.04134,-0.062 0.103353,-0.12919 l 1.297074,-1.37459 q 0.449584,-0.47542 0.7183,-0.85266 0.273885,-0.37724 0.418578,-0.6873 0.149861,-0.31005 0.19637,-0.56327 0.04651,-0.25321 0.04651,-0.47542 0,-0.22221 -0.07235,-0.41858 -0.07235,-0.20153 -0.211873,-0.3514 -0.134358,-0.14986 -0.341063,-0.23771 -0.206705,-0.0879 -0.475422,-0.0879 -0.315225,0 -0.568439,0.0879 -0.248046,0.0879 -0.439248,0.19121 -0.186035,0.10335 -0.315225,0.1912 -0.124023,0.0879 -0.186035,0.0879 -0.03617,0 -0.06718,-0.0207 -0.02584,-0.0207 -0.04651,-0.0672 -0.0155,-0.0465 -0.02584,-0.12402 -0.01033,-0.0775 -0.01033,-0.18604 0,-0.0775 0.0052,-0.13436 0.0052,-0.0568 0.0155,-0.0982 0.0155,-0.0413 0.03617,-0.0775 0.02067,-0.0362 0.08268,-0.0879 0.06201,-0.0568 0.211873,-0.14986 0.155028,-0.093 0.382404,-0.18086 0.232543,-0.093 0.506427,-0.15503 0.279052,-0.062 0.583942,-0.062 0.485757,0 0.847491,0.13952 0.366901,0.13436 0.604612,0.37207 0.242879,0.23771 0.361734,0.55294 0.118856,0.31522 0.118856,0.67179 0,0.32039 -0.05684,0.64078 -0.05684,0.31523 -0.242879,0.6873 -0.180867,0.3669 -0.527098,0.82165 -0.346231,0.44958 -0.919837,1.03869 l -1.059364,1.10588 h 2.909374 q 0.04134,0 0.07752,0.0258 0.04134,0.0207 0.06718,0.0672 0.03101,0.0465 0.04134,0.11886 0.0155,0.0672 0.0155,0.16019 z"
       style="font-size:10.5833px;line-height:1.25;font-family:Calibri;-inkscape-font-specification:Calibri;stroke-width:0.264583"
       id="path9722" />
    <path
       id="path9724"
       style="font-size:10.5833px;line-height:1.25;font-family:Calibri;-inkscape-font-specification:Calibri;stroke-width:0.999999"
       d="M 133.36133 67.382812 C 133.3612 67.422168 133.35938 67.460508 133.35938 67.5 C 133.35938 69.583326 133.4961 71.432311 133.76953 73.046875 C 134.05599 74.648437 134.53125 76.002603 135.19531 77.109375 C 135.85937 78.20312 136.73177 79.036449 137.8125 79.609375 C 138.90625 80.169249 140.2474 80.449219 141.83594 80.449219 C 143.51562 80.449219 144.92839 80.136701 146.07422 79.511719 C 147.22005 78.873684 148.14453 77.981764 148.84766 76.835938 C 149.5638 75.677084 150.07162 74.29685 150.37109 72.695312 C 150.68359 71.09375 150.83984 69.32292 150.83984 67.382812 L 147.40234 67.382812 C 147.4027 67.460732 147.40234 67.53825 147.40234 67.617188 C 147.40234 68.554687 147.3698 69.459641 147.30469 70.332031 C 147.25261 71.19142 147.14843 71.992202 146.99219 72.734375 C 146.83594 73.476573 146.6276 74.153669 146.36719 74.765625 C 146.10677 75.377606 145.77474 75.904948 145.37109 76.347656 C 144.98047 76.777389 144.50521 77.109419 143.94531 77.34375 C 143.39844 77.578081 142.76042 77.695312 142.03125 77.695312 C 141.09375 77.695312 140.29297 77.506506 139.62891 77.128906 C 138.97787 76.751306 138.4375 76.145835 138.00781 75.3125 C 137.59114 74.479165 137.28514 73.404943 137.08984 72.089844 C 136.89863 70.789697 136.8009 69.219492 136.79688 67.382812 L 133.36133 67.382812 z "
       transform="matrix(0.26458333,0,0,0.26458333,36.85071,128.15122)" />
    <path
       id="path9881"
       style="font-size:10.5833px;line-height:1.25;font-family:Calibri;-inkscape-font-specification:Calibri;stroke-width:0.999999"
       d="M 133.36133 67.382812 L 136.79688 67.382812 C 136.79679 67.343287 136.79688 67.305399 136.79688 67.265625 C 136.79688 65.859364 136.8685 64.54425 137.01172 63.320312 C 137.15495 62.09635 137.42188 61.028658 137.8125 60.117188 C 138.21615 59.205742 138.76302 58.489569 139.45312 57.96875 C 140.14323 57.447906 141.04167 57.1875 142.14844 57.1875 C 142.77344 57.1875 143.33333 57.272083 143.82812 57.441406 C 144.33594 57.597652 144.78516 57.858083 145.17578 58.222656 C 145.56641 58.574228 145.89844 59.029945 146.17188 59.589844 C 146.45833 60.136716 146.6862 60.794273 146.85547 61.5625 C 147.03777 62.330727 147.17449 63.216142 147.26562 64.21875 C 147.35107 65.158672 147.397 66.213992 147.40234 67.382812 L 150.83984 67.382812 C 150.83984 65.299487 150.69661 63.457031 150.41016 61.855469 C 150.13672 60.240905 149.66797 58.886714 149.00391 57.792969 C 148.33985 56.686197 147.46093 55.852868 146.36719 55.292969 C 145.28646 54.720068 143.94531 54.433594 142.34375 54.433594 C 140.67709 54.433594 139.27083 54.752616 138.125 55.390625 C 136.97917 56.015608 136.05469 56.907553 135.35156 58.066406 C 134.64844 59.212233 134.14062 60.592442 133.82812 62.207031 C 133.52203 63.775772 133.3676 65.501758 133.36133 67.382812 z "
       transform="matrix(0.26458333,0,0,0.26458333,36.85071,128.15122)" />
    <path
       d="m 81.902081,148.95608 q 0,0.093 -0.0155,0.16537 -0.01034,0.0724 -0.03617,0.12402 -0.02067,0.0465 -0.06201,0.0724 -0.03617,0.0207 -0.08268,0.0207 h -3.694853 q -0.07235,0 -0.129191,-0.0155 -0.05168,-0.0207 -0.09302,-0.062 -0.03617,-0.0413 -0.05684,-0.11885 -0.0155,-0.0775 -0.0155,-0.1912 0,-0.10336 0.0052,-0.18087 0.01034,-0.0775 0.03617,-0.13436 0.02584,-0.062 0.06201,-0.11885 0.04134,-0.062 0.103353,-0.12919 l 1.297074,-1.37459 q 0.449584,-0.47542 0.7183,-0.85266 0.273885,-0.37724 0.418578,-0.6873 0.149861,-0.31005 0.19637,-0.56327 0.04651,-0.25321 0.04651,-0.47542 0,-0.22221 -0.07235,-0.41858 -0.07235,-0.20153 -0.211873,-0.3514 -0.134358,-0.14986 -0.341063,-0.23771 -0.206705,-0.0879 -0.475422,-0.0879 -0.315225,0 -0.568439,0.0879 -0.248046,0.0879 -0.439248,0.19121 -0.186035,0.10335 -0.315225,0.1912 -0.124023,0.0879 -0.186035,0.0879 -0.03617,0 -0.06718,-0.0207 -0.02584,-0.0207 -0.04651,-0.0672 -0.0155,-0.0465 -0.02584,-0.12402 -0.01033,-0.0775 -0.01033,-0.18604 0,-0.0775 0.0052,-0.13436 0.0052,-0.0568 0.0155,-0.0982 0.0155,-0.0413 0.03617,-0.0775 0.02067,-0.0362 0.08268,-0.0879 0.06201,-0.0568 0.211873,-0.14986 0.155028,-0.093 0.382404,-0.18086 0.232543,-0.093 0.506427,-0.15503 0.279052,-0.062 0.583942,-0.062 0.485757,0 0.847491,0.13952 0.366901,0.13436 0.604612,0.37207 0.242879,0.23771 0.361734,0.55294 0.118856,0.31522 0.118856,0.67179 0,0.32039 -0.05684,0.64078 -0.05684,0.31523 -0.242879,0.6873 -0.180867,0.3669 -0.527098,0.82165 -0.346231,0.44958 -0.919837,1.03869 l -1.059364,1.10588 h 2.909374 q 0.04134,0 0.07752,0.0258 0.04134,0.0207 0.06718,0.0672 0.03101,0.0465 0.04134,0.11886 0.0155,0.0672 0.0155,0.16019 z"
       style="font-size:10.5833px;line-height:1.25;font-family:Calibri;-inkscape-font-specification:Calibri;stroke-width:0.264583"
       id="path9726" />
    <path
       d="m 87.281578,148.98709 q 0,0.0982 -0.0155,0.16536 -0.0155,0.0672 -0.04134,0.10852 -0.02584,0.0414 -0.06201,0.062 -0.03101,0.0155 -0.06718,0.0155 h -3.493316 q -0.03617,0 -0.06718,-0.0155 -0.03101,-0.0207 -0.06201,-0.062 -0.02584,-0.0413 -0.04134,-0.10852 -0.0155,-0.0672 -0.0155,-0.16536 0,-0.093 0.0155,-0.1602 0.0155,-0.0672 0.03617,-0.10852 0.02584,-0.0465 0.05684,-0.0672 0.03617,-0.0258 0.07751,-0.0258 h 1.395259 v -5.08495 l -1.291907,0.76998 q -0.09819,0.0517 -0.160196,0.062 -0.05684,0.0103 -0.09302,-0.0207 -0.03617,-0.0362 -0.05168,-0.11369 -0.01033,-0.0775 -0.01033,-0.19637 0,-0.0879 0.0052,-0.14986 0.01033,-0.062 0.02584,-0.10335 0.0155,-0.0413 0.04134,-0.0724 0.03101,-0.031 0.07751,-0.062 l 1.539953,-0.98702 q 0.02067,-0.0155 0.05168,-0.0258 0.03101,-0.0103 0.07752,-0.0207 0.04651,-0.0103 0.10852,-0.0103 0.06201,-0.005 0.155029,-0.005 0.124023,0 0.206705,0.0103 0.08268,0.0103 0.12919,0.031 0.04651,0.0155 0.06201,0.0465 0.0155,0.0258 0.0155,0.0568 v 5.8756 h 1.209225 q 0.04134,0 0.07751,0.0258 0.03617,0.0207 0.05684,0.0672 0.02584,0.0413 0.03617,0.10852 0.0155,0.0672 0.0155,0.1602 z"
       style="font-size:10.5833px;line-height:1.25;font-family:Calibri;-inkscape-font-specification:Calibri;stroke-width:0.264583"
       id="path9728" />
  </g>
</svg>
