G04 #@! TF.GenerationSoftware,KiCad,Pcbnew,(5.1.9)-1*
G04 #@! TF.CreationDate,2021-10-01T18:24:18-03:00*
G04 #@! TF.ProjectId,XIAO_to_Pico_adapter,5849414f-5f74-46f5-9f50-69636f5f6164,rev?*
G04 #@! TF.SameCoordinates,Original*
G04 #@! TF.FileFunction,Soldermask,Bot*
G04 #@! TF.FilePolarity,Negative*
%FSLAX46Y46*%
G04 Gerber Fmt 4.6, Leading zero omitted, Abs format (unit mm)*
G04 Created by KiCad (PCBNEW (5.1.9)-1) date 2021-10-01 18:24:18*
%MOMM*%
%LPD*%
G01*
G04 APERTURE LIST*
%ADD10O,1.200000X2.000000*%
G04 APERTURE END LIST*
D10*
X83820000Y-111760000D03*
X83820000Y-127000000D03*
X86360000Y-111760000D03*
X86360000Y-127000000D03*
X88900000Y-111760000D03*
X88900000Y-127000000D03*
X91440000Y-111760000D03*
X91440000Y-127000000D03*
X93980000Y-111760000D03*
X93980000Y-127000000D03*
X96520000Y-111760000D03*
X96520000Y-127000000D03*
X99060000Y-111760000D03*
X99060000Y-127000000D03*
X132080000Y-152400000D03*
X132080000Y-134620000D03*
X129540000Y-152400000D03*
X129540000Y-134620000D03*
X127000000Y-152400000D03*
X127000000Y-134620000D03*
X124460000Y-152400000D03*
X124460000Y-134620000D03*
X121920000Y-152400000D03*
X121920000Y-134620000D03*
X119380000Y-152400000D03*
X119380000Y-134620000D03*
X116840000Y-152400000D03*
X116840000Y-134620000D03*
X114300000Y-152400000D03*
X114300000Y-134620000D03*
X111760000Y-152400000D03*
X111760000Y-134620000D03*
X109220000Y-152400000D03*
X109220000Y-134620000D03*
X106680000Y-152400000D03*
X106680000Y-134620000D03*
X104140000Y-152400000D03*
X104140000Y-134620000D03*
X101600000Y-152400000D03*
X101600000Y-134620000D03*
X99060000Y-152400000D03*
X99060000Y-134620000D03*
X96520000Y-152400000D03*
X96520000Y-134620000D03*
X93980000Y-152400000D03*
X93980000Y-134620000D03*
X91440000Y-152400000D03*
X91440000Y-134620000D03*
X88900000Y-152400000D03*
X88900000Y-134620000D03*
X86360000Y-152400000D03*
X86360000Y-134620000D03*
X83820000Y-152400000D03*
X83820000Y-134620000D03*
M02*
