M48
; DRILL file {KiCad (5.1.9)-1} date 10/01/21 18:26:51
; FORMAT={-:-/ absolute / metric / decimal}
; #@! TF.CreationDate,2021-10-01T18:26:51-03:00
; #@! TF.GenerationSoftware,Kicad,Pcbnew,(5.1.9)-1
; #@! TF.FileFunction,Plated,1,2,PTH
FMAT,2
METRIC
T1C0.800
%
G90
G05
T1
X83.82Y-111.76
X83.82Y-127.0
X83.82Y-134.62
X83.82Y-152.4
X86.36Y-111.76
X86.36Y-127.0
X86.36Y-134.62
X86.36Y-152.4
X88.9Y-111.76
X88.9Y-127.0
X88.9Y-134.62
X88.9Y-152.4
X91.44Y-111.76
X91.44Y-127.0
X91.44Y-134.62
X91.44Y-152.4
X93.98Y-111.76
X93.98Y-127.0
X93.98Y-134.62
X93.98Y-152.4
X96.52Y-111.76
X96.52Y-127.0
X96.52Y-134.62
X96.52Y-152.4
X99.06Y-111.76
X99.06Y-127.0
X99.06Y-134.62
X99.06Y-152.4
X101.6Y-134.62
X101.6Y-152.4
X104.14Y-134.62
X104.14Y-152.4
X106.68Y-134.62
X106.68Y-152.4
X109.22Y-134.62
X109.22Y-152.4
X111.76Y-134.62
X111.76Y-152.4
X114.3Y-134.62
X114.3Y-152.4
X116.84Y-134.62
X116.84Y-152.4
X119.38Y-134.62
X119.38Y-152.4
X121.92Y-134.62
X121.92Y-152.4
X124.46Y-134.62
X124.46Y-152.4
X127.0Y-134.62
X127.0Y-152.4
X129.54Y-134.62
X129.54Y-152.4
X132.08Y-134.62
X132.08Y-152.4
T0
M30
