G04 #@! TF.GenerationSoftware,KiCad,Pcbnew,(5.1.9)-1*
G04 #@! TF.CreationDate,2021-10-01T18:24:18-03:00*
G04 #@! TF.ProjectId,XIAO_to_Pico_adapter,5849414f-5f74-46f5-9f50-69636f5f6164,rev?*
G04 #@! TF.SameCoordinates,Original*
G04 #@! TF.FileFunction,Copper,L2,Bot*
G04 #@! TF.FilePolarity,Positive*
%FSLAX46Y46*%
G04 Gerber Fmt 4.6, Leading zero omitted, Abs format (unit mm)*
G04 Created by KiCad (PCBNEW (5.1.9)-1) date 2021-10-01 18:24:18*
%MOMM*%
%LPD*%
G01*
G04 APERTURE LIST*
G04 #@! TA.AperFunction,ComponentPad*
%ADD10O,1.200000X2.000000*%
G04 #@! TD*
G04 #@! TA.AperFunction,Conductor*
%ADD11C,0.250000*%
G04 #@! TD*
G04 #@! TA.AperFunction,Conductor*
%ADD12C,0.254000*%
G04 #@! TD*
G04 #@! TA.AperFunction,Conductor*
%ADD13C,0.100000*%
G04 #@! TD*
G04 APERTURE END LIST*
D10*
X83820000Y-111760000D03*
X83820000Y-127000000D03*
X86360000Y-111760000D03*
X86360000Y-127000000D03*
X88900000Y-111760000D03*
X88900000Y-127000000D03*
X91440000Y-111760000D03*
X91440000Y-127000000D03*
X93980000Y-111760000D03*
X93980000Y-127000000D03*
X96520000Y-111760000D03*
X96520000Y-127000000D03*
X99060000Y-111760000D03*
X99060000Y-127000000D03*
X132080000Y-152400000D03*
X132080000Y-134620000D03*
X129540000Y-152400000D03*
X129540000Y-134620000D03*
X127000000Y-152400000D03*
X127000000Y-134620000D03*
X124460000Y-152400000D03*
X124460000Y-134620000D03*
X121920000Y-152400000D03*
X121920000Y-134620000D03*
X119380000Y-152400000D03*
X119380000Y-134620000D03*
X116840000Y-152400000D03*
X116840000Y-134620000D03*
X114300000Y-152400000D03*
X114300000Y-134620000D03*
X111760000Y-152400000D03*
X111760000Y-134620000D03*
X109220000Y-152400000D03*
X109220000Y-134620000D03*
X106680000Y-152400000D03*
X106680000Y-134620000D03*
X104140000Y-152400000D03*
X104140000Y-134620000D03*
X101600000Y-152400000D03*
X101600000Y-134620000D03*
X99060000Y-152400000D03*
X99060000Y-134620000D03*
X96520000Y-152400000D03*
X96520000Y-134620000D03*
X93980000Y-152400000D03*
X93980000Y-134620000D03*
X91440000Y-152400000D03*
X91440000Y-134620000D03*
X88900000Y-152400000D03*
X88900000Y-134620000D03*
X86360000Y-152400000D03*
X86360000Y-134620000D03*
X83820000Y-152400000D03*
X83820000Y-134620000D03*
D11*
X83820000Y-128270000D02*
X83820000Y-127000000D01*
X84745010Y-129195010D02*
X83820000Y-128270000D01*
X84745010Y-135403151D02*
X84745010Y-129195010D01*
X100416849Y-151074990D02*
X84745010Y-135403151D01*
X111684990Y-151074990D02*
X100416849Y-151074990D01*
X111760000Y-151150000D02*
X111684990Y-151074990D01*
X111760000Y-152400000D02*
X111760000Y-151150000D01*
X86360000Y-128270000D02*
X86360000Y-127000000D01*
X87285010Y-129195010D02*
X86360000Y-128270000D01*
X87285010Y-134713171D02*
X87285010Y-129195010D01*
X103196819Y-150624980D02*
X87285010Y-134713171D01*
X116207980Y-150624980D02*
X103196819Y-150624980D01*
X116840000Y-151257000D02*
X116207980Y-150624980D01*
X116840000Y-152400000D02*
X116840000Y-151257000D01*
X89825010Y-129195010D02*
X88900000Y-128270000D01*
X89825010Y-134713171D02*
X89825010Y-129195010D01*
X105286809Y-150174970D02*
X89825010Y-134713171D01*
X118297970Y-150174970D02*
X105286809Y-150174970D01*
X119380000Y-151257000D02*
X118297970Y-150174970D01*
X88900000Y-128270000D02*
X88900000Y-127000000D01*
X119380000Y-152400000D02*
X119380000Y-151257000D01*
X92365010Y-129195010D02*
X91440000Y-128270000D01*
X107179960Y-149724960D02*
X92365010Y-134910010D01*
X120387960Y-149724960D02*
X107179960Y-149724960D01*
X121920000Y-151257000D02*
X120387960Y-149724960D01*
X91440000Y-128270000D02*
X91440000Y-127000000D01*
X92365010Y-134910010D02*
X92365010Y-129195010D01*
X121920000Y-152400000D02*
X121920000Y-151257000D01*
X124460000Y-151150000D02*
X122584950Y-149274950D01*
X124460000Y-152400000D02*
X124460000Y-151150000D01*
X109466789Y-149274950D02*
X94905010Y-134713171D01*
X122584950Y-149274950D02*
X109466789Y-149274950D01*
X93980000Y-128270000D02*
X94905010Y-129195010D01*
X93980000Y-127000000D02*
X93980000Y-128270000D01*
X94905010Y-134713171D02*
X94905010Y-129195010D01*
X96520000Y-128270000D02*
X96520000Y-127000000D01*
X97445010Y-129195010D02*
X96520000Y-128270000D01*
X97445010Y-134713171D02*
X97445010Y-129195010D01*
X111556779Y-148824940D02*
X97445010Y-134713171D01*
X127107940Y-148824940D02*
X111556779Y-148824940D01*
X129540000Y-151257000D02*
X127107940Y-148824940D01*
X129540000Y-152400000D02*
X129540000Y-151257000D01*
X99985010Y-129195010D02*
X99060000Y-128270000D01*
X99985010Y-134713171D02*
X99985010Y-129195010D01*
X99060000Y-128270000D02*
X99060000Y-127000000D01*
X113646769Y-148374930D02*
X99985010Y-134713171D01*
X132080000Y-151257000D02*
X129197930Y-148374930D01*
X129197930Y-148374930D02*
X113646769Y-148374930D01*
X132080000Y-152400000D02*
X132080000Y-151257000D01*
D12*
X99424545Y-109918909D02*
X99775208Y-110024780D01*
X100098625Y-110196744D01*
X100382484Y-110428254D01*
X100615965Y-110710486D01*
X100790183Y-111032695D01*
X100898502Y-111382614D01*
X100940000Y-111777443D01*
X100940001Y-128302419D01*
X100942888Y-128331737D01*
X100942778Y-128347550D01*
X100943678Y-128356721D01*
X100995495Y-128849727D01*
X101007522Y-128908320D01*
X101018732Y-128967084D01*
X101021395Y-128975906D01*
X101167984Y-129449458D01*
X101191158Y-129504584D01*
X101213573Y-129560066D01*
X101217900Y-129568202D01*
X101453677Y-130004262D01*
X101487110Y-130053829D01*
X101519881Y-130103908D01*
X101525706Y-130111049D01*
X101841690Y-130493009D01*
X101884107Y-130535131D01*
X101925989Y-130577900D01*
X101933090Y-130583773D01*
X102317246Y-130897084D01*
X102367073Y-130930188D01*
X102416428Y-130963983D01*
X102424531Y-130968364D01*
X102424539Y-130968368D01*
X102862230Y-131201092D01*
X102917536Y-131223888D01*
X102972517Y-131247453D01*
X102981320Y-131250178D01*
X103455885Y-131393457D01*
X103514558Y-131405074D01*
X103573075Y-131417513D01*
X103582240Y-131418476D01*
X104075595Y-131466850D01*
X104075598Y-131466850D01*
X104107581Y-131470000D01*
X132047721Y-131470000D01*
X132444545Y-131508909D01*
X132795208Y-131614780D01*
X133118625Y-131786744D01*
X133402484Y-132018254D01*
X133635965Y-132300486D01*
X133810183Y-132622695D01*
X133918502Y-132972614D01*
X133960000Y-133367443D01*
X133960001Y-152367711D01*
X133921091Y-152764545D01*
X133815220Y-153115206D01*
X133643257Y-153438623D01*
X133411748Y-153722482D01*
X133129514Y-153955965D01*
X132807304Y-154130184D01*
X132457385Y-154238502D01*
X132062557Y-154280000D01*
X83852279Y-154280000D01*
X83455455Y-154241091D01*
X83104794Y-154135220D01*
X82781377Y-153963257D01*
X82497518Y-153731748D01*
X82264035Y-153449514D01*
X82089816Y-153127304D01*
X81981498Y-152777385D01*
X81940000Y-152382557D01*
X81940000Y-151939336D01*
X82585000Y-151939336D01*
X82585000Y-152860665D01*
X82602870Y-153042102D01*
X82673489Y-153274901D01*
X82788168Y-153489449D01*
X82942499Y-153677502D01*
X83130552Y-153831833D01*
X83345100Y-153946511D01*
X83577899Y-154017130D01*
X83820000Y-154040975D01*
X84062102Y-154017130D01*
X84294901Y-153946511D01*
X84509449Y-153831833D01*
X84697502Y-153677502D01*
X84851833Y-153489449D01*
X84966511Y-153274901D01*
X85037130Y-153042101D01*
X85055000Y-152860664D01*
X85055000Y-151939336D01*
X85125000Y-151939336D01*
X85125000Y-152860665D01*
X85142870Y-153042102D01*
X85213489Y-153274901D01*
X85328168Y-153489449D01*
X85482499Y-153677502D01*
X85670552Y-153831833D01*
X85885100Y-153946511D01*
X86117899Y-154017130D01*
X86360000Y-154040975D01*
X86602102Y-154017130D01*
X86834901Y-153946511D01*
X87049449Y-153831833D01*
X87237502Y-153677502D01*
X87391833Y-153489449D01*
X87506511Y-153274901D01*
X87577130Y-153042101D01*
X87595000Y-152860664D01*
X87595000Y-152527000D01*
X87665000Y-152527000D01*
X87665000Y-152927000D01*
X87713507Y-153165496D01*
X87807610Y-153389946D01*
X87943693Y-153591725D01*
X88116526Y-153763078D01*
X88319467Y-153897421D01*
X88544718Y-153989591D01*
X88582391Y-153993462D01*
X88773000Y-153868731D01*
X88773000Y-152527000D01*
X89027000Y-152527000D01*
X89027000Y-153868731D01*
X89217609Y-153993462D01*
X89255282Y-153989591D01*
X89480533Y-153897421D01*
X89683474Y-153763078D01*
X89856307Y-153591725D01*
X89992390Y-153389946D01*
X90086493Y-153165496D01*
X90135000Y-152927000D01*
X90135000Y-152527000D01*
X89027000Y-152527000D01*
X88773000Y-152527000D01*
X87665000Y-152527000D01*
X87595000Y-152527000D01*
X87595000Y-151939335D01*
X87588467Y-151873000D01*
X87665000Y-151873000D01*
X87665000Y-152273000D01*
X88773000Y-152273000D01*
X88773000Y-150931269D01*
X89027000Y-150931269D01*
X89027000Y-152273000D01*
X90135000Y-152273000D01*
X90135000Y-151939336D01*
X90205000Y-151939336D01*
X90205000Y-152860665D01*
X90222870Y-153042102D01*
X90293489Y-153274901D01*
X90408168Y-153489449D01*
X90562499Y-153677502D01*
X90750552Y-153831833D01*
X90965100Y-153946511D01*
X91197899Y-154017130D01*
X91440000Y-154040975D01*
X91682102Y-154017130D01*
X91914901Y-153946511D01*
X92129449Y-153831833D01*
X92317502Y-153677502D01*
X92471833Y-153489449D01*
X92586511Y-153274901D01*
X92657130Y-153042101D01*
X92675000Y-152860664D01*
X92675000Y-151939336D01*
X92745000Y-151939336D01*
X92745000Y-152860665D01*
X92762870Y-153042102D01*
X92833489Y-153274901D01*
X92948168Y-153489449D01*
X93102499Y-153677502D01*
X93290552Y-153831833D01*
X93505100Y-153946511D01*
X93737899Y-154017130D01*
X93980000Y-154040975D01*
X94222102Y-154017130D01*
X94454901Y-153946511D01*
X94669449Y-153831833D01*
X94857502Y-153677502D01*
X95011833Y-153489449D01*
X95126511Y-153274901D01*
X95197130Y-153042101D01*
X95215000Y-152860664D01*
X95215000Y-151939336D01*
X95285000Y-151939336D01*
X95285000Y-152860665D01*
X95302870Y-153042102D01*
X95373489Y-153274901D01*
X95488168Y-153489449D01*
X95642499Y-153677502D01*
X95830552Y-153831833D01*
X96045100Y-153946511D01*
X96277899Y-154017130D01*
X96520000Y-154040975D01*
X96762102Y-154017130D01*
X96994901Y-153946511D01*
X97209449Y-153831833D01*
X97397502Y-153677502D01*
X97551833Y-153489449D01*
X97666511Y-153274901D01*
X97737130Y-153042101D01*
X97755000Y-152860664D01*
X97755000Y-151939335D01*
X97737130Y-151757898D01*
X97666511Y-151525099D01*
X97551833Y-151310551D01*
X97397502Y-151122498D01*
X97209448Y-150968167D01*
X96994900Y-150853489D01*
X96762101Y-150782870D01*
X96520000Y-150759025D01*
X96277898Y-150782870D01*
X96045099Y-150853489D01*
X95830551Y-150968167D01*
X95642498Y-151122498D01*
X95488167Y-151310552D01*
X95373489Y-151525100D01*
X95302870Y-151757899D01*
X95285000Y-151939336D01*
X95215000Y-151939336D01*
X95215000Y-151939335D01*
X95197130Y-151757898D01*
X95126511Y-151525099D01*
X95011833Y-151310551D01*
X94857502Y-151122498D01*
X94669448Y-150968167D01*
X94454900Y-150853489D01*
X94222101Y-150782870D01*
X93980000Y-150759025D01*
X93737898Y-150782870D01*
X93505099Y-150853489D01*
X93290551Y-150968167D01*
X93102498Y-151122498D01*
X92948167Y-151310552D01*
X92833489Y-151525100D01*
X92762870Y-151757899D01*
X92745000Y-151939336D01*
X92675000Y-151939336D01*
X92675000Y-151939335D01*
X92657130Y-151757898D01*
X92586511Y-151525099D01*
X92471833Y-151310551D01*
X92317502Y-151122498D01*
X92129448Y-150968167D01*
X91914900Y-150853489D01*
X91682101Y-150782870D01*
X91440000Y-150759025D01*
X91197898Y-150782870D01*
X90965099Y-150853489D01*
X90750551Y-150968167D01*
X90562498Y-151122498D01*
X90408167Y-151310552D01*
X90293489Y-151525100D01*
X90222870Y-151757899D01*
X90205000Y-151939336D01*
X90135000Y-151939336D01*
X90135000Y-151873000D01*
X90086493Y-151634504D01*
X89992390Y-151410054D01*
X89856307Y-151208275D01*
X89683474Y-151036922D01*
X89480533Y-150902579D01*
X89255282Y-150810409D01*
X89217609Y-150806538D01*
X89027000Y-150931269D01*
X88773000Y-150931269D01*
X88582391Y-150806538D01*
X88544718Y-150810409D01*
X88319467Y-150902579D01*
X88116526Y-151036922D01*
X87943693Y-151208275D01*
X87807610Y-151410054D01*
X87713507Y-151634504D01*
X87665000Y-151873000D01*
X87588467Y-151873000D01*
X87577130Y-151757898D01*
X87506511Y-151525099D01*
X87391833Y-151310551D01*
X87237502Y-151122498D01*
X87049448Y-150968167D01*
X86834900Y-150853489D01*
X86602101Y-150782870D01*
X86360000Y-150759025D01*
X86117898Y-150782870D01*
X85885099Y-150853489D01*
X85670551Y-150968167D01*
X85482498Y-151122498D01*
X85328167Y-151310552D01*
X85213489Y-151525100D01*
X85142870Y-151757899D01*
X85125000Y-151939336D01*
X85055000Y-151939336D01*
X85055000Y-151939335D01*
X85037130Y-151757898D01*
X84966511Y-151525099D01*
X84851833Y-151310551D01*
X84697502Y-151122498D01*
X84509448Y-150968167D01*
X84294900Y-150853489D01*
X84062101Y-150782870D01*
X83820000Y-150759025D01*
X83577898Y-150782870D01*
X83345099Y-150853489D01*
X83130551Y-150968167D01*
X82942498Y-151122498D01*
X82788167Y-151310552D01*
X82673489Y-151525100D01*
X82602870Y-151757899D01*
X82585000Y-151939336D01*
X81940000Y-151939336D01*
X81940000Y-126539336D01*
X82585000Y-126539336D01*
X82585000Y-127460665D01*
X82602870Y-127642102D01*
X82673489Y-127874901D01*
X82788168Y-128089449D01*
X82942499Y-128277502D01*
X83067137Y-128379789D01*
X83070997Y-128418985D01*
X83109408Y-128545611D01*
X83114454Y-128562246D01*
X83185026Y-128694276D01*
X83221688Y-128738948D01*
X83279999Y-128810001D01*
X83309002Y-128833803D01*
X83985011Y-129509813D01*
X83985010Y-132995277D01*
X83820000Y-132979025D01*
X83577898Y-133002870D01*
X83345099Y-133073489D01*
X83130551Y-133188167D01*
X82942498Y-133342498D01*
X82788167Y-133530552D01*
X82673489Y-133745100D01*
X82602870Y-133977899D01*
X82585000Y-134159336D01*
X82585000Y-135080665D01*
X82602870Y-135262102D01*
X82673489Y-135494901D01*
X82788168Y-135709449D01*
X82942499Y-135897502D01*
X83130552Y-136051833D01*
X83345100Y-136166511D01*
X83577899Y-136237130D01*
X83820000Y-136260975D01*
X84062102Y-136237130D01*
X84294901Y-136166511D01*
X84385267Y-136118209D01*
X99029123Y-150762066D01*
X98817898Y-150782870D01*
X98585099Y-150853489D01*
X98370551Y-150968167D01*
X98182498Y-151122498D01*
X98028167Y-151310552D01*
X97913489Y-151525100D01*
X97842870Y-151757899D01*
X97825000Y-151939336D01*
X97825000Y-152860665D01*
X97842870Y-153042102D01*
X97913489Y-153274901D01*
X98028168Y-153489449D01*
X98182499Y-153677502D01*
X98370552Y-153831833D01*
X98585100Y-153946511D01*
X98817899Y-154017130D01*
X99060000Y-154040975D01*
X99302102Y-154017130D01*
X99534901Y-153946511D01*
X99749449Y-153831833D01*
X99937502Y-153677502D01*
X100091833Y-153489449D01*
X100206511Y-153274901D01*
X100277130Y-153042101D01*
X100295000Y-152860664D01*
X100295000Y-152527000D01*
X100365000Y-152527000D01*
X100365000Y-152927000D01*
X100413507Y-153165496D01*
X100507610Y-153389946D01*
X100643693Y-153591725D01*
X100816526Y-153763078D01*
X101019467Y-153897421D01*
X101244718Y-153989591D01*
X101282391Y-153993462D01*
X101473000Y-153868731D01*
X101473000Y-152527000D01*
X101727000Y-152527000D01*
X101727000Y-153868731D01*
X101917609Y-153993462D01*
X101955282Y-153989591D01*
X102180533Y-153897421D01*
X102383474Y-153763078D01*
X102556307Y-153591725D01*
X102692390Y-153389946D01*
X102786493Y-153165496D01*
X102835000Y-152927000D01*
X102835000Y-152527000D01*
X101727000Y-152527000D01*
X101473000Y-152527000D01*
X100365000Y-152527000D01*
X100295000Y-152527000D01*
X100295000Y-151939335D01*
X100283794Y-151825562D01*
X100372864Y-151834335D01*
X100365000Y-151873000D01*
X100365000Y-152273000D01*
X101473000Y-152273000D01*
X101473000Y-152253000D01*
X101727000Y-152253000D01*
X101727000Y-152273000D01*
X102835000Y-152273000D01*
X102835000Y-151873000D01*
X102827269Y-151834990D01*
X102915277Y-151834990D01*
X102905000Y-151939336D01*
X102905000Y-152860665D01*
X102922870Y-153042102D01*
X102993489Y-153274901D01*
X103108168Y-153489449D01*
X103262499Y-153677502D01*
X103450552Y-153831833D01*
X103665100Y-153946511D01*
X103897899Y-154017130D01*
X104140000Y-154040975D01*
X104382102Y-154017130D01*
X104614901Y-153946511D01*
X104829449Y-153831833D01*
X105017502Y-153677502D01*
X105171833Y-153489449D01*
X105286511Y-153274901D01*
X105357130Y-153042101D01*
X105375000Y-152860664D01*
X105375000Y-151939335D01*
X105364723Y-151834990D01*
X105455277Y-151834990D01*
X105445000Y-151939336D01*
X105445000Y-152860665D01*
X105462870Y-153042102D01*
X105533489Y-153274901D01*
X105648168Y-153489449D01*
X105802499Y-153677502D01*
X105990552Y-153831833D01*
X106205100Y-153946511D01*
X106437899Y-154017130D01*
X106680000Y-154040975D01*
X106922102Y-154017130D01*
X107154901Y-153946511D01*
X107369449Y-153831833D01*
X107557502Y-153677502D01*
X107711833Y-153489449D01*
X107826511Y-153274901D01*
X107897130Y-153042101D01*
X107915000Y-152860664D01*
X107915000Y-151939335D01*
X107904723Y-151834990D01*
X107995277Y-151834990D01*
X107985000Y-151939336D01*
X107985000Y-152860665D01*
X108002870Y-153042102D01*
X108073489Y-153274901D01*
X108188168Y-153489449D01*
X108342499Y-153677502D01*
X108530552Y-153831833D01*
X108745100Y-153946511D01*
X108977899Y-154017130D01*
X109220000Y-154040975D01*
X109462102Y-154017130D01*
X109694901Y-153946511D01*
X109909449Y-153831833D01*
X110097502Y-153677502D01*
X110251833Y-153489449D01*
X110366511Y-153274901D01*
X110437130Y-153042101D01*
X110455000Y-152860664D01*
X110455000Y-151939335D01*
X110444723Y-151834990D01*
X110535277Y-151834990D01*
X110525000Y-151939336D01*
X110525000Y-152860665D01*
X110542870Y-153042102D01*
X110613489Y-153274901D01*
X110728168Y-153489449D01*
X110882499Y-153677502D01*
X111070552Y-153831833D01*
X111285100Y-153946511D01*
X111517899Y-154017130D01*
X111760000Y-154040975D01*
X112002102Y-154017130D01*
X112234901Y-153946511D01*
X112449449Y-153831833D01*
X112637502Y-153677502D01*
X112791833Y-153489449D01*
X112906511Y-153274901D01*
X112977130Y-153042101D01*
X112995000Y-152860664D01*
X112995000Y-152527000D01*
X113065000Y-152527000D01*
X113065000Y-152927000D01*
X113113507Y-153165496D01*
X113207610Y-153389946D01*
X113343693Y-153591725D01*
X113516526Y-153763078D01*
X113719467Y-153897421D01*
X113944718Y-153989591D01*
X113982391Y-153993462D01*
X114173000Y-153868731D01*
X114173000Y-152527000D01*
X114427000Y-152527000D01*
X114427000Y-153868731D01*
X114617609Y-153993462D01*
X114655282Y-153989591D01*
X114880533Y-153897421D01*
X115083474Y-153763078D01*
X115256307Y-153591725D01*
X115392390Y-153389946D01*
X115486493Y-153165496D01*
X115535000Y-152927000D01*
X115535000Y-152527000D01*
X114427000Y-152527000D01*
X114173000Y-152527000D01*
X113065000Y-152527000D01*
X112995000Y-152527000D01*
X112995000Y-151939335D01*
X112977130Y-151757898D01*
X112906511Y-151525099D01*
X112831616Y-151384980D01*
X113224520Y-151384980D01*
X113207610Y-151410054D01*
X113113507Y-151634504D01*
X113065000Y-151873000D01*
X113065000Y-152273000D01*
X114173000Y-152273000D01*
X114173000Y-152253000D01*
X114427000Y-152253000D01*
X114427000Y-152273000D01*
X115535000Y-152273000D01*
X115535000Y-151873000D01*
X115486493Y-151634504D01*
X115392390Y-151410054D01*
X115375480Y-151384980D01*
X115768385Y-151384980D01*
X115693489Y-151525100D01*
X115622870Y-151757899D01*
X115605000Y-151939336D01*
X115605000Y-152860665D01*
X115622870Y-153042102D01*
X115693489Y-153274901D01*
X115808168Y-153489449D01*
X115962499Y-153677502D01*
X116150552Y-153831833D01*
X116365100Y-153946511D01*
X116597899Y-154017130D01*
X116840000Y-154040975D01*
X117082102Y-154017130D01*
X117314901Y-153946511D01*
X117529449Y-153831833D01*
X117717502Y-153677502D01*
X117871833Y-153489449D01*
X117986511Y-153274901D01*
X118057130Y-153042101D01*
X118075000Y-152860664D01*
X118075000Y-151939335D01*
X118057130Y-151757898D01*
X117986511Y-151525099D01*
X117871833Y-151310551D01*
X117717502Y-151122498D01*
X117552261Y-150986889D01*
X117545546Y-150964753D01*
X117529626Y-150934970D01*
X117983169Y-150934970D01*
X118352938Y-151304739D01*
X118348167Y-151310552D01*
X118233489Y-151525100D01*
X118162870Y-151757899D01*
X118145000Y-151939336D01*
X118145000Y-152860665D01*
X118162870Y-153042102D01*
X118233489Y-153274901D01*
X118348168Y-153489449D01*
X118502499Y-153677502D01*
X118690552Y-153831833D01*
X118905100Y-153946511D01*
X119137899Y-154017130D01*
X119380000Y-154040975D01*
X119622102Y-154017130D01*
X119854901Y-153946511D01*
X120069449Y-153831833D01*
X120257502Y-153677502D01*
X120411833Y-153489449D01*
X120526511Y-153274901D01*
X120597130Y-153042101D01*
X120615000Y-152860664D01*
X120615000Y-151939335D01*
X120597130Y-151757898D01*
X120526511Y-151525099D01*
X120411833Y-151310551D01*
X120257502Y-151122498D01*
X120092261Y-150986889D01*
X120085546Y-150964753D01*
X120014974Y-150832724D01*
X119943799Y-150745997D01*
X119943798Y-150745996D01*
X119920001Y-150716999D01*
X119891003Y-150693201D01*
X119682762Y-150484960D01*
X120073159Y-150484960D01*
X120892937Y-151304739D01*
X120888167Y-151310552D01*
X120773489Y-151525100D01*
X120702870Y-151757899D01*
X120685000Y-151939336D01*
X120685000Y-152860665D01*
X120702870Y-153042102D01*
X120773489Y-153274901D01*
X120888168Y-153489449D01*
X121042499Y-153677502D01*
X121230552Y-153831833D01*
X121445100Y-153946511D01*
X121677899Y-154017130D01*
X121920000Y-154040975D01*
X122162102Y-154017130D01*
X122394901Y-153946511D01*
X122609449Y-153831833D01*
X122797502Y-153677502D01*
X122951833Y-153489449D01*
X123066511Y-153274901D01*
X123137130Y-153042101D01*
X123155000Y-152860664D01*
X123155000Y-151939335D01*
X123137130Y-151757898D01*
X123066511Y-151525099D01*
X122951833Y-151310551D01*
X122797502Y-151122498D01*
X122632261Y-150986889D01*
X122625546Y-150964753D01*
X122554974Y-150832724D01*
X122460001Y-150716999D01*
X122431003Y-150693201D01*
X121772752Y-150034950D01*
X122270149Y-150034950D01*
X123481168Y-151245970D01*
X123428167Y-151310552D01*
X123313489Y-151525100D01*
X123242870Y-151757899D01*
X123225000Y-151939336D01*
X123225000Y-152860665D01*
X123242870Y-153042102D01*
X123313489Y-153274901D01*
X123428168Y-153489449D01*
X123582499Y-153677502D01*
X123770552Y-153831833D01*
X123985100Y-153946511D01*
X124217899Y-154017130D01*
X124460000Y-154040975D01*
X124702102Y-154017130D01*
X124934901Y-153946511D01*
X125149449Y-153831833D01*
X125337502Y-153677502D01*
X125491833Y-153489449D01*
X125606511Y-153274901D01*
X125677130Y-153042101D01*
X125695000Y-152860664D01*
X125695000Y-152527000D01*
X125765000Y-152527000D01*
X125765000Y-152927000D01*
X125813507Y-153165496D01*
X125907610Y-153389946D01*
X126043693Y-153591725D01*
X126216526Y-153763078D01*
X126419467Y-153897421D01*
X126644718Y-153989591D01*
X126682391Y-153993462D01*
X126873000Y-153868731D01*
X126873000Y-152527000D01*
X127127000Y-152527000D01*
X127127000Y-153868731D01*
X127317609Y-153993462D01*
X127355282Y-153989591D01*
X127580533Y-153897421D01*
X127783474Y-153763078D01*
X127956307Y-153591725D01*
X128092390Y-153389946D01*
X128186493Y-153165496D01*
X128235000Y-152927000D01*
X128235000Y-152527000D01*
X127127000Y-152527000D01*
X126873000Y-152527000D01*
X125765000Y-152527000D01*
X125695000Y-152527000D01*
X125695000Y-151939335D01*
X125688467Y-151873000D01*
X125765000Y-151873000D01*
X125765000Y-152273000D01*
X126873000Y-152273000D01*
X126873000Y-150931269D01*
X127127000Y-150931269D01*
X127127000Y-152273000D01*
X128235000Y-152273000D01*
X128235000Y-151873000D01*
X128186493Y-151634504D01*
X128092390Y-151410054D01*
X127956307Y-151208275D01*
X127783474Y-151036922D01*
X127580533Y-150902579D01*
X127355282Y-150810409D01*
X127317609Y-150806538D01*
X127127000Y-150931269D01*
X126873000Y-150931269D01*
X126682391Y-150806538D01*
X126644718Y-150810409D01*
X126419467Y-150902579D01*
X126216526Y-151036922D01*
X126043693Y-151208275D01*
X125907610Y-151410054D01*
X125813507Y-151634504D01*
X125765000Y-151873000D01*
X125688467Y-151873000D01*
X125677130Y-151757898D01*
X125606511Y-151525099D01*
X125491833Y-151310551D01*
X125337502Y-151122498D01*
X125210720Y-151018452D01*
X125209003Y-151001014D01*
X125165546Y-150857753D01*
X125125520Y-150782870D01*
X125094974Y-150725723D01*
X125023799Y-150638997D01*
X125000001Y-150609999D01*
X124971003Y-150586201D01*
X123969741Y-149584940D01*
X126793139Y-149584940D01*
X128512937Y-151304739D01*
X128508167Y-151310552D01*
X128393489Y-151525100D01*
X128322870Y-151757899D01*
X128305000Y-151939336D01*
X128305000Y-152860665D01*
X128322870Y-153042102D01*
X128393489Y-153274901D01*
X128508168Y-153489449D01*
X128662499Y-153677502D01*
X128850552Y-153831833D01*
X129065100Y-153946511D01*
X129297899Y-154017130D01*
X129540000Y-154040975D01*
X129782102Y-154017130D01*
X130014901Y-153946511D01*
X130229449Y-153831833D01*
X130417502Y-153677502D01*
X130571833Y-153489449D01*
X130686511Y-153274901D01*
X130757130Y-153042101D01*
X130775000Y-152860664D01*
X130775000Y-151939335D01*
X130757130Y-151757898D01*
X130686511Y-151525099D01*
X130571833Y-151310551D01*
X130417502Y-151122498D01*
X130252261Y-150986889D01*
X130245546Y-150964753D01*
X130174974Y-150832724D01*
X130080001Y-150716999D01*
X130051003Y-150693201D01*
X128492731Y-149134930D01*
X128883129Y-149134930D01*
X131052937Y-151304740D01*
X131048167Y-151310552D01*
X130933489Y-151525100D01*
X130862870Y-151757899D01*
X130845000Y-151939336D01*
X130845000Y-152860665D01*
X130862870Y-153042102D01*
X130933489Y-153274901D01*
X131048168Y-153489449D01*
X131202499Y-153677502D01*
X131390552Y-153831833D01*
X131605100Y-153946511D01*
X131837899Y-154017130D01*
X132080000Y-154040975D01*
X132322102Y-154017130D01*
X132554901Y-153946511D01*
X132769449Y-153831833D01*
X132957502Y-153677502D01*
X133111833Y-153489449D01*
X133226511Y-153274901D01*
X133297130Y-153042101D01*
X133315000Y-152860664D01*
X133315000Y-151939335D01*
X133297130Y-151757898D01*
X133226511Y-151525099D01*
X133111833Y-151310551D01*
X132957502Y-151122498D01*
X132792261Y-150986889D01*
X132785546Y-150964753D01*
X132714974Y-150832724D01*
X132674060Y-150782870D01*
X132643799Y-150745996D01*
X132643795Y-150745992D01*
X132620001Y-150716999D01*
X132591008Y-150693205D01*
X129761734Y-147863933D01*
X129737931Y-147834929D01*
X129622206Y-147739956D01*
X129490177Y-147669384D01*
X129346916Y-147625927D01*
X129235263Y-147614930D01*
X129235252Y-147614930D01*
X129197930Y-147611254D01*
X129160608Y-147614930D01*
X113961571Y-147614930D01*
X102351130Y-136004489D01*
X102383474Y-135983078D01*
X102556307Y-135811725D01*
X102692390Y-135609946D01*
X102786493Y-135385496D01*
X102835000Y-135147000D01*
X102835000Y-134747000D01*
X101727000Y-134747000D01*
X101727000Y-134767000D01*
X101473000Y-134767000D01*
X101473000Y-134747000D01*
X101453000Y-134747000D01*
X101453000Y-134493000D01*
X101473000Y-134493000D01*
X101473000Y-133151269D01*
X101727000Y-133151269D01*
X101727000Y-134493000D01*
X102835000Y-134493000D01*
X102835000Y-134159336D01*
X102905000Y-134159336D01*
X102905000Y-135080665D01*
X102922870Y-135262102D01*
X102993489Y-135494901D01*
X103108168Y-135709449D01*
X103262499Y-135897502D01*
X103450552Y-136051833D01*
X103665100Y-136166511D01*
X103897899Y-136237130D01*
X104140000Y-136260975D01*
X104382102Y-136237130D01*
X104614901Y-136166511D01*
X104829449Y-136051833D01*
X105017502Y-135897502D01*
X105171833Y-135709449D01*
X105286511Y-135494901D01*
X105357130Y-135262101D01*
X105375000Y-135080664D01*
X105375000Y-134159336D01*
X105445000Y-134159336D01*
X105445000Y-135080665D01*
X105462870Y-135262102D01*
X105533489Y-135494901D01*
X105648168Y-135709449D01*
X105802499Y-135897502D01*
X105990552Y-136051833D01*
X106205100Y-136166511D01*
X106437899Y-136237130D01*
X106680000Y-136260975D01*
X106922102Y-136237130D01*
X107154901Y-136166511D01*
X107369449Y-136051833D01*
X107557502Y-135897502D01*
X107711833Y-135709449D01*
X107826511Y-135494901D01*
X107897130Y-135262101D01*
X107915000Y-135080664D01*
X107915000Y-134159336D01*
X107985000Y-134159336D01*
X107985000Y-135080665D01*
X108002870Y-135262102D01*
X108073489Y-135494901D01*
X108188168Y-135709449D01*
X108342499Y-135897502D01*
X108530552Y-136051833D01*
X108745100Y-136166511D01*
X108977899Y-136237130D01*
X109220000Y-136260975D01*
X109462102Y-136237130D01*
X109694901Y-136166511D01*
X109909449Y-136051833D01*
X110097502Y-135897502D01*
X110251833Y-135709449D01*
X110366511Y-135494901D01*
X110437130Y-135262101D01*
X110455000Y-135080664D01*
X110455000Y-134159336D01*
X110525000Y-134159336D01*
X110525000Y-135080665D01*
X110542870Y-135262102D01*
X110613489Y-135494901D01*
X110728168Y-135709449D01*
X110882499Y-135897502D01*
X111070552Y-136051833D01*
X111285100Y-136166511D01*
X111517899Y-136237130D01*
X111760000Y-136260975D01*
X112002102Y-136237130D01*
X112234901Y-136166511D01*
X112449449Y-136051833D01*
X112637502Y-135897502D01*
X112791833Y-135709449D01*
X112906511Y-135494901D01*
X112977130Y-135262101D01*
X112995000Y-135080664D01*
X112995000Y-134747000D01*
X113065000Y-134747000D01*
X113065000Y-135147000D01*
X113113507Y-135385496D01*
X113207610Y-135609946D01*
X113343693Y-135811725D01*
X113516526Y-135983078D01*
X113719467Y-136117421D01*
X113944718Y-136209591D01*
X113982391Y-136213462D01*
X114173000Y-136088731D01*
X114173000Y-134747000D01*
X114427000Y-134747000D01*
X114427000Y-136088731D01*
X114617609Y-136213462D01*
X114655282Y-136209591D01*
X114880533Y-136117421D01*
X115083474Y-135983078D01*
X115256307Y-135811725D01*
X115392390Y-135609946D01*
X115486493Y-135385496D01*
X115535000Y-135147000D01*
X115535000Y-134747000D01*
X114427000Y-134747000D01*
X114173000Y-134747000D01*
X113065000Y-134747000D01*
X112995000Y-134747000D01*
X112995000Y-134159335D01*
X112988467Y-134093000D01*
X113065000Y-134093000D01*
X113065000Y-134493000D01*
X114173000Y-134493000D01*
X114173000Y-133151269D01*
X114427000Y-133151269D01*
X114427000Y-134493000D01*
X115535000Y-134493000D01*
X115535000Y-134159336D01*
X115605000Y-134159336D01*
X115605000Y-135080665D01*
X115622870Y-135262102D01*
X115693489Y-135494901D01*
X115808168Y-135709449D01*
X115962499Y-135897502D01*
X116150552Y-136051833D01*
X116365100Y-136166511D01*
X116597899Y-136237130D01*
X116840000Y-136260975D01*
X117082102Y-136237130D01*
X117314901Y-136166511D01*
X117529449Y-136051833D01*
X117717502Y-135897502D01*
X117871833Y-135709449D01*
X117986511Y-135494901D01*
X118057130Y-135262101D01*
X118075000Y-135080664D01*
X118075000Y-134159336D01*
X118145000Y-134159336D01*
X118145000Y-135080665D01*
X118162870Y-135262102D01*
X118233489Y-135494901D01*
X118348168Y-135709449D01*
X118502499Y-135897502D01*
X118690552Y-136051833D01*
X118905100Y-136166511D01*
X119137899Y-136237130D01*
X119380000Y-136260975D01*
X119622102Y-136237130D01*
X119854901Y-136166511D01*
X120069449Y-136051833D01*
X120257502Y-135897502D01*
X120411833Y-135709449D01*
X120526511Y-135494901D01*
X120597130Y-135262101D01*
X120615000Y-135080664D01*
X120615000Y-134159336D01*
X120685000Y-134159336D01*
X120685000Y-135080665D01*
X120702870Y-135262102D01*
X120773489Y-135494901D01*
X120888168Y-135709449D01*
X121042499Y-135897502D01*
X121230552Y-136051833D01*
X121445100Y-136166511D01*
X121677899Y-136237130D01*
X121920000Y-136260975D01*
X122162102Y-136237130D01*
X122394901Y-136166511D01*
X122609449Y-136051833D01*
X122797502Y-135897502D01*
X122951833Y-135709449D01*
X123066511Y-135494901D01*
X123137130Y-135262101D01*
X123155000Y-135080664D01*
X123155000Y-134159336D01*
X123225000Y-134159336D01*
X123225000Y-135080665D01*
X123242870Y-135262102D01*
X123313489Y-135494901D01*
X123428168Y-135709449D01*
X123582499Y-135897502D01*
X123770552Y-136051833D01*
X123985100Y-136166511D01*
X124217899Y-136237130D01*
X124460000Y-136260975D01*
X124702102Y-136237130D01*
X124934901Y-136166511D01*
X125149449Y-136051833D01*
X125337502Y-135897502D01*
X125491833Y-135709449D01*
X125606511Y-135494901D01*
X125677130Y-135262101D01*
X125695000Y-135080664D01*
X125695000Y-134747000D01*
X125765000Y-134747000D01*
X125765000Y-135147000D01*
X125813507Y-135385496D01*
X125907610Y-135609946D01*
X126043693Y-135811725D01*
X126216526Y-135983078D01*
X126419467Y-136117421D01*
X126644718Y-136209591D01*
X126682391Y-136213462D01*
X126873000Y-136088731D01*
X126873000Y-134747000D01*
X127127000Y-134747000D01*
X127127000Y-136088731D01*
X127317609Y-136213462D01*
X127355282Y-136209591D01*
X127580533Y-136117421D01*
X127783474Y-135983078D01*
X127956307Y-135811725D01*
X128092390Y-135609946D01*
X128186493Y-135385496D01*
X128235000Y-135147000D01*
X128235000Y-134747000D01*
X127127000Y-134747000D01*
X126873000Y-134747000D01*
X125765000Y-134747000D01*
X125695000Y-134747000D01*
X125695000Y-134159335D01*
X125688467Y-134093000D01*
X125765000Y-134093000D01*
X125765000Y-134493000D01*
X126873000Y-134493000D01*
X126873000Y-133151269D01*
X127127000Y-133151269D01*
X127127000Y-134493000D01*
X128235000Y-134493000D01*
X128235000Y-134159336D01*
X128305000Y-134159336D01*
X128305000Y-135080665D01*
X128322870Y-135262102D01*
X128393489Y-135494901D01*
X128508168Y-135709449D01*
X128662499Y-135897502D01*
X128850552Y-136051833D01*
X129065100Y-136166511D01*
X129297899Y-136237130D01*
X129540000Y-136260975D01*
X129782102Y-136237130D01*
X130014901Y-136166511D01*
X130229449Y-136051833D01*
X130417502Y-135897502D01*
X130571833Y-135709449D01*
X130686511Y-135494901D01*
X130757130Y-135262101D01*
X130775000Y-135080664D01*
X130775000Y-134159336D01*
X130845000Y-134159336D01*
X130845000Y-135080665D01*
X130862870Y-135262102D01*
X130933489Y-135494901D01*
X131048168Y-135709449D01*
X131202499Y-135897502D01*
X131390552Y-136051833D01*
X131605100Y-136166511D01*
X131837899Y-136237130D01*
X132080000Y-136260975D01*
X132322102Y-136237130D01*
X132554901Y-136166511D01*
X132769449Y-136051833D01*
X132957502Y-135897502D01*
X133111833Y-135709449D01*
X133226511Y-135494901D01*
X133297130Y-135262101D01*
X133315000Y-135080664D01*
X133315000Y-134159335D01*
X133297130Y-133977898D01*
X133226511Y-133745099D01*
X133111833Y-133530551D01*
X132957502Y-133342498D01*
X132769448Y-133188167D01*
X132554900Y-133073489D01*
X132322101Y-133002870D01*
X132080000Y-132979025D01*
X131837898Y-133002870D01*
X131605099Y-133073489D01*
X131390551Y-133188167D01*
X131202498Y-133342498D01*
X131048167Y-133530552D01*
X130933489Y-133745100D01*
X130862870Y-133977899D01*
X130845000Y-134159336D01*
X130775000Y-134159336D01*
X130775000Y-134159335D01*
X130757130Y-133977898D01*
X130686511Y-133745099D01*
X130571833Y-133530551D01*
X130417502Y-133342498D01*
X130229448Y-133188167D01*
X130014900Y-133073489D01*
X129782101Y-133002870D01*
X129540000Y-132979025D01*
X129297898Y-133002870D01*
X129065099Y-133073489D01*
X128850551Y-133188167D01*
X128662498Y-133342498D01*
X128508167Y-133530552D01*
X128393489Y-133745100D01*
X128322870Y-133977899D01*
X128305000Y-134159336D01*
X128235000Y-134159336D01*
X128235000Y-134093000D01*
X128186493Y-133854504D01*
X128092390Y-133630054D01*
X127956307Y-133428275D01*
X127783474Y-133256922D01*
X127580533Y-133122579D01*
X127355282Y-133030409D01*
X127317609Y-133026538D01*
X127127000Y-133151269D01*
X126873000Y-133151269D01*
X126682391Y-133026538D01*
X126644718Y-133030409D01*
X126419467Y-133122579D01*
X126216526Y-133256922D01*
X126043693Y-133428275D01*
X125907610Y-133630054D01*
X125813507Y-133854504D01*
X125765000Y-134093000D01*
X125688467Y-134093000D01*
X125677130Y-133977898D01*
X125606511Y-133745099D01*
X125491833Y-133530551D01*
X125337502Y-133342498D01*
X125149448Y-133188167D01*
X124934900Y-133073489D01*
X124702101Y-133002870D01*
X124460000Y-132979025D01*
X124217898Y-133002870D01*
X123985099Y-133073489D01*
X123770551Y-133188167D01*
X123582498Y-133342498D01*
X123428167Y-133530552D01*
X123313489Y-133745100D01*
X123242870Y-133977899D01*
X123225000Y-134159336D01*
X123155000Y-134159336D01*
X123155000Y-134159335D01*
X123137130Y-133977898D01*
X123066511Y-133745099D01*
X122951833Y-133530551D01*
X122797502Y-133342498D01*
X122609448Y-133188167D01*
X122394900Y-133073489D01*
X122162101Y-133002870D01*
X121920000Y-132979025D01*
X121677898Y-133002870D01*
X121445099Y-133073489D01*
X121230551Y-133188167D01*
X121042498Y-133342498D01*
X120888167Y-133530552D01*
X120773489Y-133745100D01*
X120702870Y-133977899D01*
X120685000Y-134159336D01*
X120615000Y-134159336D01*
X120615000Y-134159335D01*
X120597130Y-133977898D01*
X120526511Y-133745099D01*
X120411833Y-133530551D01*
X120257502Y-133342498D01*
X120069448Y-133188167D01*
X119854900Y-133073489D01*
X119622101Y-133002870D01*
X119380000Y-132979025D01*
X119137898Y-133002870D01*
X118905099Y-133073489D01*
X118690551Y-133188167D01*
X118502498Y-133342498D01*
X118348167Y-133530552D01*
X118233489Y-133745100D01*
X118162870Y-133977899D01*
X118145000Y-134159336D01*
X118075000Y-134159336D01*
X118075000Y-134159335D01*
X118057130Y-133977898D01*
X117986511Y-133745099D01*
X117871833Y-133530551D01*
X117717502Y-133342498D01*
X117529448Y-133188167D01*
X117314900Y-133073489D01*
X117082101Y-133002870D01*
X116840000Y-132979025D01*
X116597898Y-133002870D01*
X116365099Y-133073489D01*
X116150551Y-133188167D01*
X115962498Y-133342498D01*
X115808167Y-133530552D01*
X115693489Y-133745100D01*
X115622870Y-133977899D01*
X115605000Y-134159336D01*
X115535000Y-134159336D01*
X115535000Y-134093000D01*
X115486493Y-133854504D01*
X115392390Y-133630054D01*
X115256307Y-133428275D01*
X115083474Y-133256922D01*
X114880533Y-133122579D01*
X114655282Y-133030409D01*
X114617609Y-133026538D01*
X114427000Y-133151269D01*
X114173000Y-133151269D01*
X113982391Y-133026538D01*
X113944718Y-133030409D01*
X113719467Y-133122579D01*
X113516526Y-133256922D01*
X113343693Y-133428275D01*
X113207610Y-133630054D01*
X113113507Y-133854504D01*
X113065000Y-134093000D01*
X112988467Y-134093000D01*
X112977130Y-133977898D01*
X112906511Y-133745099D01*
X112791833Y-133530551D01*
X112637502Y-133342498D01*
X112449448Y-133188167D01*
X112234900Y-133073489D01*
X112002101Y-133002870D01*
X111760000Y-132979025D01*
X111517898Y-133002870D01*
X111285099Y-133073489D01*
X111070551Y-133188167D01*
X110882498Y-133342498D01*
X110728167Y-133530552D01*
X110613489Y-133745100D01*
X110542870Y-133977899D01*
X110525000Y-134159336D01*
X110455000Y-134159336D01*
X110455000Y-134159335D01*
X110437130Y-133977898D01*
X110366511Y-133745099D01*
X110251833Y-133530551D01*
X110097502Y-133342498D01*
X109909448Y-133188167D01*
X109694900Y-133073489D01*
X109462101Y-133002870D01*
X109220000Y-132979025D01*
X108977898Y-133002870D01*
X108745099Y-133073489D01*
X108530551Y-133188167D01*
X108342498Y-133342498D01*
X108188167Y-133530552D01*
X108073489Y-133745100D01*
X108002870Y-133977899D01*
X107985000Y-134159336D01*
X107915000Y-134159336D01*
X107915000Y-134159335D01*
X107897130Y-133977898D01*
X107826511Y-133745099D01*
X107711833Y-133530551D01*
X107557502Y-133342498D01*
X107369448Y-133188167D01*
X107154900Y-133073489D01*
X106922101Y-133002870D01*
X106680000Y-132979025D01*
X106437898Y-133002870D01*
X106205099Y-133073489D01*
X105990551Y-133188167D01*
X105802498Y-133342498D01*
X105648167Y-133530552D01*
X105533489Y-133745100D01*
X105462870Y-133977899D01*
X105445000Y-134159336D01*
X105375000Y-134159336D01*
X105375000Y-134159335D01*
X105357130Y-133977898D01*
X105286511Y-133745099D01*
X105171833Y-133530551D01*
X105017502Y-133342498D01*
X104829448Y-133188167D01*
X104614900Y-133073489D01*
X104382101Y-133002870D01*
X104140000Y-132979025D01*
X103897898Y-133002870D01*
X103665099Y-133073489D01*
X103450551Y-133188167D01*
X103262498Y-133342498D01*
X103108167Y-133530552D01*
X102993489Y-133745100D01*
X102922870Y-133977899D01*
X102905000Y-134159336D01*
X102835000Y-134159336D01*
X102835000Y-134093000D01*
X102786493Y-133854504D01*
X102692390Y-133630054D01*
X102556307Y-133428275D01*
X102383474Y-133256922D01*
X102180533Y-133122579D01*
X101955282Y-133030409D01*
X101917609Y-133026538D01*
X101727000Y-133151269D01*
X101473000Y-133151269D01*
X101282391Y-133026538D01*
X101244718Y-133030409D01*
X101019467Y-133122579D01*
X100816526Y-133256922D01*
X100745010Y-133327826D01*
X100745010Y-129232335D01*
X100748686Y-129195010D01*
X100745010Y-129157685D01*
X100745010Y-129157677D01*
X100734013Y-129046024D01*
X100690556Y-128902763D01*
X100619984Y-128770734D01*
X100525011Y-128655009D01*
X100496013Y-128631211D01*
X100029817Y-128165016D01*
X100091833Y-128089449D01*
X100206511Y-127874901D01*
X100277130Y-127642101D01*
X100295000Y-127460664D01*
X100295000Y-126539335D01*
X100277130Y-126357898D01*
X100206511Y-126125099D01*
X100091833Y-125910551D01*
X99937502Y-125722498D01*
X99749448Y-125568167D01*
X99534900Y-125453489D01*
X99302101Y-125382870D01*
X99060000Y-125359025D01*
X98817898Y-125382870D01*
X98585099Y-125453489D01*
X98370551Y-125568167D01*
X98182498Y-125722498D01*
X98028167Y-125910552D01*
X97913489Y-126125100D01*
X97842870Y-126357899D01*
X97825000Y-126539336D01*
X97825000Y-127460665D01*
X97842870Y-127642102D01*
X97913489Y-127874901D01*
X98028168Y-128089449D01*
X98182499Y-128277502D01*
X98307137Y-128379789D01*
X98310997Y-128418985D01*
X98349408Y-128545611D01*
X98354454Y-128562246D01*
X98425026Y-128694276D01*
X98461688Y-128738948D01*
X98519999Y-128810001D01*
X98549002Y-128833803D01*
X99225011Y-129509813D01*
X99225010Y-132995277D01*
X99060000Y-132979025D01*
X98817898Y-133002870D01*
X98585099Y-133073489D01*
X98370551Y-133188167D01*
X98205010Y-133324023D01*
X98205010Y-129232335D01*
X98208686Y-129195010D01*
X98205010Y-129157685D01*
X98205010Y-129157677D01*
X98194013Y-129046024D01*
X98150556Y-128902763D01*
X98079984Y-128770734D01*
X97985011Y-128655009D01*
X97956013Y-128631211D01*
X97489817Y-128165016D01*
X97551833Y-128089449D01*
X97666511Y-127874901D01*
X97737130Y-127642101D01*
X97755000Y-127460664D01*
X97755000Y-126539335D01*
X97737130Y-126357898D01*
X97666511Y-126125099D01*
X97551833Y-125910551D01*
X97397502Y-125722498D01*
X97209448Y-125568167D01*
X96994900Y-125453489D01*
X96762101Y-125382870D01*
X96520000Y-125359025D01*
X96277898Y-125382870D01*
X96045099Y-125453489D01*
X95830551Y-125568167D01*
X95642498Y-125722498D01*
X95488167Y-125910552D01*
X95373489Y-126125100D01*
X95302870Y-126357899D01*
X95285000Y-126539336D01*
X95285000Y-127460665D01*
X95302870Y-127642102D01*
X95373489Y-127874901D01*
X95488168Y-128089449D01*
X95642499Y-128277502D01*
X95767137Y-128379789D01*
X95770997Y-128418985D01*
X95809408Y-128545611D01*
X95814454Y-128562246D01*
X95885026Y-128694276D01*
X95921688Y-128738948D01*
X95979999Y-128810001D01*
X96009002Y-128833803D01*
X96685011Y-129509813D01*
X96685010Y-132995277D01*
X96520000Y-132979025D01*
X96277898Y-133002870D01*
X96045099Y-133073489D01*
X95830551Y-133188167D01*
X95665010Y-133324023D01*
X95665010Y-129232335D01*
X95668686Y-129195010D01*
X95665010Y-129157685D01*
X95665010Y-129157677D01*
X95654013Y-129046024D01*
X95610556Y-128902763D01*
X95539984Y-128770734D01*
X95445011Y-128655009D01*
X95416013Y-128631211D01*
X94949817Y-128165016D01*
X95011833Y-128089449D01*
X95126511Y-127874901D01*
X95197130Y-127642101D01*
X95215000Y-127460664D01*
X95215000Y-126539335D01*
X95197130Y-126357898D01*
X95126511Y-126125099D01*
X95011833Y-125910551D01*
X94857502Y-125722498D01*
X94669448Y-125568167D01*
X94454900Y-125453489D01*
X94222101Y-125382870D01*
X93980000Y-125359025D01*
X93737898Y-125382870D01*
X93505099Y-125453489D01*
X93290551Y-125568167D01*
X93102498Y-125722498D01*
X92948167Y-125910552D01*
X92833489Y-126125100D01*
X92762870Y-126357899D01*
X92745000Y-126539336D01*
X92745000Y-127460665D01*
X92762870Y-127642102D01*
X92833489Y-127874901D01*
X92948168Y-128089449D01*
X93102499Y-128277502D01*
X93227137Y-128379790D01*
X93230998Y-128418986D01*
X93234895Y-128431833D01*
X93274454Y-128562246D01*
X93345026Y-128694276D01*
X93407774Y-128770734D01*
X93440000Y-128810001D01*
X93468998Y-128833799D01*
X94145011Y-129509813D01*
X94145010Y-132995277D01*
X93980000Y-132979025D01*
X93737898Y-133002870D01*
X93505099Y-133073489D01*
X93290551Y-133188167D01*
X93125010Y-133324023D01*
X93125010Y-129232335D01*
X93128686Y-129195010D01*
X93125010Y-129157685D01*
X93125010Y-129157677D01*
X93114013Y-129046024D01*
X93070556Y-128902763D01*
X92999984Y-128770734D01*
X92905011Y-128655009D01*
X92876013Y-128631211D01*
X92409817Y-128165016D01*
X92471833Y-128089449D01*
X92586511Y-127874901D01*
X92657130Y-127642101D01*
X92675000Y-127460664D01*
X92675000Y-126539335D01*
X92657130Y-126357898D01*
X92586511Y-126125099D01*
X92471833Y-125910551D01*
X92317502Y-125722498D01*
X92129448Y-125568167D01*
X91914900Y-125453489D01*
X91682101Y-125382870D01*
X91440000Y-125359025D01*
X91197898Y-125382870D01*
X90965099Y-125453489D01*
X90750551Y-125568167D01*
X90562498Y-125722498D01*
X90408167Y-125910552D01*
X90293489Y-126125100D01*
X90222870Y-126357899D01*
X90205000Y-126539336D01*
X90205000Y-127460665D01*
X90222870Y-127642102D01*
X90293489Y-127874901D01*
X90408168Y-128089449D01*
X90562499Y-128277502D01*
X90687137Y-128379789D01*
X90690997Y-128418985D01*
X90729408Y-128545611D01*
X90734454Y-128562246D01*
X90805026Y-128694276D01*
X90841688Y-128738948D01*
X90899999Y-128810001D01*
X90929002Y-128833803D01*
X91605011Y-129509813D01*
X91605010Y-132995277D01*
X91440000Y-132979025D01*
X91197898Y-133002870D01*
X90965099Y-133073489D01*
X90750551Y-133188167D01*
X90585010Y-133324023D01*
X90585010Y-129232335D01*
X90588686Y-129195010D01*
X90585010Y-129157685D01*
X90585010Y-129157677D01*
X90574013Y-129046024D01*
X90530556Y-128902763D01*
X90459984Y-128770734D01*
X90365011Y-128655009D01*
X90336013Y-128631211D01*
X89869817Y-128165016D01*
X89931833Y-128089449D01*
X90046511Y-127874901D01*
X90117130Y-127642101D01*
X90135000Y-127460664D01*
X90135000Y-126539335D01*
X90117130Y-126357898D01*
X90046511Y-126125099D01*
X89931833Y-125910551D01*
X89777502Y-125722498D01*
X89589448Y-125568167D01*
X89374900Y-125453489D01*
X89142101Y-125382870D01*
X88900000Y-125359025D01*
X88657898Y-125382870D01*
X88425099Y-125453489D01*
X88210551Y-125568167D01*
X88022498Y-125722498D01*
X87868167Y-125910552D01*
X87753489Y-126125100D01*
X87682870Y-126357899D01*
X87665000Y-126539336D01*
X87665000Y-127460665D01*
X87682870Y-127642102D01*
X87753489Y-127874901D01*
X87868168Y-128089449D01*
X88022499Y-128277502D01*
X88147137Y-128379789D01*
X88150997Y-128418985D01*
X88189408Y-128545611D01*
X88194454Y-128562246D01*
X88265026Y-128694276D01*
X88301688Y-128738948D01*
X88359999Y-128810001D01*
X88389002Y-128833803D01*
X89065011Y-129509813D01*
X89065010Y-133126396D01*
X89027000Y-133151269D01*
X89027000Y-134493000D01*
X89047000Y-134493000D01*
X89047000Y-134747000D01*
X89027000Y-134747000D01*
X89027000Y-134767000D01*
X88773000Y-134767000D01*
X88773000Y-134747000D01*
X88753000Y-134747000D01*
X88753000Y-134493000D01*
X88773000Y-134493000D01*
X88773000Y-133151269D01*
X88582391Y-133026538D01*
X88544718Y-133030409D01*
X88319467Y-133122579D01*
X88116526Y-133256922D01*
X88045010Y-133327826D01*
X88045010Y-129232335D01*
X88048686Y-129195010D01*
X88045010Y-129157685D01*
X88045010Y-129157677D01*
X88034013Y-129046024D01*
X87990556Y-128902763D01*
X87919984Y-128770734D01*
X87825011Y-128655009D01*
X87796013Y-128631211D01*
X87329817Y-128165016D01*
X87391833Y-128089449D01*
X87506511Y-127874901D01*
X87577130Y-127642101D01*
X87595000Y-127460664D01*
X87595000Y-126539335D01*
X87577130Y-126357898D01*
X87506511Y-126125099D01*
X87391833Y-125910551D01*
X87237502Y-125722498D01*
X87049448Y-125568167D01*
X86834900Y-125453489D01*
X86602101Y-125382870D01*
X86360000Y-125359025D01*
X86117898Y-125382870D01*
X85885099Y-125453489D01*
X85670551Y-125568167D01*
X85482498Y-125722498D01*
X85328167Y-125910552D01*
X85213489Y-126125100D01*
X85142870Y-126357899D01*
X85125000Y-126539336D01*
X85125000Y-127460665D01*
X85142870Y-127642102D01*
X85213489Y-127874901D01*
X85328168Y-128089449D01*
X85482499Y-128277502D01*
X85607137Y-128379789D01*
X85610997Y-128418985D01*
X85649408Y-128545611D01*
X85654454Y-128562246D01*
X85725026Y-128694276D01*
X85761688Y-128738948D01*
X85819999Y-128810001D01*
X85849002Y-128833803D01*
X86525011Y-129509813D01*
X86525010Y-132995277D01*
X86360000Y-132979025D01*
X86117898Y-133002870D01*
X85885099Y-133073489D01*
X85670551Y-133188167D01*
X85505010Y-133324023D01*
X85505010Y-129232335D01*
X85508686Y-129195010D01*
X85505010Y-129157685D01*
X85505010Y-129157677D01*
X85494013Y-129046024D01*
X85450556Y-128902763D01*
X85379984Y-128770734D01*
X85285011Y-128655009D01*
X85256013Y-128631211D01*
X84789817Y-128165016D01*
X84851833Y-128089449D01*
X84966511Y-127874901D01*
X85037130Y-127642101D01*
X85055000Y-127460664D01*
X85055000Y-126539335D01*
X85037130Y-126357898D01*
X84966511Y-126125099D01*
X84851833Y-125910551D01*
X84697502Y-125722498D01*
X84509448Y-125568167D01*
X84294900Y-125453489D01*
X84062101Y-125382870D01*
X83820000Y-125359025D01*
X83577898Y-125382870D01*
X83345099Y-125453489D01*
X83130551Y-125568167D01*
X82942498Y-125722498D01*
X82788167Y-125910552D01*
X82673489Y-126125100D01*
X82602870Y-126357899D01*
X82585000Y-126539336D01*
X81940000Y-126539336D01*
X81940000Y-111792279D01*
X81978909Y-111395455D01*
X82007928Y-111299336D01*
X82585000Y-111299336D01*
X82585000Y-112220665D01*
X82602870Y-112402102D01*
X82673489Y-112634901D01*
X82788168Y-112849449D01*
X82942499Y-113037502D01*
X83130552Y-113191833D01*
X83345100Y-113306511D01*
X83577899Y-113377130D01*
X83820000Y-113400975D01*
X84062102Y-113377130D01*
X84294901Y-113306511D01*
X84509449Y-113191833D01*
X84697502Y-113037502D01*
X84851833Y-112849449D01*
X84966511Y-112634901D01*
X85037130Y-112402101D01*
X85055000Y-112220664D01*
X85055000Y-111887000D01*
X85125000Y-111887000D01*
X85125000Y-112287000D01*
X85173507Y-112525496D01*
X85267610Y-112749946D01*
X85403693Y-112951725D01*
X85576526Y-113123078D01*
X85779467Y-113257421D01*
X86004718Y-113349591D01*
X86042391Y-113353462D01*
X86233000Y-113228731D01*
X86233000Y-111887000D01*
X86487000Y-111887000D01*
X86487000Y-113228731D01*
X86677609Y-113353462D01*
X86715282Y-113349591D01*
X86940533Y-113257421D01*
X87143474Y-113123078D01*
X87316307Y-112951725D01*
X87452390Y-112749946D01*
X87546493Y-112525496D01*
X87595000Y-112287000D01*
X87595000Y-111887000D01*
X86487000Y-111887000D01*
X86233000Y-111887000D01*
X85125000Y-111887000D01*
X85055000Y-111887000D01*
X85055000Y-111299335D01*
X85048467Y-111233000D01*
X85125000Y-111233000D01*
X85125000Y-111633000D01*
X86233000Y-111633000D01*
X86233000Y-110291269D01*
X86487000Y-110291269D01*
X86487000Y-111633000D01*
X87595000Y-111633000D01*
X87595000Y-111299336D01*
X87665000Y-111299336D01*
X87665000Y-112220665D01*
X87682870Y-112402102D01*
X87753489Y-112634901D01*
X87868168Y-112849449D01*
X88022499Y-113037502D01*
X88210552Y-113191833D01*
X88425100Y-113306511D01*
X88657899Y-113377130D01*
X88900000Y-113400975D01*
X89142102Y-113377130D01*
X89374901Y-113306511D01*
X89589449Y-113191833D01*
X89777502Y-113037502D01*
X89931833Y-112849449D01*
X90046511Y-112634901D01*
X90117130Y-112402101D01*
X90135000Y-112220664D01*
X90135000Y-111299336D01*
X90205000Y-111299336D01*
X90205000Y-112220665D01*
X90222870Y-112402102D01*
X90293489Y-112634901D01*
X90408168Y-112849449D01*
X90562499Y-113037502D01*
X90750552Y-113191833D01*
X90965100Y-113306511D01*
X91197899Y-113377130D01*
X91440000Y-113400975D01*
X91682102Y-113377130D01*
X91914901Y-113306511D01*
X92129449Y-113191833D01*
X92317502Y-113037502D01*
X92471833Y-112849449D01*
X92586511Y-112634901D01*
X92657130Y-112402101D01*
X92675000Y-112220664D01*
X92675000Y-111299336D01*
X92745000Y-111299336D01*
X92745000Y-112220665D01*
X92762870Y-112402102D01*
X92833489Y-112634901D01*
X92948168Y-112849449D01*
X93102499Y-113037502D01*
X93290552Y-113191833D01*
X93505100Y-113306511D01*
X93737899Y-113377130D01*
X93980000Y-113400975D01*
X94222102Y-113377130D01*
X94454901Y-113306511D01*
X94669449Y-113191833D01*
X94857502Y-113037502D01*
X95011833Y-112849449D01*
X95126511Y-112634901D01*
X95197130Y-112402101D01*
X95215000Y-112220664D01*
X95215000Y-111299336D01*
X95285000Y-111299336D01*
X95285000Y-112220665D01*
X95302870Y-112402102D01*
X95373489Y-112634901D01*
X95488168Y-112849449D01*
X95642499Y-113037502D01*
X95830552Y-113191833D01*
X96045100Y-113306511D01*
X96277899Y-113377130D01*
X96520000Y-113400975D01*
X96762102Y-113377130D01*
X96994901Y-113306511D01*
X97209449Y-113191833D01*
X97397502Y-113037502D01*
X97551833Y-112849449D01*
X97666511Y-112634901D01*
X97737130Y-112402101D01*
X97755000Y-112220664D01*
X97755000Y-111299336D01*
X97825000Y-111299336D01*
X97825000Y-112220665D01*
X97842870Y-112402102D01*
X97913489Y-112634901D01*
X98028168Y-112849449D01*
X98182499Y-113037502D01*
X98370552Y-113191833D01*
X98585100Y-113306511D01*
X98817899Y-113377130D01*
X99060000Y-113400975D01*
X99302102Y-113377130D01*
X99534901Y-113306511D01*
X99749449Y-113191833D01*
X99937502Y-113037502D01*
X100091833Y-112849449D01*
X100206511Y-112634901D01*
X100277130Y-112402101D01*
X100295000Y-112220664D01*
X100295000Y-111299335D01*
X100277130Y-111117898D01*
X100206511Y-110885099D01*
X100091833Y-110670551D01*
X99937502Y-110482498D01*
X99749448Y-110328167D01*
X99534900Y-110213489D01*
X99302101Y-110142870D01*
X99060000Y-110119025D01*
X98817898Y-110142870D01*
X98585099Y-110213489D01*
X98370551Y-110328167D01*
X98182498Y-110482498D01*
X98028167Y-110670552D01*
X97913489Y-110885100D01*
X97842870Y-111117899D01*
X97825000Y-111299336D01*
X97755000Y-111299336D01*
X97755000Y-111299335D01*
X97737130Y-111117898D01*
X97666511Y-110885099D01*
X97551833Y-110670551D01*
X97397502Y-110482498D01*
X97209448Y-110328167D01*
X96994900Y-110213489D01*
X96762101Y-110142870D01*
X96520000Y-110119025D01*
X96277898Y-110142870D01*
X96045099Y-110213489D01*
X95830551Y-110328167D01*
X95642498Y-110482498D01*
X95488167Y-110670552D01*
X95373489Y-110885100D01*
X95302870Y-111117899D01*
X95285000Y-111299336D01*
X95215000Y-111299336D01*
X95215000Y-111299335D01*
X95197130Y-111117898D01*
X95126511Y-110885099D01*
X95011833Y-110670551D01*
X94857502Y-110482498D01*
X94669448Y-110328167D01*
X94454900Y-110213489D01*
X94222101Y-110142870D01*
X93980000Y-110119025D01*
X93737898Y-110142870D01*
X93505099Y-110213489D01*
X93290551Y-110328167D01*
X93102498Y-110482498D01*
X92948167Y-110670552D01*
X92833489Y-110885100D01*
X92762870Y-111117899D01*
X92745000Y-111299336D01*
X92675000Y-111299336D01*
X92675000Y-111299335D01*
X92657130Y-111117898D01*
X92586511Y-110885099D01*
X92471833Y-110670551D01*
X92317502Y-110482498D01*
X92129448Y-110328167D01*
X91914900Y-110213489D01*
X91682101Y-110142870D01*
X91440000Y-110119025D01*
X91197898Y-110142870D01*
X90965099Y-110213489D01*
X90750551Y-110328167D01*
X90562498Y-110482498D01*
X90408167Y-110670552D01*
X90293489Y-110885100D01*
X90222870Y-111117899D01*
X90205000Y-111299336D01*
X90135000Y-111299336D01*
X90135000Y-111299335D01*
X90117130Y-111117898D01*
X90046511Y-110885099D01*
X89931833Y-110670551D01*
X89777502Y-110482498D01*
X89589448Y-110328167D01*
X89374900Y-110213489D01*
X89142101Y-110142870D01*
X88900000Y-110119025D01*
X88657898Y-110142870D01*
X88425099Y-110213489D01*
X88210551Y-110328167D01*
X88022498Y-110482498D01*
X87868167Y-110670552D01*
X87753489Y-110885100D01*
X87682870Y-111117899D01*
X87665000Y-111299336D01*
X87595000Y-111299336D01*
X87595000Y-111233000D01*
X87546493Y-110994504D01*
X87452390Y-110770054D01*
X87316307Y-110568275D01*
X87143474Y-110396922D01*
X86940533Y-110262579D01*
X86715282Y-110170409D01*
X86677609Y-110166538D01*
X86487000Y-110291269D01*
X86233000Y-110291269D01*
X86042391Y-110166538D01*
X86004718Y-110170409D01*
X85779467Y-110262579D01*
X85576526Y-110396922D01*
X85403693Y-110568275D01*
X85267610Y-110770054D01*
X85173507Y-110994504D01*
X85125000Y-111233000D01*
X85048467Y-111233000D01*
X85037130Y-111117898D01*
X84966511Y-110885099D01*
X84851833Y-110670551D01*
X84697502Y-110482498D01*
X84509448Y-110328167D01*
X84294900Y-110213489D01*
X84062101Y-110142870D01*
X83820000Y-110119025D01*
X83577898Y-110142870D01*
X83345099Y-110213489D01*
X83130551Y-110328167D01*
X82942498Y-110482498D01*
X82788167Y-110670552D01*
X82673489Y-110885100D01*
X82602870Y-111117899D01*
X82585000Y-111299336D01*
X82007928Y-111299336D01*
X82084780Y-111044792D01*
X82256744Y-110721375D01*
X82488254Y-110437516D01*
X82770486Y-110204035D01*
X83092695Y-110029817D01*
X83442614Y-109921498D01*
X83837443Y-109880000D01*
X99027721Y-109880000D01*
X99424545Y-109918909D01*
G04 #@! TA.AperFunction,Conductor*
D13*
G36*
X99424545Y-109918909D02*
G01*
X99775208Y-110024780D01*
X100098625Y-110196744D01*
X100382484Y-110428254D01*
X100615965Y-110710486D01*
X100790183Y-111032695D01*
X100898502Y-111382614D01*
X100940000Y-111777443D01*
X100940001Y-128302419D01*
X100942888Y-128331737D01*
X100942778Y-128347550D01*
X100943678Y-128356721D01*
X100995495Y-128849727D01*
X101007522Y-128908320D01*
X101018732Y-128967084D01*
X101021395Y-128975906D01*
X101167984Y-129449458D01*
X101191158Y-129504584D01*
X101213573Y-129560066D01*
X101217900Y-129568202D01*
X101453677Y-130004262D01*
X101487110Y-130053829D01*
X101519881Y-130103908D01*
X101525706Y-130111049D01*
X101841690Y-130493009D01*
X101884107Y-130535131D01*
X101925989Y-130577900D01*
X101933090Y-130583773D01*
X102317246Y-130897084D01*
X102367073Y-130930188D01*
X102416428Y-130963983D01*
X102424531Y-130968364D01*
X102424539Y-130968368D01*
X102862230Y-131201092D01*
X102917536Y-131223888D01*
X102972517Y-131247453D01*
X102981320Y-131250178D01*
X103455885Y-131393457D01*
X103514558Y-131405074D01*
X103573075Y-131417513D01*
X103582240Y-131418476D01*
X104075595Y-131466850D01*
X104075598Y-131466850D01*
X104107581Y-131470000D01*
X132047721Y-131470000D01*
X132444545Y-131508909D01*
X132795208Y-131614780D01*
X133118625Y-131786744D01*
X133402484Y-132018254D01*
X133635965Y-132300486D01*
X133810183Y-132622695D01*
X133918502Y-132972614D01*
X133960000Y-133367443D01*
X133960001Y-152367711D01*
X133921091Y-152764545D01*
X133815220Y-153115206D01*
X133643257Y-153438623D01*
X133411748Y-153722482D01*
X133129514Y-153955965D01*
X132807304Y-154130184D01*
X132457385Y-154238502D01*
X132062557Y-154280000D01*
X83852279Y-154280000D01*
X83455455Y-154241091D01*
X83104794Y-154135220D01*
X82781377Y-153963257D01*
X82497518Y-153731748D01*
X82264035Y-153449514D01*
X82089816Y-153127304D01*
X81981498Y-152777385D01*
X81940000Y-152382557D01*
X81940000Y-151939336D01*
X82585000Y-151939336D01*
X82585000Y-152860665D01*
X82602870Y-153042102D01*
X82673489Y-153274901D01*
X82788168Y-153489449D01*
X82942499Y-153677502D01*
X83130552Y-153831833D01*
X83345100Y-153946511D01*
X83577899Y-154017130D01*
X83820000Y-154040975D01*
X84062102Y-154017130D01*
X84294901Y-153946511D01*
X84509449Y-153831833D01*
X84697502Y-153677502D01*
X84851833Y-153489449D01*
X84966511Y-153274901D01*
X85037130Y-153042101D01*
X85055000Y-152860664D01*
X85055000Y-151939336D01*
X85125000Y-151939336D01*
X85125000Y-152860665D01*
X85142870Y-153042102D01*
X85213489Y-153274901D01*
X85328168Y-153489449D01*
X85482499Y-153677502D01*
X85670552Y-153831833D01*
X85885100Y-153946511D01*
X86117899Y-154017130D01*
X86360000Y-154040975D01*
X86602102Y-154017130D01*
X86834901Y-153946511D01*
X87049449Y-153831833D01*
X87237502Y-153677502D01*
X87391833Y-153489449D01*
X87506511Y-153274901D01*
X87577130Y-153042101D01*
X87595000Y-152860664D01*
X87595000Y-152527000D01*
X87665000Y-152527000D01*
X87665000Y-152927000D01*
X87713507Y-153165496D01*
X87807610Y-153389946D01*
X87943693Y-153591725D01*
X88116526Y-153763078D01*
X88319467Y-153897421D01*
X88544718Y-153989591D01*
X88582391Y-153993462D01*
X88773000Y-153868731D01*
X88773000Y-152527000D01*
X89027000Y-152527000D01*
X89027000Y-153868731D01*
X89217609Y-153993462D01*
X89255282Y-153989591D01*
X89480533Y-153897421D01*
X89683474Y-153763078D01*
X89856307Y-153591725D01*
X89992390Y-153389946D01*
X90086493Y-153165496D01*
X90135000Y-152927000D01*
X90135000Y-152527000D01*
X89027000Y-152527000D01*
X88773000Y-152527000D01*
X87665000Y-152527000D01*
X87595000Y-152527000D01*
X87595000Y-151939335D01*
X87588467Y-151873000D01*
X87665000Y-151873000D01*
X87665000Y-152273000D01*
X88773000Y-152273000D01*
X88773000Y-150931269D01*
X89027000Y-150931269D01*
X89027000Y-152273000D01*
X90135000Y-152273000D01*
X90135000Y-151939336D01*
X90205000Y-151939336D01*
X90205000Y-152860665D01*
X90222870Y-153042102D01*
X90293489Y-153274901D01*
X90408168Y-153489449D01*
X90562499Y-153677502D01*
X90750552Y-153831833D01*
X90965100Y-153946511D01*
X91197899Y-154017130D01*
X91440000Y-154040975D01*
X91682102Y-154017130D01*
X91914901Y-153946511D01*
X92129449Y-153831833D01*
X92317502Y-153677502D01*
X92471833Y-153489449D01*
X92586511Y-153274901D01*
X92657130Y-153042101D01*
X92675000Y-152860664D01*
X92675000Y-151939336D01*
X92745000Y-151939336D01*
X92745000Y-152860665D01*
X92762870Y-153042102D01*
X92833489Y-153274901D01*
X92948168Y-153489449D01*
X93102499Y-153677502D01*
X93290552Y-153831833D01*
X93505100Y-153946511D01*
X93737899Y-154017130D01*
X93980000Y-154040975D01*
X94222102Y-154017130D01*
X94454901Y-153946511D01*
X94669449Y-153831833D01*
X94857502Y-153677502D01*
X95011833Y-153489449D01*
X95126511Y-153274901D01*
X95197130Y-153042101D01*
X95215000Y-152860664D01*
X95215000Y-151939336D01*
X95285000Y-151939336D01*
X95285000Y-152860665D01*
X95302870Y-153042102D01*
X95373489Y-153274901D01*
X95488168Y-153489449D01*
X95642499Y-153677502D01*
X95830552Y-153831833D01*
X96045100Y-153946511D01*
X96277899Y-154017130D01*
X96520000Y-154040975D01*
X96762102Y-154017130D01*
X96994901Y-153946511D01*
X97209449Y-153831833D01*
X97397502Y-153677502D01*
X97551833Y-153489449D01*
X97666511Y-153274901D01*
X97737130Y-153042101D01*
X97755000Y-152860664D01*
X97755000Y-151939335D01*
X97737130Y-151757898D01*
X97666511Y-151525099D01*
X97551833Y-151310551D01*
X97397502Y-151122498D01*
X97209448Y-150968167D01*
X96994900Y-150853489D01*
X96762101Y-150782870D01*
X96520000Y-150759025D01*
X96277898Y-150782870D01*
X96045099Y-150853489D01*
X95830551Y-150968167D01*
X95642498Y-151122498D01*
X95488167Y-151310552D01*
X95373489Y-151525100D01*
X95302870Y-151757899D01*
X95285000Y-151939336D01*
X95215000Y-151939336D01*
X95215000Y-151939335D01*
X95197130Y-151757898D01*
X95126511Y-151525099D01*
X95011833Y-151310551D01*
X94857502Y-151122498D01*
X94669448Y-150968167D01*
X94454900Y-150853489D01*
X94222101Y-150782870D01*
X93980000Y-150759025D01*
X93737898Y-150782870D01*
X93505099Y-150853489D01*
X93290551Y-150968167D01*
X93102498Y-151122498D01*
X92948167Y-151310552D01*
X92833489Y-151525100D01*
X92762870Y-151757899D01*
X92745000Y-151939336D01*
X92675000Y-151939336D01*
X92675000Y-151939335D01*
X92657130Y-151757898D01*
X92586511Y-151525099D01*
X92471833Y-151310551D01*
X92317502Y-151122498D01*
X92129448Y-150968167D01*
X91914900Y-150853489D01*
X91682101Y-150782870D01*
X91440000Y-150759025D01*
X91197898Y-150782870D01*
X90965099Y-150853489D01*
X90750551Y-150968167D01*
X90562498Y-151122498D01*
X90408167Y-151310552D01*
X90293489Y-151525100D01*
X90222870Y-151757899D01*
X90205000Y-151939336D01*
X90135000Y-151939336D01*
X90135000Y-151873000D01*
X90086493Y-151634504D01*
X89992390Y-151410054D01*
X89856307Y-151208275D01*
X89683474Y-151036922D01*
X89480533Y-150902579D01*
X89255282Y-150810409D01*
X89217609Y-150806538D01*
X89027000Y-150931269D01*
X88773000Y-150931269D01*
X88582391Y-150806538D01*
X88544718Y-150810409D01*
X88319467Y-150902579D01*
X88116526Y-151036922D01*
X87943693Y-151208275D01*
X87807610Y-151410054D01*
X87713507Y-151634504D01*
X87665000Y-151873000D01*
X87588467Y-151873000D01*
X87577130Y-151757898D01*
X87506511Y-151525099D01*
X87391833Y-151310551D01*
X87237502Y-151122498D01*
X87049448Y-150968167D01*
X86834900Y-150853489D01*
X86602101Y-150782870D01*
X86360000Y-150759025D01*
X86117898Y-150782870D01*
X85885099Y-150853489D01*
X85670551Y-150968167D01*
X85482498Y-151122498D01*
X85328167Y-151310552D01*
X85213489Y-151525100D01*
X85142870Y-151757899D01*
X85125000Y-151939336D01*
X85055000Y-151939336D01*
X85055000Y-151939335D01*
X85037130Y-151757898D01*
X84966511Y-151525099D01*
X84851833Y-151310551D01*
X84697502Y-151122498D01*
X84509448Y-150968167D01*
X84294900Y-150853489D01*
X84062101Y-150782870D01*
X83820000Y-150759025D01*
X83577898Y-150782870D01*
X83345099Y-150853489D01*
X83130551Y-150968167D01*
X82942498Y-151122498D01*
X82788167Y-151310552D01*
X82673489Y-151525100D01*
X82602870Y-151757899D01*
X82585000Y-151939336D01*
X81940000Y-151939336D01*
X81940000Y-126539336D01*
X82585000Y-126539336D01*
X82585000Y-127460665D01*
X82602870Y-127642102D01*
X82673489Y-127874901D01*
X82788168Y-128089449D01*
X82942499Y-128277502D01*
X83067137Y-128379789D01*
X83070997Y-128418985D01*
X83109408Y-128545611D01*
X83114454Y-128562246D01*
X83185026Y-128694276D01*
X83221688Y-128738948D01*
X83279999Y-128810001D01*
X83309002Y-128833803D01*
X83985011Y-129509813D01*
X83985010Y-132995277D01*
X83820000Y-132979025D01*
X83577898Y-133002870D01*
X83345099Y-133073489D01*
X83130551Y-133188167D01*
X82942498Y-133342498D01*
X82788167Y-133530552D01*
X82673489Y-133745100D01*
X82602870Y-133977899D01*
X82585000Y-134159336D01*
X82585000Y-135080665D01*
X82602870Y-135262102D01*
X82673489Y-135494901D01*
X82788168Y-135709449D01*
X82942499Y-135897502D01*
X83130552Y-136051833D01*
X83345100Y-136166511D01*
X83577899Y-136237130D01*
X83820000Y-136260975D01*
X84062102Y-136237130D01*
X84294901Y-136166511D01*
X84385267Y-136118209D01*
X99029123Y-150762066D01*
X98817898Y-150782870D01*
X98585099Y-150853489D01*
X98370551Y-150968167D01*
X98182498Y-151122498D01*
X98028167Y-151310552D01*
X97913489Y-151525100D01*
X97842870Y-151757899D01*
X97825000Y-151939336D01*
X97825000Y-152860665D01*
X97842870Y-153042102D01*
X97913489Y-153274901D01*
X98028168Y-153489449D01*
X98182499Y-153677502D01*
X98370552Y-153831833D01*
X98585100Y-153946511D01*
X98817899Y-154017130D01*
X99060000Y-154040975D01*
X99302102Y-154017130D01*
X99534901Y-153946511D01*
X99749449Y-153831833D01*
X99937502Y-153677502D01*
X100091833Y-153489449D01*
X100206511Y-153274901D01*
X100277130Y-153042101D01*
X100295000Y-152860664D01*
X100295000Y-152527000D01*
X100365000Y-152527000D01*
X100365000Y-152927000D01*
X100413507Y-153165496D01*
X100507610Y-153389946D01*
X100643693Y-153591725D01*
X100816526Y-153763078D01*
X101019467Y-153897421D01*
X101244718Y-153989591D01*
X101282391Y-153993462D01*
X101473000Y-153868731D01*
X101473000Y-152527000D01*
X101727000Y-152527000D01*
X101727000Y-153868731D01*
X101917609Y-153993462D01*
X101955282Y-153989591D01*
X102180533Y-153897421D01*
X102383474Y-153763078D01*
X102556307Y-153591725D01*
X102692390Y-153389946D01*
X102786493Y-153165496D01*
X102835000Y-152927000D01*
X102835000Y-152527000D01*
X101727000Y-152527000D01*
X101473000Y-152527000D01*
X100365000Y-152527000D01*
X100295000Y-152527000D01*
X100295000Y-151939335D01*
X100283794Y-151825562D01*
X100372864Y-151834335D01*
X100365000Y-151873000D01*
X100365000Y-152273000D01*
X101473000Y-152273000D01*
X101473000Y-152253000D01*
X101727000Y-152253000D01*
X101727000Y-152273000D01*
X102835000Y-152273000D01*
X102835000Y-151873000D01*
X102827269Y-151834990D01*
X102915277Y-151834990D01*
X102905000Y-151939336D01*
X102905000Y-152860665D01*
X102922870Y-153042102D01*
X102993489Y-153274901D01*
X103108168Y-153489449D01*
X103262499Y-153677502D01*
X103450552Y-153831833D01*
X103665100Y-153946511D01*
X103897899Y-154017130D01*
X104140000Y-154040975D01*
X104382102Y-154017130D01*
X104614901Y-153946511D01*
X104829449Y-153831833D01*
X105017502Y-153677502D01*
X105171833Y-153489449D01*
X105286511Y-153274901D01*
X105357130Y-153042101D01*
X105375000Y-152860664D01*
X105375000Y-151939335D01*
X105364723Y-151834990D01*
X105455277Y-151834990D01*
X105445000Y-151939336D01*
X105445000Y-152860665D01*
X105462870Y-153042102D01*
X105533489Y-153274901D01*
X105648168Y-153489449D01*
X105802499Y-153677502D01*
X105990552Y-153831833D01*
X106205100Y-153946511D01*
X106437899Y-154017130D01*
X106680000Y-154040975D01*
X106922102Y-154017130D01*
X107154901Y-153946511D01*
X107369449Y-153831833D01*
X107557502Y-153677502D01*
X107711833Y-153489449D01*
X107826511Y-153274901D01*
X107897130Y-153042101D01*
X107915000Y-152860664D01*
X107915000Y-151939335D01*
X107904723Y-151834990D01*
X107995277Y-151834990D01*
X107985000Y-151939336D01*
X107985000Y-152860665D01*
X108002870Y-153042102D01*
X108073489Y-153274901D01*
X108188168Y-153489449D01*
X108342499Y-153677502D01*
X108530552Y-153831833D01*
X108745100Y-153946511D01*
X108977899Y-154017130D01*
X109220000Y-154040975D01*
X109462102Y-154017130D01*
X109694901Y-153946511D01*
X109909449Y-153831833D01*
X110097502Y-153677502D01*
X110251833Y-153489449D01*
X110366511Y-153274901D01*
X110437130Y-153042101D01*
X110455000Y-152860664D01*
X110455000Y-151939335D01*
X110444723Y-151834990D01*
X110535277Y-151834990D01*
X110525000Y-151939336D01*
X110525000Y-152860665D01*
X110542870Y-153042102D01*
X110613489Y-153274901D01*
X110728168Y-153489449D01*
X110882499Y-153677502D01*
X111070552Y-153831833D01*
X111285100Y-153946511D01*
X111517899Y-154017130D01*
X111760000Y-154040975D01*
X112002102Y-154017130D01*
X112234901Y-153946511D01*
X112449449Y-153831833D01*
X112637502Y-153677502D01*
X112791833Y-153489449D01*
X112906511Y-153274901D01*
X112977130Y-153042101D01*
X112995000Y-152860664D01*
X112995000Y-152527000D01*
X113065000Y-152527000D01*
X113065000Y-152927000D01*
X113113507Y-153165496D01*
X113207610Y-153389946D01*
X113343693Y-153591725D01*
X113516526Y-153763078D01*
X113719467Y-153897421D01*
X113944718Y-153989591D01*
X113982391Y-153993462D01*
X114173000Y-153868731D01*
X114173000Y-152527000D01*
X114427000Y-152527000D01*
X114427000Y-153868731D01*
X114617609Y-153993462D01*
X114655282Y-153989591D01*
X114880533Y-153897421D01*
X115083474Y-153763078D01*
X115256307Y-153591725D01*
X115392390Y-153389946D01*
X115486493Y-153165496D01*
X115535000Y-152927000D01*
X115535000Y-152527000D01*
X114427000Y-152527000D01*
X114173000Y-152527000D01*
X113065000Y-152527000D01*
X112995000Y-152527000D01*
X112995000Y-151939335D01*
X112977130Y-151757898D01*
X112906511Y-151525099D01*
X112831616Y-151384980D01*
X113224520Y-151384980D01*
X113207610Y-151410054D01*
X113113507Y-151634504D01*
X113065000Y-151873000D01*
X113065000Y-152273000D01*
X114173000Y-152273000D01*
X114173000Y-152253000D01*
X114427000Y-152253000D01*
X114427000Y-152273000D01*
X115535000Y-152273000D01*
X115535000Y-151873000D01*
X115486493Y-151634504D01*
X115392390Y-151410054D01*
X115375480Y-151384980D01*
X115768385Y-151384980D01*
X115693489Y-151525100D01*
X115622870Y-151757899D01*
X115605000Y-151939336D01*
X115605000Y-152860665D01*
X115622870Y-153042102D01*
X115693489Y-153274901D01*
X115808168Y-153489449D01*
X115962499Y-153677502D01*
X116150552Y-153831833D01*
X116365100Y-153946511D01*
X116597899Y-154017130D01*
X116840000Y-154040975D01*
X117082102Y-154017130D01*
X117314901Y-153946511D01*
X117529449Y-153831833D01*
X117717502Y-153677502D01*
X117871833Y-153489449D01*
X117986511Y-153274901D01*
X118057130Y-153042101D01*
X118075000Y-152860664D01*
X118075000Y-151939335D01*
X118057130Y-151757898D01*
X117986511Y-151525099D01*
X117871833Y-151310551D01*
X117717502Y-151122498D01*
X117552261Y-150986889D01*
X117545546Y-150964753D01*
X117529626Y-150934970D01*
X117983169Y-150934970D01*
X118352938Y-151304739D01*
X118348167Y-151310552D01*
X118233489Y-151525100D01*
X118162870Y-151757899D01*
X118145000Y-151939336D01*
X118145000Y-152860665D01*
X118162870Y-153042102D01*
X118233489Y-153274901D01*
X118348168Y-153489449D01*
X118502499Y-153677502D01*
X118690552Y-153831833D01*
X118905100Y-153946511D01*
X119137899Y-154017130D01*
X119380000Y-154040975D01*
X119622102Y-154017130D01*
X119854901Y-153946511D01*
X120069449Y-153831833D01*
X120257502Y-153677502D01*
X120411833Y-153489449D01*
X120526511Y-153274901D01*
X120597130Y-153042101D01*
X120615000Y-152860664D01*
X120615000Y-151939335D01*
X120597130Y-151757898D01*
X120526511Y-151525099D01*
X120411833Y-151310551D01*
X120257502Y-151122498D01*
X120092261Y-150986889D01*
X120085546Y-150964753D01*
X120014974Y-150832724D01*
X119943799Y-150745997D01*
X119943798Y-150745996D01*
X119920001Y-150716999D01*
X119891003Y-150693201D01*
X119682762Y-150484960D01*
X120073159Y-150484960D01*
X120892937Y-151304739D01*
X120888167Y-151310552D01*
X120773489Y-151525100D01*
X120702870Y-151757899D01*
X120685000Y-151939336D01*
X120685000Y-152860665D01*
X120702870Y-153042102D01*
X120773489Y-153274901D01*
X120888168Y-153489449D01*
X121042499Y-153677502D01*
X121230552Y-153831833D01*
X121445100Y-153946511D01*
X121677899Y-154017130D01*
X121920000Y-154040975D01*
X122162102Y-154017130D01*
X122394901Y-153946511D01*
X122609449Y-153831833D01*
X122797502Y-153677502D01*
X122951833Y-153489449D01*
X123066511Y-153274901D01*
X123137130Y-153042101D01*
X123155000Y-152860664D01*
X123155000Y-151939335D01*
X123137130Y-151757898D01*
X123066511Y-151525099D01*
X122951833Y-151310551D01*
X122797502Y-151122498D01*
X122632261Y-150986889D01*
X122625546Y-150964753D01*
X122554974Y-150832724D01*
X122460001Y-150716999D01*
X122431003Y-150693201D01*
X121772752Y-150034950D01*
X122270149Y-150034950D01*
X123481168Y-151245970D01*
X123428167Y-151310552D01*
X123313489Y-151525100D01*
X123242870Y-151757899D01*
X123225000Y-151939336D01*
X123225000Y-152860665D01*
X123242870Y-153042102D01*
X123313489Y-153274901D01*
X123428168Y-153489449D01*
X123582499Y-153677502D01*
X123770552Y-153831833D01*
X123985100Y-153946511D01*
X124217899Y-154017130D01*
X124460000Y-154040975D01*
X124702102Y-154017130D01*
X124934901Y-153946511D01*
X125149449Y-153831833D01*
X125337502Y-153677502D01*
X125491833Y-153489449D01*
X125606511Y-153274901D01*
X125677130Y-153042101D01*
X125695000Y-152860664D01*
X125695000Y-152527000D01*
X125765000Y-152527000D01*
X125765000Y-152927000D01*
X125813507Y-153165496D01*
X125907610Y-153389946D01*
X126043693Y-153591725D01*
X126216526Y-153763078D01*
X126419467Y-153897421D01*
X126644718Y-153989591D01*
X126682391Y-153993462D01*
X126873000Y-153868731D01*
X126873000Y-152527000D01*
X127127000Y-152527000D01*
X127127000Y-153868731D01*
X127317609Y-153993462D01*
X127355282Y-153989591D01*
X127580533Y-153897421D01*
X127783474Y-153763078D01*
X127956307Y-153591725D01*
X128092390Y-153389946D01*
X128186493Y-153165496D01*
X128235000Y-152927000D01*
X128235000Y-152527000D01*
X127127000Y-152527000D01*
X126873000Y-152527000D01*
X125765000Y-152527000D01*
X125695000Y-152527000D01*
X125695000Y-151939335D01*
X125688467Y-151873000D01*
X125765000Y-151873000D01*
X125765000Y-152273000D01*
X126873000Y-152273000D01*
X126873000Y-150931269D01*
X127127000Y-150931269D01*
X127127000Y-152273000D01*
X128235000Y-152273000D01*
X128235000Y-151873000D01*
X128186493Y-151634504D01*
X128092390Y-151410054D01*
X127956307Y-151208275D01*
X127783474Y-151036922D01*
X127580533Y-150902579D01*
X127355282Y-150810409D01*
X127317609Y-150806538D01*
X127127000Y-150931269D01*
X126873000Y-150931269D01*
X126682391Y-150806538D01*
X126644718Y-150810409D01*
X126419467Y-150902579D01*
X126216526Y-151036922D01*
X126043693Y-151208275D01*
X125907610Y-151410054D01*
X125813507Y-151634504D01*
X125765000Y-151873000D01*
X125688467Y-151873000D01*
X125677130Y-151757898D01*
X125606511Y-151525099D01*
X125491833Y-151310551D01*
X125337502Y-151122498D01*
X125210720Y-151018452D01*
X125209003Y-151001014D01*
X125165546Y-150857753D01*
X125125520Y-150782870D01*
X125094974Y-150725723D01*
X125023799Y-150638997D01*
X125000001Y-150609999D01*
X124971003Y-150586201D01*
X123969741Y-149584940D01*
X126793139Y-149584940D01*
X128512937Y-151304739D01*
X128508167Y-151310552D01*
X128393489Y-151525100D01*
X128322870Y-151757899D01*
X128305000Y-151939336D01*
X128305000Y-152860665D01*
X128322870Y-153042102D01*
X128393489Y-153274901D01*
X128508168Y-153489449D01*
X128662499Y-153677502D01*
X128850552Y-153831833D01*
X129065100Y-153946511D01*
X129297899Y-154017130D01*
X129540000Y-154040975D01*
X129782102Y-154017130D01*
X130014901Y-153946511D01*
X130229449Y-153831833D01*
X130417502Y-153677502D01*
X130571833Y-153489449D01*
X130686511Y-153274901D01*
X130757130Y-153042101D01*
X130775000Y-152860664D01*
X130775000Y-151939335D01*
X130757130Y-151757898D01*
X130686511Y-151525099D01*
X130571833Y-151310551D01*
X130417502Y-151122498D01*
X130252261Y-150986889D01*
X130245546Y-150964753D01*
X130174974Y-150832724D01*
X130080001Y-150716999D01*
X130051003Y-150693201D01*
X128492731Y-149134930D01*
X128883129Y-149134930D01*
X131052937Y-151304740D01*
X131048167Y-151310552D01*
X130933489Y-151525100D01*
X130862870Y-151757899D01*
X130845000Y-151939336D01*
X130845000Y-152860665D01*
X130862870Y-153042102D01*
X130933489Y-153274901D01*
X131048168Y-153489449D01*
X131202499Y-153677502D01*
X131390552Y-153831833D01*
X131605100Y-153946511D01*
X131837899Y-154017130D01*
X132080000Y-154040975D01*
X132322102Y-154017130D01*
X132554901Y-153946511D01*
X132769449Y-153831833D01*
X132957502Y-153677502D01*
X133111833Y-153489449D01*
X133226511Y-153274901D01*
X133297130Y-153042101D01*
X133315000Y-152860664D01*
X133315000Y-151939335D01*
X133297130Y-151757898D01*
X133226511Y-151525099D01*
X133111833Y-151310551D01*
X132957502Y-151122498D01*
X132792261Y-150986889D01*
X132785546Y-150964753D01*
X132714974Y-150832724D01*
X132674060Y-150782870D01*
X132643799Y-150745996D01*
X132643795Y-150745992D01*
X132620001Y-150716999D01*
X132591008Y-150693205D01*
X129761734Y-147863933D01*
X129737931Y-147834929D01*
X129622206Y-147739956D01*
X129490177Y-147669384D01*
X129346916Y-147625927D01*
X129235263Y-147614930D01*
X129235252Y-147614930D01*
X129197930Y-147611254D01*
X129160608Y-147614930D01*
X113961571Y-147614930D01*
X102351130Y-136004489D01*
X102383474Y-135983078D01*
X102556307Y-135811725D01*
X102692390Y-135609946D01*
X102786493Y-135385496D01*
X102835000Y-135147000D01*
X102835000Y-134747000D01*
X101727000Y-134747000D01*
X101727000Y-134767000D01*
X101473000Y-134767000D01*
X101473000Y-134747000D01*
X101453000Y-134747000D01*
X101453000Y-134493000D01*
X101473000Y-134493000D01*
X101473000Y-133151269D01*
X101727000Y-133151269D01*
X101727000Y-134493000D01*
X102835000Y-134493000D01*
X102835000Y-134159336D01*
X102905000Y-134159336D01*
X102905000Y-135080665D01*
X102922870Y-135262102D01*
X102993489Y-135494901D01*
X103108168Y-135709449D01*
X103262499Y-135897502D01*
X103450552Y-136051833D01*
X103665100Y-136166511D01*
X103897899Y-136237130D01*
X104140000Y-136260975D01*
X104382102Y-136237130D01*
X104614901Y-136166511D01*
X104829449Y-136051833D01*
X105017502Y-135897502D01*
X105171833Y-135709449D01*
X105286511Y-135494901D01*
X105357130Y-135262101D01*
X105375000Y-135080664D01*
X105375000Y-134159336D01*
X105445000Y-134159336D01*
X105445000Y-135080665D01*
X105462870Y-135262102D01*
X105533489Y-135494901D01*
X105648168Y-135709449D01*
X105802499Y-135897502D01*
X105990552Y-136051833D01*
X106205100Y-136166511D01*
X106437899Y-136237130D01*
X106680000Y-136260975D01*
X106922102Y-136237130D01*
X107154901Y-136166511D01*
X107369449Y-136051833D01*
X107557502Y-135897502D01*
X107711833Y-135709449D01*
X107826511Y-135494901D01*
X107897130Y-135262101D01*
X107915000Y-135080664D01*
X107915000Y-134159336D01*
X107985000Y-134159336D01*
X107985000Y-135080665D01*
X108002870Y-135262102D01*
X108073489Y-135494901D01*
X108188168Y-135709449D01*
X108342499Y-135897502D01*
X108530552Y-136051833D01*
X108745100Y-136166511D01*
X108977899Y-136237130D01*
X109220000Y-136260975D01*
X109462102Y-136237130D01*
X109694901Y-136166511D01*
X109909449Y-136051833D01*
X110097502Y-135897502D01*
X110251833Y-135709449D01*
X110366511Y-135494901D01*
X110437130Y-135262101D01*
X110455000Y-135080664D01*
X110455000Y-134159336D01*
X110525000Y-134159336D01*
X110525000Y-135080665D01*
X110542870Y-135262102D01*
X110613489Y-135494901D01*
X110728168Y-135709449D01*
X110882499Y-135897502D01*
X111070552Y-136051833D01*
X111285100Y-136166511D01*
X111517899Y-136237130D01*
X111760000Y-136260975D01*
X112002102Y-136237130D01*
X112234901Y-136166511D01*
X112449449Y-136051833D01*
X112637502Y-135897502D01*
X112791833Y-135709449D01*
X112906511Y-135494901D01*
X112977130Y-135262101D01*
X112995000Y-135080664D01*
X112995000Y-134747000D01*
X113065000Y-134747000D01*
X113065000Y-135147000D01*
X113113507Y-135385496D01*
X113207610Y-135609946D01*
X113343693Y-135811725D01*
X113516526Y-135983078D01*
X113719467Y-136117421D01*
X113944718Y-136209591D01*
X113982391Y-136213462D01*
X114173000Y-136088731D01*
X114173000Y-134747000D01*
X114427000Y-134747000D01*
X114427000Y-136088731D01*
X114617609Y-136213462D01*
X114655282Y-136209591D01*
X114880533Y-136117421D01*
X115083474Y-135983078D01*
X115256307Y-135811725D01*
X115392390Y-135609946D01*
X115486493Y-135385496D01*
X115535000Y-135147000D01*
X115535000Y-134747000D01*
X114427000Y-134747000D01*
X114173000Y-134747000D01*
X113065000Y-134747000D01*
X112995000Y-134747000D01*
X112995000Y-134159335D01*
X112988467Y-134093000D01*
X113065000Y-134093000D01*
X113065000Y-134493000D01*
X114173000Y-134493000D01*
X114173000Y-133151269D01*
X114427000Y-133151269D01*
X114427000Y-134493000D01*
X115535000Y-134493000D01*
X115535000Y-134159336D01*
X115605000Y-134159336D01*
X115605000Y-135080665D01*
X115622870Y-135262102D01*
X115693489Y-135494901D01*
X115808168Y-135709449D01*
X115962499Y-135897502D01*
X116150552Y-136051833D01*
X116365100Y-136166511D01*
X116597899Y-136237130D01*
X116840000Y-136260975D01*
X117082102Y-136237130D01*
X117314901Y-136166511D01*
X117529449Y-136051833D01*
X117717502Y-135897502D01*
X117871833Y-135709449D01*
X117986511Y-135494901D01*
X118057130Y-135262101D01*
X118075000Y-135080664D01*
X118075000Y-134159336D01*
X118145000Y-134159336D01*
X118145000Y-135080665D01*
X118162870Y-135262102D01*
X118233489Y-135494901D01*
X118348168Y-135709449D01*
X118502499Y-135897502D01*
X118690552Y-136051833D01*
X118905100Y-136166511D01*
X119137899Y-136237130D01*
X119380000Y-136260975D01*
X119622102Y-136237130D01*
X119854901Y-136166511D01*
X120069449Y-136051833D01*
X120257502Y-135897502D01*
X120411833Y-135709449D01*
X120526511Y-135494901D01*
X120597130Y-135262101D01*
X120615000Y-135080664D01*
X120615000Y-134159336D01*
X120685000Y-134159336D01*
X120685000Y-135080665D01*
X120702870Y-135262102D01*
X120773489Y-135494901D01*
X120888168Y-135709449D01*
X121042499Y-135897502D01*
X121230552Y-136051833D01*
X121445100Y-136166511D01*
X121677899Y-136237130D01*
X121920000Y-136260975D01*
X122162102Y-136237130D01*
X122394901Y-136166511D01*
X122609449Y-136051833D01*
X122797502Y-135897502D01*
X122951833Y-135709449D01*
X123066511Y-135494901D01*
X123137130Y-135262101D01*
X123155000Y-135080664D01*
X123155000Y-134159336D01*
X123225000Y-134159336D01*
X123225000Y-135080665D01*
X123242870Y-135262102D01*
X123313489Y-135494901D01*
X123428168Y-135709449D01*
X123582499Y-135897502D01*
X123770552Y-136051833D01*
X123985100Y-136166511D01*
X124217899Y-136237130D01*
X124460000Y-136260975D01*
X124702102Y-136237130D01*
X124934901Y-136166511D01*
X125149449Y-136051833D01*
X125337502Y-135897502D01*
X125491833Y-135709449D01*
X125606511Y-135494901D01*
X125677130Y-135262101D01*
X125695000Y-135080664D01*
X125695000Y-134747000D01*
X125765000Y-134747000D01*
X125765000Y-135147000D01*
X125813507Y-135385496D01*
X125907610Y-135609946D01*
X126043693Y-135811725D01*
X126216526Y-135983078D01*
X126419467Y-136117421D01*
X126644718Y-136209591D01*
X126682391Y-136213462D01*
X126873000Y-136088731D01*
X126873000Y-134747000D01*
X127127000Y-134747000D01*
X127127000Y-136088731D01*
X127317609Y-136213462D01*
X127355282Y-136209591D01*
X127580533Y-136117421D01*
X127783474Y-135983078D01*
X127956307Y-135811725D01*
X128092390Y-135609946D01*
X128186493Y-135385496D01*
X128235000Y-135147000D01*
X128235000Y-134747000D01*
X127127000Y-134747000D01*
X126873000Y-134747000D01*
X125765000Y-134747000D01*
X125695000Y-134747000D01*
X125695000Y-134159335D01*
X125688467Y-134093000D01*
X125765000Y-134093000D01*
X125765000Y-134493000D01*
X126873000Y-134493000D01*
X126873000Y-133151269D01*
X127127000Y-133151269D01*
X127127000Y-134493000D01*
X128235000Y-134493000D01*
X128235000Y-134159336D01*
X128305000Y-134159336D01*
X128305000Y-135080665D01*
X128322870Y-135262102D01*
X128393489Y-135494901D01*
X128508168Y-135709449D01*
X128662499Y-135897502D01*
X128850552Y-136051833D01*
X129065100Y-136166511D01*
X129297899Y-136237130D01*
X129540000Y-136260975D01*
X129782102Y-136237130D01*
X130014901Y-136166511D01*
X130229449Y-136051833D01*
X130417502Y-135897502D01*
X130571833Y-135709449D01*
X130686511Y-135494901D01*
X130757130Y-135262101D01*
X130775000Y-135080664D01*
X130775000Y-134159336D01*
X130845000Y-134159336D01*
X130845000Y-135080665D01*
X130862870Y-135262102D01*
X130933489Y-135494901D01*
X131048168Y-135709449D01*
X131202499Y-135897502D01*
X131390552Y-136051833D01*
X131605100Y-136166511D01*
X131837899Y-136237130D01*
X132080000Y-136260975D01*
X132322102Y-136237130D01*
X132554901Y-136166511D01*
X132769449Y-136051833D01*
X132957502Y-135897502D01*
X133111833Y-135709449D01*
X133226511Y-135494901D01*
X133297130Y-135262101D01*
X133315000Y-135080664D01*
X133315000Y-134159335D01*
X133297130Y-133977898D01*
X133226511Y-133745099D01*
X133111833Y-133530551D01*
X132957502Y-133342498D01*
X132769448Y-133188167D01*
X132554900Y-133073489D01*
X132322101Y-133002870D01*
X132080000Y-132979025D01*
X131837898Y-133002870D01*
X131605099Y-133073489D01*
X131390551Y-133188167D01*
X131202498Y-133342498D01*
X131048167Y-133530552D01*
X130933489Y-133745100D01*
X130862870Y-133977899D01*
X130845000Y-134159336D01*
X130775000Y-134159336D01*
X130775000Y-134159335D01*
X130757130Y-133977898D01*
X130686511Y-133745099D01*
X130571833Y-133530551D01*
X130417502Y-133342498D01*
X130229448Y-133188167D01*
X130014900Y-133073489D01*
X129782101Y-133002870D01*
X129540000Y-132979025D01*
X129297898Y-133002870D01*
X129065099Y-133073489D01*
X128850551Y-133188167D01*
X128662498Y-133342498D01*
X128508167Y-133530552D01*
X128393489Y-133745100D01*
X128322870Y-133977899D01*
X128305000Y-134159336D01*
X128235000Y-134159336D01*
X128235000Y-134093000D01*
X128186493Y-133854504D01*
X128092390Y-133630054D01*
X127956307Y-133428275D01*
X127783474Y-133256922D01*
X127580533Y-133122579D01*
X127355282Y-133030409D01*
X127317609Y-133026538D01*
X127127000Y-133151269D01*
X126873000Y-133151269D01*
X126682391Y-133026538D01*
X126644718Y-133030409D01*
X126419467Y-133122579D01*
X126216526Y-133256922D01*
X126043693Y-133428275D01*
X125907610Y-133630054D01*
X125813507Y-133854504D01*
X125765000Y-134093000D01*
X125688467Y-134093000D01*
X125677130Y-133977898D01*
X125606511Y-133745099D01*
X125491833Y-133530551D01*
X125337502Y-133342498D01*
X125149448Y-133188167D01*
X124934900Y-133073489D01*
X124702101Y-133002870D01*
X124460000Y-132979025D01*
X124217898Y-133002870D01*
X123985099Y-133073489D01*
X123770551Y-133188167D01*
X123582498Y-133342498D01*
X123428167Y-133530552D01*
X123313489Y-133745100D01*
X123242870Y-133977899D01*
X123225000Y-134159336D01*
X123155000Y-134159336D01*
X123155000Y-134159335D01*
X123137130Y-133977898D01*
X123066511Y-133745099D01*
X122951833Y-133530551D01*
X122797502Y-133342498D01*
X122609448Y-133188167D01*
X122394900Y-133073489D01*
X122162101Y-133002870D01*
X121920000Y-132979025D01*
X121677898Y-133002870D01*
X121445099Y-133073489D01*
X121230551Y-133188167D01*
X121042498Y-133342498D01*
X120888167Y-133530552D01*
X120773489Y-133745100D01*
X120702870Y-133977899D01*
X120685000Y-134159336D01*
X120615000Y-134159336D01*
X120615000Y-134159335D01*
X120597130Y-133977898D01*
X120526511Y-133745099D01*
X120411833Y-133530551D01*
X120257502Y-133342498D01*
X120069448Y-133188167D01*
X119854900Y-133073489D01*
X119622101Y-133002870D01*
X119380000Y-132979025D01*
X119137898Y-133002870D01*
X118905099Y-133073489D01*
X118690551Y-133188167D01*
X118502498Y-133342498D01*
X118348167Y-133530552D01*
X118233489Y-133745100D01*
X118162870Y-133977899D01*
X118145000Y-134159336D01*
X118075000Y-134159336D01*
X118075000Y-134159335D01*
X118057130Y-133977898D01*
X117986511Y-133745099D01*
X117871833Y-133530551D01*
X117717502Y-133342498D01*
X117529448Y-133188167D01*
X117314900Y-133073489D01*
X117082101Y-133002870D01*
X116840000Y-132979025D01*
X116597898Y-133002870D01*
X116365099Y-133073489D01*
X116150551Y-133188167D01*
X115962498Y-133342498D01*
X115808167Y-133530552D01*
X115693489Y-133745100D01*
X115622870Y-133977899D01*
X115605000Y-134159336D01*
X115535000Y-134159336D01*
X115535000Y-134093000D01*
X115486493Y-133854504D01*
X115392390Y-133630054D01*
X115256307Y-133428275D01*
X115083474Y-133256922D01*
X114880533Y-133122579D01*
X114655282Y-133030409D01*
X114617609Y-133026538D01*
X114427000Y-133151269D01*
X114173000Y-133151269D01*
X113982391Y-133026538D01*
X113944718Y-133030409D01*
X113719467Y-133122579D01*
X113516526Y-133256922D01*
X113343693Y-133428275D01*
X113207610Y-133630054D01*
X113113507Y-133854504D01*
X113065000Y-134093000D01*
X112988467Y-134093000D01*
X112977130Y-133977898D01*
X112906511Y-133745099D01*
X112791833Y-133530551D01*
X112637502Y-133342498D01*
X112449448Y-133188167D01*
X112234900Y-133073489D01*
X112002101Y-133002870D01*
X111760000Y-132979025D01*
X111517898Y-133002870D01*
X111285099Y-133073489D01*
X111070551Y-133188167D01*
X110882498Y-133342498D01*
X110728167Y-133530552D01*
X110613489Y-133745100D01*
X110542870Y-133977899D01*
X110525000Y-134159336D01*
X110455000Y-134159336D01*
X110455000Y-134159335D01*
X110437130Y-133977898D01*
X110366511Y-133745099D01*
X110251833Y-133530551D01*
X110097502Y-133342498D01*
X109909448Y-133188167D01*
X109694900Y-133073489D01*
X109462101Y-133002870D01*
X109220000Y-132979025D01*
X108977898Y-133002870D01*
X108745099Y-133073489D01*
X108530551Y-133188167D01*
X108342498Y-133342498D01*
X108188167Y-133530552D01*
X108073489Y-133745100D01*
X108002870Y-133977899D01*
X107985000Y-134159336D01*
X107915000Y-134159336D01*
X107915000Y-134159335D01*
X107897130Y-133977898D01*
X107826511Y-133745099D01*
X107711833Y-133530551D01*
X107557502Y-133342498D01*
X107369448Y-133188167D01*
X107154900Y-133073489D01*
X106922101Y-133002870D01*
X106680000Y-132979025D01*
X106437898Y-133002870D01*
X106205099Y-133073489D01*
X105990551Y-133188167D01*
X105802498Y-133342498D01*
X105648167Y-133530552D01*
X105533489Y-133745100D01*
X105462870Y-133977899D01*
X105445000Y-134159336D01*
X105375000Y-134159336D01*
X105375000Y-134159335D01*
X105357130Y-133977898D01*
X105286511Y-133745099D01*
X105171833Y-133530551D01*
X105017502Y-133342498D01*
X104829448Y-133188167D01*
X104614900Y-133073489D01*
X104382101Y-133002870D01*
X104140000Y-132979025D01*
X103897898Y-133002870D01*
X103665099Y-133073489D01*
X103450551Y-133188167D01*
X103262498Y-133342498D01*
X103108167Y-133530552D01*
X102993489Y-133745100D01*
X102922870Y-133977899D01*
X102905000Y-134159336D01*
X102835000Y-134159336D01*
X102835000Y-134093000D01*
X102786493Y-133854504D01*
X102692390Y-133630054D01*
X102556307Y-133428275D01*
X102383474Y-133256922D01*
X102180533Y-133122579D01*
X101955282Y-133030409D01*
X101917609Y-133026538D01*
X101727000Y-133151269D01*
X101473000Y-133151269D01*
X101282391Y-133026538D01*
X101244718Y-133030409D01*
X101019467Y-133122579D01*
X100816526Y-133256922D01*
X100745010Y-133327826D01*
X100745010Y-129232335D01*
X100748686Y-129195010D01*
X100745010Y-129157685D01*
X100745010Y-129157677D01*
X100734013Y-129046024D01*
X100690556Y-128902763D01*
X100619984Y-128770734D01*
X100525011Y-128655009D01*
X100496013Y-128631211D01*
X100029817Y-128165016D01*
X100091833Y-128089449D01*
X100206511Y-127874901D01*
X100277130Y-127642101D01*
X100295000Y-127460664D01*
X100295000Y-126539335D01*
X100277130Y-126357898D01*
X100206511Y-126125099D01*
X100091833Y-125910551D01*
X99937502Y-125722498D01*
X99749448Y-125568167D01*
X99534900Y-125453489D01*
X99302101Y-125382870D01*
X99060000Y-125359025D01*
X98817898Y-125382870D01*
X98585099Y-125453489D01*
X98370551Y-125568167D01*
X98182498Y-125722498D01*
X98028167Y-125910552D01*
X97913489Y-126125100D01*
X97842870Y-126357899D01*
X97825000Y-126539336D01*
X97825000Y-127460665D01*
X97842870Y-127642102D01*
X97913489Y-127874901D01*
X98028168Y-128089449D01*
X98182499Y-128277502D01*
X98307137Y-128379789D01*
X98310997Y-128418985D01*
X98349408Y-128545611D01*
X98354454Y-128562246D01*
X98425026Y-128694276D01*
X98461688Y-128738948D01*
X98519999Y-128810001D01*
X98549002Y-128833803D01*
X99225011Y-129509813D01*
X99225010Y-132995277D01*
X99060000Y-132979025D01*
X98817898Y-133002870D01*
X98585099Y-133073489D01*
X98370551Y-133188167D01*
X98205010Y-133324023D01*
X98205010Y-129232335D01*
X98208686Y-129195010D01*
X98205010Y-129157685D01*
X98205010Y-129157677D01*
X98194013Y-129046024D01*
X98150556Y-128902763D01*
X98079984Y-128770734D01*
X97985011Y-128655009D01*
X97956013Y-128631211D01*
X97489817Y-128165016D01*
X97551833Y-128089449D01*
X97666511Y-127874901D01*
X97737130Y-127642101D01*
X97755000Y-127460664D01*
X97755000Y-126539335D01*
X97737130Y-126357898D01*
X97666511Y-126125099D01*
X97551833Y-125910551D01*
X97397502Y-125722498D01*
X97209448Y-125568167D01*
X96994900Y-125453489D01*
X96762101Y-125382870D01*
X96520000Y-125359025D01*
X96277898Y-125382870D01*
X96045099Y-125453489D01*
X95830551Y-125568167D01*
X95642498Y-125722498D01*
X95488167Y-125910552D01*
X95373489Y-126125100D01*
X95302870Y-126357899D01*
X95285000Y-126539336D01*
X95285000Y-127460665D01*
X95302870Y-127642102D01*
X95373489Y-127874901D01*
X95488168Y-128089449D01*
X95642499Y-128277502D01*
X95767137Y-128379789D01*
X95770997Y-128418985D01*
X95809408Y-128545611D01*
X95814454Y-128562246D01*
X95885026Y-128694276D01*
X95921688Y-128738948D01*
X95979999Y-128810001D01*
X96009002Y-128833803D01*
X96685011Y-129509813D01*
X96685010Y-132995277D01*
X96520000Y-132979025D01*
X96277898Y-133002870D01*
X96045099Y-133073489D01*
X95830551Y-133188167D01*
X95665010Y-133324023D01*
X95665010Y-129232335D01*
X95668686Y-129195010D01*
X95665010Y-129157685D01*
X95665010Y-129157677D01*
X95654013Y-129046024D01*
X95610556Y-128902763D01*
X95539984Y-128770734D01*
X95445011Y-128655009D01*
X95416013Y-128631211D01*
X94949817Y-128165016D01*
X95011833Y-128089449D01*
X95126511Y-127874901D01*
X95197130Y-127642101D01*
X95215000Y-127460664D01*
X95215000Y-126539335D01*
X95197130Y-126357898D01*
X95126511Y-126125099D01*
X95011833Y-125910551D01*
X94857502Y-125722498D01*
X94669448Y-125568167D01*
X94454900Y-125453489D01*
X94222101Y-125382870D01*
X93980000Y-125359025D01*
X93737898Y-125382870D01*
X93505099Y-125453489D01*
X93290551Y-125568167D01*
X93102498Y-125722498D01*
X92948167Y-125910552D01*
X92833489Y-126125100D01*
X92762870Y-126357899D01*
X92745000Y-126539336D01*
X92745000Y-127460665D01*
X92762870Y-127642102D01*
X92833489Y-127874901D01*
X92948168Y-128089449D01*
X93102499Y-128277502D01*
X93227137Y-128379790D01*
X93230998Y-128418986D01*
X93234895Y-128431833D01*
X93274454Y-128562246D01*
X93345026Y-128694276D01*
X93407774Y-128770734D01*
X93440000Y-128810001D01*
X93468998Y-128833799D01*
X94145011Y-129509813D01*
X94145010Y-132995277D01*
X93980000Y-132979025D01*
X93737898Y-133002870D01*
X93505099Y-133073489D01*
X93290551Y-133188167D01*
X93125010Y-133324023D01*
X93125010Y-129232335D01*
X93128686Y-129195010D01*
X93125010Y-129157685D01*
X93125010Y-129157677D01*
X93114013Y-129046024D01*
X93070556Y-128902763D01*
X92999984Y-128770734D01*
X92905011Y-128655009D01*
X92876013Y-128631211D01*
X92409817Y-128165016D01*
X92471833Y-128089449D01*
X92586511Y-127874901D01*
X92657130Y-127642101D01*
X92675000Y-127460664D01*
X92675000Y-126539335D01*
X92657130Y-126357898D01*
X92586511Y-126125099D01*
X92471833Y-125910551D01*
X92317502Y-125722498D01*
X92129448Y-125568167D01*
X91914900Y-125453489D01*
X91682101Y-125382870D01*
X91440000Y-125359025D01*
X91197898Y-125382870D01*
X90965099Y-125453489D01*
X90750551Y-125568167D01*
X90562498Y-125722498D01*
X90408167Y-125910552D01*
X90293489Y-126125100D01*
X90222870Y-126357899D01*
X90205000Y-126539336D01*
X90205000Y-127460665D01*
X90222870Y-127642102D01*
X90293489Y-127874901D01*
X90408168Y-128089449D01*
X90562499Y-128277502D01*
X90687137Y-128379789D01*
X90690997Y-128418985D01*
X90729408Y-128545611D01*
X90734454Y-128562246D01*
X90805026Y-128694276D01*
X90841688Y-128738948D01*
X90899999Y-128810001D01*
X90929002Y-128833803D01*
X91605011Y-129509813D01*
X91605010Y-132995277D01*
X91440000Y-132979025D01*
X91197898Y-133002870D01*
X90965099Y-133073489D01*
X90750551Y-133188167D01*
X90585010Y-133324023D01*
X90585010Y-129232335D01*
X90588686Y-129195010D01*
X90585010Y-129157685D01*
X90585010Y-129157677D01*
X90574013Y-129046024D01*
X90530556Y-128902763D01*
X90459984Y-128770734D01*
X90365011Y-128655009D01*
X90336013Y-128631211D01*
X89869817Y-128165016D01*
X89931833Y-128089449D01*
X90046511Y-127874901D01*
X90117130Y-127642101D01*
X90135000Y-127460664D01*
X90135000Y-126539335D01*
X90117130Y-126357898D01*
X90046511Y-126125099D01*
X89931833Y-125910551D01*
X89777502Y-125722498D01*
X89589448Y-125568167D01*
X89374900Y-125453489D01*
X89142101Y-125382870D01*
X88900000Y-125359025D01*
X88657898Y-125382870D01*
X88425099Y-125453489D01*
X88210551Y-125568167D01*
X88022498Y-125722498D01*
X87868167Y-125910552D01*
X87753489Y-126125100D01*
X87682870Y-126357899D01*
X87665000Y-126539336D01*
X87665000Y-127460665D01*
X87682870Y-127642102D01*
X87753489Y-127874901D01*
X87868168Y-128089449D01*
X88022499Y-128277502D01*
X88147137Y-128379789D01*
X88150997Y-128418985D01*
X88189408Y-128545611D01*
X88194454Y-128562246D01*
X88265026Y-128694276D01*
X88301688Y-128738948D01*
X88359999Y-128810001D01*
X88389002Y-128833803D01*
X89065011Y-129509813D01*
X89065010Y-133126396D01*
X89027000Y-133151269D01*
X89027000Y-134493000D01*
X89047000Y-134493000D01*
X89047000Y-134747000D01*
X89027000Y-134747000D01*
X89027000Y-134767000D01*
X88773000Y-134767000D01*
X88773000Y-134747000D01*
X88753000Y-134747000D01*
X88753000Y-134493000D01*
X88773000Y-134493000D01*
X88773000Y-133151269D01*
X88582391Y-133026538D01*
X88544718Y-133030409D01*
X88319467Y-133122579D01*
X88116526Y-133256922D01*
X88045010Y-133327826D01*
X88045010Y-129232335D01*
X88048686Y-129195010D01*
X88045010Y-129157685D01*
X88045010Y-129157677D01*
X88034013Y-129046024D01*
X87990556Y-128902763D01*
X87919984Y-128770734D01*
X87825011Y-128655009D01*
X87796013Y-128631211D01*
X87329817Y-128165016D01*
X87391833Y-128089449D01*
X87506511Y-127874901D01*
X87577130Y-127642101D01*
X87595000Y-127460664D01*
X87595000Y-126539335D01*
X87577130Y-126357898D01*
X87506511Y-126125099D01*
X87391833Y-125910551D01*
X87237502Y-125722498D01*
X87049448Y-125568167D01*
X86834900Y-125453489D01*
X86602101Y-125382870D01*
X86360000Y-125359025D01*
X86117898Y-125382870D01*
X85885099Y-125453489D01*
X85670551Y-125568167D01*
X85482498Y-125722498D01*
X85328167Y-125910552D01*
X85213489Y-126125100D01*
X85142870Y-126357899D01*
X85125000Y-126539336D01*
X85125000Y-127460665D01*
X85142870Y-127642102D01*
X85213489Y-127874901D01*
X85328168Y-128089449D01*
X85482499Y-128277502D01*
X85607137Y-128379789D01*
X85610997Y-128418985D01*
X85649408Y-128545611D01*
X85654454Y-128562246D01*
X85725026Y-128694276D01*
X85761688Y-128738948D01*
X85819999Y-128810001D01*
X85849002Y-128833803D01*
X86525011Y-129509813D01*
X86525010Y-132995277D01*
X86360000Y-132979025D01*
X86117898Y-133002870D01*
X85885099Y-133073489D01*
X85670551Y-133188167D01*
X85505010Y-133324023D01*
X85505010Y-129232335D01*
X85508686Y-129195010D01*
X85505010Y-129157685D01*
X85505010Y-129157677D01*
X85494013Y-129046024D01*
X85450556Y-128902763D01*
X85379984Y-128770734D01*
X85285011Y-128655009D01*
X85256013Y-128631211D01*
X84789817Y-128165016D01*
X84851833Y-128089449D01*
X84966511Y-127874901D01*
X85037130Y-127642101D01*
X85055000Y-127460664D01*
X85055000Y-126539335D01*
X85037130Y-126357898D01*
X84966511Y-126125099D01*
X84851833Y-125910551D01*
X84697502Y-125722498D01*
X84509448Y-125568167D01*
X84294900Y-125453489D01*
X84062101Y-125382870D01*
X83820000Y-125359025D01*
X83577898Y-125382870D01*
X83345099Y-125453489D01*
X83130551Y-125568167D01*
X82942498Y-125722498D01*
X82788167Y-125910552D01*
X82673489Y-126125100D01*
X82602870Y-126357899D01*
X82585000Y-126539336D01*
X81940000Y-126539336D01*
X81940000Y-111792279D01*
X81978909Y-111395455D01*
X82007928Y-111299336D01*
X82585000Y-111299336D01*
X82585000Y-112220665D01*
X82602870Y-112402102D01*
X82673489Y-112634901D01*
X82788168Y-112849449D01*
X82942499Y-113037502D01*
X83130552Y-113191833D01*
X83345100Y-113306511D01*
X83577899Y-113377130D01*
X83820000Y-113400975D01*
X84062102Y-113377130D01*
X84294901Y-113306511D01*
X84509449Y-113191833D01*
X84697502Y-113037502D01*
X84851833Y-112849449D01*
X84966511Y-112634901D01*
X85037130Y-112402101D01*
X85055000Y-112220664D01*
X85055000Y-111887000D01*
X85125000Y-111887000D01*
X85125000Y-112287000D01*
X85173507Y-112525496D01*
X85267610Y-112749946D01*
X85403693Y-112951725D01*
X85576526Y-113123078D01*
X85779467Y-113257421D01*
X86004718Y-113349591D01*
X86042391Y-113353462D01*
X86233000Y-113228731D01*
X86233000Y-111887000D01*
X86487000Y-111887000D01*
X86487000Y-113228731D01*
X86677609Y-113353462D01*
X86715282Y-113349591D01*
X86940533Y-113257421D01*
X87143474Y-113123078D01*
X87316307Y-112951725D01*
X87452390Y-112749946D01*
X87546493Y-112525496D01*
X87595000Y-112287000D01*
X87595000Y-111887000D01*
X86487000Y-111887000D01*
X86233000Y-111887000D01*
X85125000Y-111887000D01*
X85055000Y-111887000D01*
X85055000Y-111299335D01*
X85048467Y-111233000D01*
X85125000Y-111233000D01*
X85125000Y-111633000D01*
X86233000Y-111633000D01*
X86233000Y-110291269D01*
X86487000Y-110291269D01*
X86487000Y-111633000D01*
X87595000Y-111633000D01*
X87595000Y-111299336D01*
X87665000Y-111299336D01*
X87665000Y-112220665D01*
X87682870Y-112402102D01*
X87753489Y-112634901D01*
X87868168Y-112849449D01*
X88022499Y-113037502D01*
X88210552Y-113191833D01*
X88425100Y-113306511D01*
X88657899Y-113377130D01*
X88900000Y-113400975D01*
X89142102Y-113377130D01*
X89374901Y-113306511D01*
X89589449Y-113191833D01*
X89777502Y-113037502D01*
X89931833Y-112849449D01*
X90046511Y-112634901D01*
X90117130Y-112402101D01*
X90135000Y-112220664D01*
X90135000Y-111299336D01*
X90205000Y-111299336D01*
X90205000Y-112220665D01*
X90222870Y-112402102D01*
X90293489Y-112634901D01*
X90408168Y-112849449D01*
X90562499Y-113037502D01*
X90750552Y-113191833D01*
X90965100Y-113306511D01*
X91197899Y-113377130D01*
X91440000Y-113400975D01*
X91682102Y-113377130D01*
X91914901Y-113306511D01*
X92129449Y-113191833D01*
X92317502Y-113037502D01*
X92471833Y-112849449D01*
X92586511Y-112634901D01*
X92657130Y-112402101D01*
X92675000Y-112220664D01*
X92675000Y-111299336D01*
X92745000Y-111299336D01*
X92745000Y-112220665D01*
X92762870Y-112402102D01*
X92833489Y-112634901D01*
X92948168Y-112849449D01*
X93102499Y-113037502D01*
X93290552Y-113191833D01*
X93505100Y-113306511D01*
X93737899Y-113377130D01*
X93980000Y-113400975D01*
X94222102Y-113377130D01*
X94454901Y-113306511D01*
X94669449Y-113191833D01*
X94857502Y-113037502D01*
X95011833Y-112849449D01*
X95126511Y-112634901D01*
X95197130Y-112402101D01*
X95215000Y-112220664D01*
X95215000Y-111299336D01*
X95285000Y-111299336D01*
X95285000Y-112220665D01*
X95302870Y-112402102D01*
X95373489Y-112634901D01*
X95488168Y-112849449D01*
X95642499Y-113037502D01*
X95830552Y-113191833D01*
X96045100Y-113306511D01*
X96277899Y-113377130D01*
X96520000Y-113400975D01*
X96762102Y-113377130D01*
X96994901Y-113306511D01*
X97209449Y-113191833D01*
X97397502Y-113037502D01*
X97551833Y-112849449D01*
X97666511Y-112634901D01*
X97737130Y-112402101D01*
X97755000Y-112220664D01*
X97755000Y-111299336D01*
X97825000Y-111299336D01*
X97825000Y-112220665D01*
X97842870Y-112402102D01*
X97913489Y-112634901D01*
X98028168Y-112849449D01*
X98182499Y-113037502D01*
X98370552Y-113191833D01*
X98585100Y-113306511D01*
X98817899Y-113377130D01*
X99060000Y-113400975D01*
X99302102Y-113377130D01*
X99534901Y-113306511D01*
X99749449Y-113191833D01*
X99937502Y-113037502D01*
X100091833Y-112849449D01*
X100206511Y-112634901D01*
X100277130Y-112402101D01*
X100295000Y-112220664D01*
X100295000Y-111299335D01*
X100277130Y-111117898D01*
X100206511Y-110885099D01*
X100091833Y-110670551D01*
X99937502Y-110482498D01*
X99749448Y-110328167D01*
X99534900Y-110213489D01*
X99302101Y-110142870D01*
X99060000Y-110119025D01*
X98817898Y-110142870D01*
X98585099Y-110213489D01*
X98370551Y-110328167D01*
X98182498Y-110482498D01*
X98028167Y-110670552D01*
X97913489Y-110885100D01*
X97842870Y-111117899D01*
X97825000Y-111299336D01*
X97755000Y-111299336D01*
X97755000Y-111299335D01*
X97737130Y-111117898D01*
X97666511Y-110885099D01*
X97551833Y-110670551D01*
X97397502Y-110482498D01*
X97209448Y-110328167D01*
X96994900Y-110213489D01*
X96762101Y-110142870D01*
X96520000Y-110119025D01*
X96277898Y-110142870D01*
X96045099Y-110213489D01*
X95830551Y-110328167D01*
X95642498Y-110482498D01*
X95488167Y-110670552D01*
X95373489Y-110885100D01*
X95302870Y-111117899D01*
X95285000Y-111299336D01*
X95215000Y-111299336D01*
X95215000Y-111299335D01*
X95197130Y-111117898D01*
X95126511Y-110885099D01*
X95011833Y-110670551D01*
X94857502Y-110482498D01*
X94669448Y-110328167D01*
X94454900Y-110213489D01*
X94222101Y-110142870D01*
X93980000Y-110119025D01*
X93737898Y-110142870D01*
X93505099Y-110213489D01*
X93290551Y-110328167D01*
X93102498Y-110482498D01*
X92948167Y-110670552D01*
X92833489Y-110885100D01*
X92762870Y-111117899D01*
X92745000Y-111299336D01*
X92675000Y-111299336D01*
X92675000Y-111299335D01*
X92657130Y-111117898D01*
X92586511Y-110885099D01*
X92471833Y-110670551D01*
X92317502Y-110482498D01*
X92129448Y-110328167D01*
X91914900Y-110213489D01*
X91682101Y-110142870D01*
X91440000Y-110119025D01*
X91197898Y-110142870D01*
X90965099Y-110213489D01*
X90750551Y-110328167D01*
X90562498Y-110482498D01*
X90408167Y-110670552D01*
X90293489Y-110885100D01*
X90222870Y-111117899D01*
X90205000Y-111299336D01*
X90135000Y-111299336D01*
X90135000Y-111299335D01*
X90117130Y-111117898D01*
X90046511Y-110885099D01*
X89931833Y-110670551D01*
X89777502Y-110482498D01*
X89589448Y-110328167D01*
X89374900Y-110213489D01*
X89142101Y-110142870D01*
X88900000Y-110119025D01*
X88657898Y-110142870D01*
X88425099Y-110213489D01*
X88210551Y-110328167D01*
X88022498Y-110482498D01*
X87868167Y-110670552D01*
X87753489Y-110885100D01*
X87682870Y-111117899D01*
X87665000Y-111299336D01*
X87595000Y-111299336D01*
X87595000Y-111233000D01*
X87546493Y-110994504D01*
X87452390Y-110770054D01*
X87316307Y-110568275D01*
X87143474Y-110396922D01*
X86940533Y-110262579D01*
X86715282Y-110170409D01*
X86677609Y-110166538D01*
X86487000Y-110291269D01*
X86233000Y-110291269D01*
X86042391Y-110166538D01*
X86004718Y-110170409D01*
X85779467Y-110262579D01*
X85576526Y-110396922D01*
X85403693Y-110568275D01*
X85267610Y-110770054D01*
X85173507Y-110994504D01*
X85125000Y-111233000D01*
X85048467Y-111233000D01*
X85037130Y-111117898D01*
X84966511Y-110885099D01*
X84851833Y-110670551D01*
X84697502Y-110482498D01*
X84509448Y-110328167D01*
X84294900Y-110213489D01*
X84062101Y-110142870D01*
X83820000Y-110119025D01*
X83577898Y-110142870D01*
X83345099Y-110213489D01*
X83130551Y-110328167D01*
X82942498Y-110482498D01*
X82788167Y-110670552D01*
X82673489Y-110885100D01*
X82602870Y-111117899D01*
X82585000Y-111299336D01*
X82007928Y-111299336D01*
X82084780Y-111044792D01*
X82256744Y-110721375D01*
X82488254Y-110437516D01*
X82770486Y-110204035D01*
X83092695Y-110029817D01*
X83442614Y-109921498D01*
X83837443Y-109880000D01*
X99027721Y-109880000D01*
X99424545Y-109918909D01*
G37*
G04 #@! TD.AperFunction*
M02*
